<svg xmlns="http://www.w3.org/2000/svg" xmlns:xlink="http://www.w3.org/1999/xlink" width="1000" zoomAndPan="magnify" viewBox="0 0 750 299.999988" height="400" preserveAspectRatio="xMidYMid meet" version="1.0"><defs><clipPath id="158246bae4"><path d="M 6 40.71875 L 744 40.71875 L 744 258.96875 L 6 258.96875 Z M 6 40.71875 " clip-rule="nonzero"/></clipPath><clipPath id="76803e4970"><path d="M 60 81 L 132 81 L 132 219 L 60 219 Z M 60 81 " clip-rule="nonzero"/></clipPath><clipPath id="9c71bca332"><path d="M 62.992188 81.640625 C 61.351562 83.28125 60.808594 86.007812 60.808594 89.28125 L 60.808594 209.863281 C 60.808594 213.136719 61.898438 215.867188 63.539062 217.503906 L 64.082031 218.046875 L 131.8125 150.390625 L 131.8125 149.300781 Z M 62.992188 81.640625 " clip-rule="nonzero"/></clipPath><linearGradient x1="23.005141" gradientTransform="matrix(5.461882, 0, 0, -5.456249, 6.18788, 1033.759169)" y1="174.49506" x2="4.004751" gradientUnits="userSpaceOnUse" y2="155.495808" id="7598f7eb8b"><stop stop-opacity="1" stop-color="rgb(0%, 62.69989%, 100%)" offset="0"/><stop stop-opacity="1" stop-color="rgb(0%, 62.69989%, 100%)" offset="0.0625"/><stop stop-opacity="1" stop-color="rgb(0%, 62.916565%, 100%)" offset="0.0664063"/><stop stop-opacity="1" stop-color="rgb(0%, 63.134766%, 100%)" offset="0.0703125"/><stop stop-opacity="1" stop-color="rgb(0%, 63.33313%, 100%)" offset="0.0742188"/><stop stop-opacity="1" stop-color="rgb(0%, 63.53302%, 100%)" offset="0.078125"/><stop stop-opacity="1" stop-color="rgb(0%, 63.73291%, 100%)" offset="0.0820313"/><stop stop-opacity="1" stop-color="rgb(0%, 63.9328%, 100%)" offset="0.0859375"/><stop stop-opacity="1" stop-color="rgb(0%, 64.131165%, 100%)" offset="0.0898438"/><stop stop-opacity="1" stop-color="rgb(0%, 64.331055%, 100%)" offset="0.09375"/><stop stop-opacity="1" stop-color="rgb(0%, 64.529419%, 100%)" offset="0.0976563"/><stop stop-opacity="1" stop-color="rgb(0%, 64.729309%, 100%)" offset="0.101563"/><stop stop-opacity="1" stop-color="rgb(0%, 64.927673%, 100%)" offset="0.105469"/><stop stop-opacity="1" stop-color="rgb(0%, 65.127563%, 100%)" offset="0.109375"/><stop stop-opacity="1" stop-color="rgb(0%, 65.325928%, 100%)" offset="0.113281"/><stop stop-opacity="1" stop-color="rgb(0%, 65.525818%, 100%)" offset="0.117188"/><stop stop-opacity="1" stop-color="rgb(0%, 65.724182%, 100%)" offset="0.121094"/><stop stop-opacity="1" stop-color="rgb(0%, 65.924072%, 100%)" offset="0.125"/><stop stop-opacity="1" stop-color="rgb(0%, 66.123962%, 100%)" offset="0.128906"/><stop stop-opacity="1" stop-color="rgb(0%, 66.323853%, 100%)" offset="0.132813"/><stop stop-opacity="1" stop-color="rgb(0%, 66.522217%, 100%)" offset="0.136719"/><stop stop-opacity="1" stop-color="rgb(0%, 66.722107%, 100%)" offset="0.140625"/><stop stop-opacity="1" stop-color="rgb(0%, 66.920471%, 100%)" offset="0.144531"/><stop stop-opacity="1" stop-color="rgb(0%, 67.120361%, 100%)" offset="0.148438"/><stop stop-opacity="1" stop-color="rgb(0%, 67.318726%, 100%)" offset="0.152344"/><stop stop-opacity="1" stop-color="rgb(0%, 67.518616%, 100%)" offset="0.15625"/><stop stop-opacity="1" stop-color="rgb(0%, 67.71698%, 100%)" offset="0.160156"/><stop stop-opacity="1" stop-color="rgb(0%, 67.91687%, 100%)" offset="0.164062"/><stop stop-opacity="1" stop-color="rgb(0%, 68.11676%, 100%)" offset="0.167969"/><stop stop-opacity="1" stop-color="rgb(0%, 68.31665%, 100%)" offset="0.171875"/><stop stop-opacity="1" stop-color="rgb(0%, 68.515015%, 100%)" offset="0.175781"/><stop stop-opacity="1" stop-color="rgb(0%, 68.714905%, 100%)" offset="0.179688"/><stop stop-opacity="1" stop-color="rgb(0%, 68.913269%, 100%)" offset="0.183594"/><stop stop-opacity="1" stop-color="rgb(0%, 69.113159%, 100%)" offset="0.1875"/><stop stop-opacity="1" stop-color="rgb(0%, 69.311523%, 100%)" offset="0.191406"/><stop stop-opacity="1" stop-color="rgb(0%, 69.511414%, 100%)" offset="0.195313"/><stop stop-opacity="1" stop-color="rgb(0%, 69.709778%, 100%)" offset="0.199219"/><stop stop-opacity="1" stop-color="rgb(0%, 69.909668%, 100%)" offset="0.203125"/><stop stop-opacity="1" stop-color="rgb(0%, 70.109558%, 100%)" offset="0.207031"/><stop stop-opacity="1" stop-color="rgb(0%, 70.309448%, 100%)" offset="0.210938"/><stop stop-opacity="1" stop-color="rgb(0%, 70.507812%, 100%)" offset="0.214844"/><stop stop-opacity="1" stop-color="rgb(0%, 70.707703%, 100%)" offset="0.21875"/><stop stop-opacity="1" stop-color="rgb(0%, 70.906067%, 100%)" offset="0.222656"/><stop stop-opacity="1" stop-color="rgb(0%, 71.105957%, 100%)" offset="0.226562"/><stop stop-opacity="1" stop-color="rgb(0%, 71.304321%, 100%)" offset="0.230469"/><stop stop-opacity="1" stop-color="rgb(0%, 71.504211%, 100%)" offset="0.234375"/><stop stop-opacity="1" stop-color="rgb(0%, 71.702576%, 100%)" offset="0.238281"/><stop stop-opacity="1" stop-color="rgb(0%, 71.902466%, 100%)" offset="0.242188"/><stop stop-opacity="1" stop-color="rgb(0%, 72.10083%, 100%)" offset="0.246094"/><stop stop-opacity="1" stop-color="rgb(0%, 72.30072%, 100%)" offset="0.25"/><stop stop-opacity="1" stop-color="rgb(0%, 72.50061%, 100%)" offset="0.253906"/><stop stop-opacity="1" stop-color="rgb(0%, 72.7005%, 100%)" offset="0.257812"/><stop stop-opacity="1" stop-color="rgb(0%, 72.898865%, 100%)" offset="0.261719"/><stop stop-opacity="1" stop-color="rgb(0%, 73.098755%, 100%)" offset="0.265625"/><stop stop-opacity="1" stop-color="rgb(0%, 73.297119%, 100%)" offset="0.269531"/><stop stop-opacity="1" stop-color="rgb(0%, 73.497009%, 100%)" offset="0.273438"/><stop stop-opacity="1" stop-color="rgb(0%, 73.695374%, 100%)" offset="0.277344"/><stop stop-opacity="1" stop-color="rgb(0%, 73.895264%, 100%)" offset="0.28125"/><stop stop-opacity="1" stop-color="rgb(0%, 74.093628%, 100%)" offset="0.285156"/><stop stop-opacity="1" stop-color="rgb(0%, 74.293518%, 100%)" offset="0.289063"/><stop stop-opacity="1" stop-color="rgb(0%, 74.462891%, 100%)" offset="0.296875"/><stop stop-opacity="1" stop-color="rgb(0%, 74.772644%, 100%)" offset="0.304688"/><stop stop-opacity="1" stop-color="rgb(0%, 75.048828%, 100%)" offset="0.3125"/><stop stop-opacity="1" stop-color="rgb(0%, 75.326538%, 100%)" offset="0.320312"/><stop stop-opacity="1" stop-color="rgb(0%, 75.604248%, 100%)" offset="0.328125"/><stop stop-opacity="1" stop-color="rgb(0%, 75.881958%, 100%)" offset="0.335938"/><stop stop-opacity="1" stop-color="rgb(0%, 76.158142%, 100%)" offset="0.342119"/><stop stop-opacity="1" stop-color="rgb(0%, 76.296997%, 100%)" offset="0.34375"/><stop stop-opacity="1" stop-color="rgb(0%, 76.435852%, 100%)" offset="0.351563"/><stop stop-opacity="1" stop-color="rgb(0%, 76.713562%, 100%)" offset="0.359375"/><stop stop-opacity="1" stop-color="rgb(0%, 76.989746%, 100%)" offset="0.367188"/><stop stop-opacity="1" stop-color="rgb(0%, 77.267456%, 100%)" offset="0.375"/><stop stop-opacity="1" stop-color="rgb(0%, 77.545166%, 100%)" offset="0.382813"/><stop stop-opacity="1" stop-color="rgb(0%, 77.822876%, 100%)" offset="0.390625"/><stop stop-opacity="1" stop-color="rgb(0%, 78.09906%, 100%)" offset="0.398438"/><stop stop-opacity="1" stop-color="rgb(0%, 78.37677%, 100%)" offset="0.40625"/><stop stop-opacity="1" stop-color="rgb(0%, 78.65448%, 100%)" offset="0.414063"/><stop stop-opacity="1" stop-color="rgb(0%, 78.930664%, 100%)" offset="0.421875"/><stop stop-opacity="1" stop-color="rgb(0%, 79.208374%, 100%)" offset="0.429688"/><stop stop-opacity="1" stop-color="rgb(0%, 79.486084%, 100%)" offset="0.4375"/><stop stop-opacity="1" stop-color="rgb(0%, 79.763794%, 100%)" offset="0.445312"/><stop stop-opacity="1" stop-color="rgb(0%, 80.039978%, 100%)" offset="0.453125"/><stop stop-opacity="1" stop-color="rgb(0%, 80.317688%, 100%)" offset="0.460938"/><stop stop-opacity="1" stop-color="rgb(0%, 80.595398%, 100%)" offset="0.46875"/><stop stop-opacity="1" stop-color="rgb(0%, 80.871582%, 100%)" offset="0.476562"/><stop stop-opacity="1" stop-color="rgb(0%, 81.149292%, 100%)" offset="0.484375"/><stop stop-opacity="1" stop-color="rgb(0%, 81.427002%, 100%)" offset="0.492188"/><stop stop-opacity="1" stop-color="rgb(0%, 81.704712%, 100%)" offset="0.5"/><stop stop-opacity="1" stop-color="rgb(0%, 81.980896%, 100%)" offset="0.507813"/><stop stop-opacity="1" stop-color="rgb(0%, 82.258606%, 100%)" offset="0.515625"/><stop stop-opacity="1" stop-color="rgb(0%, 82.579041%, 100%)" offset="0.53125"/><stop stop-opacity="1" stop-color="rgb(0%, 82.943726%, 100%)" offset="0.546875"/><stop stop-opacity="1" stop-color="rgb(0%, 83.306885%, 100%)" offset="0.5625"/><stop stop-opacity="1" stop-color="rgb(0%, 83.67157%, 100%)" offset="0.578125"/><stop stop-opacity="1" stop-color="rgb(0%, 84.034729%, 100%)" offset="0.59375"/><stop stop-opacity="1" stop-color="rgb(0%, 84.397888%, 100%)" offset="0.609375"/><stop stop-opacity="1" stop-color="rgb(0%, 84.762573%, 100%)" offset="0.625"/><stop stop-opacity="1" stop-color="rgb(0%, 85.125732%, 100%)" offset="0.640625"/><stop stop-opacity="1" stop-color="rgb(0%, 85.490417%, 100%)" offset="0.65625"/><stop stop-opacity="1" stop-color="rgb(0%, 85.853577%, 100%)" offset="0.657881"/><stop stop-opacity="1" stop-color="rgb(0%, 86.035156%, 100%)" offset="0.671875"/><stop stop-opacity="1" stop-color="rgb(0%, 86.216736%, 100%)" offset="0.6875"/><stop stop-opacity="1" stop-color="rgb(0%, 86.581421%, 100%)" offset="0.703125"/><stop stop-opacity="1" stop-color="rgb(0%, 86.94458%, 100%)" offset="0.71875"/><stop stop-opacity="1" stop-color="rgb(0%, 87.309265%, 100%)" offset="0.734375"/><stop stop-opacity="1" stop-color="rgb(0%, 87.548828%, 100%)" offset="0.75"/><stop stop-opacity="1" stop-color="rgb(0%, 87.716675%, 100%)" offset="0.78125"/><stop stop-opacity="1" stop-color="rgb(0%, 87.937927%, 100%)" offset="0.8125"/><stop stop-opacity="1" stop-color="rgb(0%, 88.15918%, 100%)" offset="0.84375"/><stop stop-opacity="1" stop-color="rgb(0%, 88.380432%, 100%)" offset="0.875"/><stop stop-opacity="1" stop-color="rgb(0%, 88.601685%, 100%)" offset="0.90625"/><stop stop-opacity="1" stop-color="rgb(0%, 88.822937%, 100%)" offset="0.9375"/><stop stop-opacity="1" stop-color="rgb(0%, 88.96637%, 100%)" offset="1"/></linearGradient><clipPath id="75bdfc425c"><path d="M 131 126 L 187 126 L 187 174 L 131 174 Z M 131 126 " clip-rule="nonzero"/></clipPath><clipPath id="e78803ac21"><path d="M 153.660156 173.308594 L 131.265625 150.9375 L 131.265625 149.300781 L 153.660156 126.929688 L 154.203125 127.476562 L 180.96875 142.753906 C 188.613281 147.117188 188.613281 154.210938 180.96875 158.574219 Z M 153.660156 173.308594 " clip-rule="nonzero"/></clipPath><linearGradient x1="33.400002" gradientTransform="matrix(5.461882, 0, 0, -5.456249, 6.18788, 1033.759169)" y1="161.998993" x2="22.9" gradientUnits="userSpaceOnUse" y2="161.998993" id="563ff19d75"><stop stop-opacity="1" stop-color="rgb(100%, 87.197876%, 0%)" offset="0"/><stop stop-opacity="1" stop-color="rgb(100%, 87.084961%, 0%)" offset="0.015625"/><stop stop-opacity="1" stop-color="rgb(100%, 86.857605%, 0%)" offset="0.03125"/><stop stop-opacity="1" stop-color="rgb(100%, 86.630249%, 0%)" offset="0.046875"/><stop stop-opacity="1" stop-color="rgb(100%, 86.402893%, 0%)" offset="0.0625"/><stop stop-opacity="1" stop-color="rgb(100%, 86.175537%, 0%)" offset="0.078125"/><stop stop-opacity="1" stop-color="rgb(100%, 85.948181%, 0%)" offset="0.09375"/><stop stop-opacity="1" stop-color="rgb(100%, 85.720825%, 0%)" offset="0.109375"/><stop stop-opacity="1" stop-color="rgb(100%, 85.494995%, 0%)" offset="0.125"/><stop stop-opacity="1" stop-color="rgb(100%, 85.267639%, 0%)" offset="0.140625"/><stop stop-opacity="1" stop-color="rgb(100%, 85.040283%, 0%)" offset="0.15625"/><stop stop-opacity="1" stop-color="rgb(100%, 84.812927%, 0%)" offset="0.171875"/><stop stop-opacity="1" stop-color="rgb(100%, 84.585571%, 0%)" offset="0.1875"/><stop stop-opacity="1" stop-color="rgb(100%, 84.358215%, 0%)" offset="0.203125"/><stop stop-opacity="1" stop-color="rgb(100%, 84.132385%, 0%)" offset="0.21875"/><stop stop-opacity="1" stop-color="rgb(100%, 83.905029%, 0%)" offset="0.234375"/><stop stop-opacity="1" stop-color="rgb(100%, 83.677673%, 0%)" offset="0.25"/><stop stop-opacity="1" stop-color="rgb(100%, 83.450317%, 0%)" offset="0.265625"/><stop stop-opacity="1" stop-color="rgb(100%, 83.222961%, 0%)" offset="0.28125"/><stop stop-opacity="1" stop-color="rgb(100%, 82.995605%, 0%)" offset="0.296875"/><stop stop-opacity="1" stop-color="rgb(100%, 82.769775%, 0%)" offset="0.3125"/><stop stop-opacity="1" stop-color="rgb(100%, 82.542419%, 0%)" offset="0.328125"/><stop stop-opacity="1" stop-color="rgb(100%, 82.315063%, 0%)" offset="0.34375"/><stop stop-opacity="1" stop-color="rgb(100%, 82.087708%, 0%)" offset="0.359375"/><stop stop-opacity="1" stop-color="rgb(100%, 81.860352%, 0%)" offset="0.375"/><stop stop-opacity="1" stop-color="rgb(100%, 81.632996%, 0%)" offset="0.390625"/><stop stop-opacity="1" stop-color="rgb(100%, 81.40564%, 0%)" offset="0.40625"/><stop stop-opacity="1" stop-color="rgb(100%, 81.17981%, 0%)" offset="0.421875"/><stop stop-opacity="1" stop-color="rgb(100%, 80.952454%, 0%)" offset="0.4375"/><stop stop-opacity="1" stop-color="rgb(100%, 80.725098%, 0%)" offset="0.453125"/><stop stop-opacity="1" stop-color="rgb(100%, 80.497742%, 0%)" offset="0.46875"/><stop stop-opacity="1" stop-color="rgb(100%, 80.270386%, 0%)" offset="0.484375"/><stop stop-opacity="1" stop-color="rgb(100%, 80.04303%, 0%)" offset="0.5"/><stop stop-opacity="1" stop-color="rgb(100%, 79.8172%, 0%)" offset="0.515625"/><stop stop-opacity="1" stop-color="rgb(100%, 79.589844%, 0%)" offset="0.53125"/><stop stop-opacity="1" stop-color="rgb(100%, 79.362488%, 0%)" offset="0.546875"/><stop stop-opacity="1" stop-color="rgb(100%, 79.135132%, 0%)" offset="0.5625"/><stop stop-opacity="1" stop-color="rgb(100%, 78.907776%, 0%)" offset="0.578125"/><stop stop-opacity="1" stop-color="rgb(100%, 78.68042%, 0%)" offset="0.59375"/><stop stop-opacity="1" stop-color="rgb(100%, 78.45459%, 0%)" offset="0.609375"/><stop stop-opacity="1" stop-color="rgb(100%, 78.227234%, 0%)" offset="0.625"/><stop stop-opacity="1" stop-color="rgb(100%, 77.999878%, 0%)" offset="0.640625"/><stop stop-opacity="1" stop-color="rgb(100%, 77.772522%, 0%)" offset="0.65625"/><stop stop-opacity="1" stop-color="rgb(100%, 77.545166%, 0%)" offset="0.671875"/><stop stop-opacity="1" stop-color="rgb(100%, 77.31781%, 0%)" offset="0.6875"/><stop stop-opacity="1" stop-color="rgb(100%, 77.090454%, 0%)" offset="0.703125"/><stop stop-opacity="1" stop-color="rgb(100%, 76.864624%, 0%)" offset="0.71875"/><stop stop-opacity="1" stop-color="rgb(100%, 76.637268%, 0%)" offset="0.734375"/><stop stop-opacity="1" stop-color="rgb(100%, 76.409912%, 0%)" offset="0.75"/><stop stop-opacity="1" stop-color="rgb(100%, 76.182556%, 0%)" offset="0.765625"/><stop stop-opacity="1" stop-color="rgb(100%, 75.9552%, 0%)" offset="0.78125"/><stop stop-opacity="1" stop-color="rgb(100%, 75.727844%, 0%)" offset="0.796875"/><stop stop-opacity="1" stop-color="rgb(100%, 75.502014%, 0%)" offset="0.8125"/><stop stop-opacity="1" stop-color="rgb(100%, 75.274658%, 0%)" offset="0.828125"/><stop stop-opacity="1" stop-color="rgb(100%, 75.047302%, 0%)" offset="0.84375"/><stop stop-opacity="1" stop-color="rgb(100%, 74.819946%, 0%)" offset="0.859375"/><stop stop-opacity="1" stop-color="rgb(100%, 74.59259%, 0%)" offset="0.875"/><stop stop-opacity="1" stop-color="rgb(100%, 74.365234%, 0%)" offset="0.890625"/><stop stop-opacity="1" stop-color="rgb(100%, 74.147034%, 0%)" offset="0.90625"/><stop stop-opacity="1" stop-color="rgb(100%, 73.869324%, 0%)" offset="0.9375"/><stop stop-opacity="1" stop-color="rgb(100%, 73.519897%, 0%)" offset="0.96875"/><stop stop-opacity="1" stop-color="rgb(100%, 73.171997%, 0%)" offset="1"/></linearGradient><clipPath id="fcd1f36288"><path d="M 62 149 L 155 149 L 155 221 L 62 221 Z M 62 149 " clip-rule="nonzero"/></clipPath><clipPath id="1357861b59"><path d="M 154.203125 172.761719 L 131.265625 149.84375 L 62.992188 218.046875 C 65.722656 220.777344 69.546875 220.777344 74.460938 218.59375 L 154.203125 172.761719 " clip-rule="nonzero"/></clipPath><linearGradient x1="27.111603" gradientTransform="matrix(5.461882, 0, 0, -5.456249, 6.18788, 1033.759169)" y1="161.988597" x2="12.261601" gradientUnits="userSpaceOnUse" y2="147.138598" id="a41a176367"><stop stop-opacity="1" stop-color="rgb(100%, 22.698975%, 26.699829%)" offset="0"/><stop stop-opacity="1" stop-color="rgb(100%, 22.698975%, 26.699829%)" offset="0.125"/><stop stop-opacity="1" stop-color="rgb(99.980164%, 22.686768%, 26.708984%)" offset="0.15625"/><stop stop-opacity="1" stop-color="rgb(99.841309%, 22.592163%, 26.777649%)" offset="0.171875"/><stop stop-opacity="1" stop-color="rgb(99.601746%, 22.428894%, 26.896667%)" offset="0.1875"/><stop stop-opacity="1" stop-color="rgb(99.362183%, 22.265625%, 27.015686%)" offset="0.203125"/><stop stop-opacity="1" stop-color="rgb(99.12262%, 22.102356%, 27.134705%)" offset="0.21875"/><stop stop-opacity="1" stop-color="rgb(98.883057%, 21.939087%, 27.253723%)" offset="0.234375"/><stop stop-opacity="1" stop-color="rgb(98.643494%, 21.775818%, 27.374268%)" offset="0.25"/><stop stop-opacity="1" stop-color="rgb(98.403931%, 21.612549%, 27.493286%)" offset="0.265625"/><stop stop-opacity="1" stop-color="rgb(98.164368%, 21.44928%, 27.612305%)" offset="0.28125"/><stop stop-opacity="1" stop-color="rgb(97.924805%, 21.287537%, 27.731323%)" offset="0.296875"/><stop stop-opacity="1" stop-color="rgb(97.685242%, 21.124268%, 27.850342%)" offset="0.3125"/><stop stop-opacity="1" stop-color="rgb(97.445679%, 20.960999%, 27.96936%)" offset="0.328125"/><stop stop-opacity="1" stop-color="rgb(97.206116%, 20.797729%, 28.089905%)" offset="0.34375"/><stop stop-opacity="1" stop-color="rgb(96.966553%, 20.63446%, 28.208923%)" offset="0.359375"/><stop stop-opacity="1" stop-color="rgb(96.72699%, 20.471191%, 28.327942%)" offset="0.375"/><stop stop-opacity="1" stop-color="rgb(96.487427%, 20.307922%, 28.44696%)" offset="0.390625"/><stop stop-opacity="1" stop-color="rgb(96.247864%, 20.144653%, 28.565979%)" offset="0.40625"/><stop stop-opacity="1" stop-color="rgb(96.008301%, 19.981384%, 28.684998%)" offset="0.421875"/><stop stop-opacity="1" stop-color="rgb(95.768738%, 19.818115%, 28.805542%)" offset="0.4375"/><stop stop-opacity="1" stop-color="rgb(95.529175%, 19.654846%, 28.924561%)" offset="0.43771"/><stop stop-opacity="1" stop-color="rgb(95.410156%, 19.573975%, 28.98407%)" offset="0.453125"/><stop stop-opacity="1" stop-color="rgb(95.289612%, 19.493103%, 29.043579%)" offset="0.46875"/><stop stop-opacity="1" stop-color="rgb(95.050049%, 19.329834%, 29.162598%)" offset="0.484375"/><stop stop-opacity="1" stop-color="rgb(94.810486%, 19.166565%, 29.281616%)" offset="0.5"/><stop stop-opacity="1" stop-color="rgb(94.570923%, 19.003296%, 29.402161%)" offset="0.515625"/><stop stop-opacity="1" stop-color="rgb(94.33136%, 18.840027%, 29.521179%)" offset="0.53125"/><stop stop-opacity="1" stop-color="rgb(94.091797%, 18.676758%, 29.640198%)" offset="0.546875"/><stop stop-opacity="1" stop-color="rgb(93.852234%, 18.513489%, 29.759216%)" offset="0.56229"/><stop stop-opacity="1" stop-color="rgb(93.733215%, 18.432617%, 29.818726%)" offset="0.5625"/><stop stop-opacity="1" stop-color="rgb(93.612671%, 18.35022%, 29.878235%)" offset="0.578125"/><stop stop-opacity="1" stop-color="rgb(93.373108%, 18.186951%, 29.997253%)" offset="0.59375"/><stop stop-opacity="1" stop-color="rgb(93.133545%, 18.023682%, 30.117798%)" offset="0.609375"/><stop stop-opacity="1" stop-color="rgb(92.893982%, 17.860413%, 30.236816%)" offset="0.625"/><stop stop-opacity="1" stop-color="rgb(92.654419%, 17.698669%, 30.355835%)" offset="0.640625"/><stop stop-opacity="1" stop-color="rgb(92.414856%, 17.5354%, 30.474854%)" offset="0.65625"/><stop stop-opacity="1" stop-color="rgb(92.175293%, 17.372131%, 30.593872%)" offset="0.671875"/><stop stop-opacity="1" stop-color="rgb(91.93573%, 17.208862%, 30.712891%)" offset="0.6875"/><stop stop-opacity="1" stop-color="rgb(91.696167%, 17.045593%, 30.833435%)" offset="0.703125"/><stop stop-opacity="1" stop-color="rgb(91.456604%, 16.882324%, 30.952454%)" offset="0.71875"/><stop stop-opacity="1" stop-color="rgb(91.217041%, 16.719055%, 31.071472%)" offset="0.734375"/><stop stop-opacity="1" stop-color="rgb(90.977478%, 16.555786%, 31.190491%)" offset="0.75"/><stop stop-opacity="1" stop-color="rgb(90.737915%, 16.392517%, 31.309509%)" offset="0.765625"/><stop stop-opacity="1" stop-color="rgb(90.496826%, 16.229248%, 31.430054%)" offset="0.78125"/><stop stop-opacity="1" stop-color="rgb(90.257263%, 16.065979%, 31.549072%)" offset="0.796875"/><stop stop-opacity="1" stop-color="rgb(90.0177%, 15.904236%, 31.668091%)" offset="0.8125"/><stop stop-opacity="1" stop-color="rgb(89.778137%, 15.740967%, 31.787109%)" offset="0.828125"/><stop stop-opacity="1" stop-color="rgb(89.538574%, 15.577698%, 31.906128%)" offset="0.84375"/><stop stop-opacity="1" stop-color="rgb(89.299011%, 15.414429%, 32.025146%)" offset="0.859375"/><stop stop-opacity="1" stop-color="rgb(89.059448%, 15.25116%, 32.145691%)" offset="0.875"/><stop stop-opacity="1" stop-color="rgb(88.819885%, 15.087891%, 32.264709%)" offset="0.890625"/><stop stop-opacity="1" stop-color="rgb(88.580322%, 14.924622%, 32.383728%)" offset="0.90625"/><stop stop-opacity="1" stop-color="rgb(88.340759%, 14.761353%, 32.502747%)" offset="0.921875"/><stop stop-opacity="1" stop-color="rgb(88.101196%, 14.598083%, 32.621765%)" offset="0.9375"/><stop stop-opacity="1" stop-color="rgb(87.861633%, 14.434814%, 32.740784%)" offset="0.953125"/><stop stop-opacity="1" stop-color="rgb(87.62207%, 14.271545%, 32.861328%)" offset="0.96875"/><stop stop-opacity="1" stop-color="rgb(87.382507%, 14.109802%, 32.980347%)" offset="0.984375"/><stop stop-opacity="1" stop-color="rgb(87.142944%, 13.946533%, 33.099365%)" offset="1"/></linearGradient><clipPath id="3b41cce7a5"><path d="M 62 79 L 155 79 L 155 150 L 62 150 Z M 62 79 " clip-rule="nonzero"/></clipPath><clipPath id="6c090bcf82"><path d="M 154.203125 126.929688 L 74.460938 81.640625 C 69.546875 78.914062 65.722656 79.460938 62.992188 82.1875 L 131.265625 149.84375 Z M 154.203125 126.929688 " clip-rule="nonzero"/></clipPath><linearGradient x1="12.260403" gradientTransform="matrix(5.461882, 0, 0, -5.456249, 6.18788, 1033.759169)" y1="176.860602" x2="27.110394" gradientUnits="userSpaceOnUse" y2="162.010595" id="ff99737d9f"><stop stop-opacity="1" stop-color="rgb(7.978821%, 81.556702%, 45.513916%)" offset="0"/><stop stop-opacity="1" stop-color="rgb(7.876587%, 81.721497%, 45.521545%)" offset="0.0078125"/><stop stop-opacity="1" stop-color="rgb(7.672119%, 82.052612%, 45.535278%)" offset="0.015625"/><stop stop-opacity="1" stop-color="rgb(7.469177%, 82.382202%, 45.549011%)" offset="0.0234375"/><stop stop-opacity="1" stop-color="rgb(7.264709%, 82.713318%, 45.562744%)" offset="0.03125"/><stop stop-opacity="1" stop-color="rgb(7.061768%, 83.042908%, 45.576477%)" offset="0.0390625"/><stop stop-opacity="1" stop-color="rgb(6.8573%, 83.372498%, 45.591736%)" offset="0.046875"/><stop stop-opacity="1" stop-color="rgb(6.654358%, 83.703613%, 45.605469%)" offset="0.0546875"/><stop stop-opacity="1" stop-color="rgb(6.44989%, 84.033203%, 45.619202%)" offset="0.0625"/><stop stop-opacity="1" stop-color="rgb(6.246948%, 84.362793%, 45.632935%)" offset="0.0703125"/><stop stop-opacity="1" stop-color="rgb(6.04248%, 84.693909%, 45.646667%)" offset="0.078125"/><stop stop-opacity="1" stop-color="rgb(5.839539%, 85.023499%, 45.661926%)" offset="0.0859375"/><stop stop-opacity="1" stop-color="rgb(5.635071%, 85.354614%, 45.675659%)" offset="0.09375"/><stop stop-opacity="1" stop-color="rgb(5.432129%, 85.684204%, 45.689392%)" offset="0.101563"/><stop stop-opacity="1" stop-color="rgb(5.227661%, 86.013794%, 45.703125%)" offset="0.109375"/><stop stop-opacity="1" stop-color="rgb(5.024719%, 86.34491%, 45.716858%)" offset="0.117188"/><stop stop-opacity="1" stop-color="rgb(4.820251%, 86.6745%, 45.732117%)" offset="0.125"/><stop stop-opacity="1" stop-color="rgb(4.615784%, 87.004089%, 45.74585%)" offset="0.132812"/><stop stop-opacity="1" stop-color="rgb(4.412842%, 87.335205%, 45.759583%)" offset="0.140625"/><stop stop-opacity="1" stop-color="rgb(4.208374%, 87.664795%, 45.773315%)" offset="0.148437"/><stop stop-opacity="1" stop-color="rgb(4.005432%, 87.995911%, 45.788574%)" offset="0.15625"/><stop stop-opacity="1" stop-color="rgb(3.800964%, 88.3255%, 45.802307%)" offset="0.164063"/><stop stop-opacity="1" stop-color="rgb(3.598022%, 88.65509%, 45.81604%)" offset="0.171875"/><stop stop-opacity="1" stop-color="rgb(3.393555%, 88.986206%, 45.829773%)" offset="0.179688"/><stop stop-opacity="1" stop-color="rgb(3.190613%, 89.315796%, 45.843506%)" offset="0.1875"/><stop stop-opacity="1" stop-color="rgb(2.986145%, 89.646912%, 45.858765%)" offset="0.195313"/><stop stop-opacity="1" stop-color="rgb(2.783203%, 89.976501%, 45.872498%)" offset="0.203125"/><stop stop-opacity="1" stop-color="rgb(2.578735%, 90.306091%, 45.88623%)" offset="0.210938"/><stop stop-opacity="1" stop-color="rgb(2.39563%, 90.597534%, 45.903015%)" offset="0.21875"/><stop stop-opacity="1" stop-color="rgb(2.246094%, 90.823364%, 45.924377%)" offset="0.226563"/><stop stop-opacity="1" stop-color="rgb(2.107239%, 91.023254%, 45.947266%)" offset="0.234375"/><stop stop-opacity="1" stop-color="rgb(1.96991%, 91.22467%, 45.970154%)" offset="0.242188"/><stop stop-opacity="1" stop-color="rgb(1.832581%, 91.424561%, 45.993042%)" offset="0.25"/><stop stop-opacity="1" stop-color="rgb(1.695251%, 91.625977%, 46.01593%)" offset="0.257813"/><stop stop-opacity="1" stop-color="rgb(1.557922%, 91.825867%, 46.038818%)" offset="0.265625"/><stop stop-opacity="1" stop-color="rgb(1.419067%, 92.027283%, 46.061707%)" offset="0.273438"/><stop stop-opacity="1" stop-color="rgb(1.281738%, 92.228699%, 46.084595%)" offset="0.28125"/><stop stop-opacity="1" stop-color="rgb(1.144409%, 92.428589%, 46.107483%)" offset="0.289062"/><stop stop-opacity="1" stop-color="rgb(1.00708%, 92.630005%, 46.130371%)" offset="0.296875"/><stop stop-opacity="1" stop-color="rgb(0.868225%, 92.829895%, 46.153259%)" offset="0.304688"/><stop stop-opacity="1" stop-color="rgb(0.730896%, 93.031311%, 46.176147%)" offset="0.3125"/><stop stop-opacity="1" stop-color="rgb(0.593567%, 93.231201%, 46.199036%)" offset="0.320313"/><stop stop-opacity="1" stop-color="rgb(0.456238%, 93.432617%, 46.221924%)" offset="0.328125"/><stop stop-opacity="1" stop-color="rgb(0.318909%, 93.634033%, 46.244812%)" offset="0.335938"/><stop stop-opacity="1" stop-color="rgb(0.180054%, 93.833923%, 46.2677%)" offset="0.34375"/><stop stop-opacity="1" stop-color="rgb(0.0549316%, 94.017029%, 46.289062%)" offset="0.375"/><stop stop-opacity="1" stop-color="rgb(0%, 94.099426%, 46.299744%)" offset="0.437711"/><stop stop-opacity="1" stop-color="rgb(0%, 94.099426%, 46.299744%)" offset="0.5"/><stop stop-opacity="1" stop-color="rgb(0%, 94.099426%, 46.299744%)" offset="0.562289"/><stop stop-opacity="1" stop-color="rgb(0%, 94.099426%, 46.299744%)" offset="1"/></linearGradient></defs><g clip-path="url(#158246bae4)"><path fill="#000000" d="M 716.234375 258.96875 L 33.496094 258.96875 C 18.203125 258.96875 6.1875 246.96875 6.1875 231.6875 L 6.1875 68 C 6.1875 52.722656 18.203125 40.71875 33.496094 40.71875 L 716.234375 40.71875 C 731.527344 40.71875 743.542969 52.722656 743.542969 68 L 743.542969 231.6875 C 743.542969 246.96875 731.527344 258.96875 716.234375 258.96875 Z M 716.234375 258.96875 " fill-opacity="1" fill-rule="nonzero"/><path fill="#a6a6a6" d="M 716.234375 45.085938 C 728.796875 45.085938 739.171875 55.453125 739.171875 68 L 739.171875 231.6875 C 739.171875 244.238281 728.796875 254.605469 716.234375 254.605469 L 33.496094 254.605469 C 20.933594 254.605469 10.558594 244.238281 10.558594 231.6875 L 10.558594 68 C 10.558594 55.453125 20.933594 45.085938 33.496094 45.085938 L 716.234375 45.085938 M 716.234375 40.71875 L 33.496094 40.71875 C 18.203125 40.71875 6.1875 53.269531 6.1875 68 L 6.1875 231.6875 C 6.1875 246.96875 18.203125 258.96875 33.496094 258.96875 L 716.234375 258.96875 C 731.527344 258.96875 743.542969 246.96875 743.542969 231.6875 L 743.542969 68 C 743.542969 53.269531 731.527344 40.71875 716.234375 40.71875 Z M 716.234375 40.71875 " fill-opacity="1" fill-rule="nonzero"/></g><path stroke-linecap="butt" transform="matrix(5.461882, 0, 0, 5.45625, 6.18788, 40.720667)" fill-opacity="1" fill="#ffffff" fill-rule="nonzero" stroke-linejoin="miter" d="M 47.40017 10.200108 C 47.40017 10.999793 47.199918 11.699965 46.700005 12.199678 C 46.099966 12.800337 45.399801 13.100308 44.500099 13.100308 C 43.599683 13.100308 42.900233 12.800337 42.300194 12.199678 C 41.700155 11.599736 41.399777 10.90028 41.399777 9.999649 C 41.399777 9.099735 41.700155 8.400279 42.300194 7.800337 C 42.900233 7.199678 43.599683 6.899706 44.500099 6.899706 C 44.899887 6.899706 45.299675 6.999936 45.700178 7.199678 C 46.099966 7.400136 46.400343 7.599878 46.599879 7.89985 L 46.099966 8.400279 C 45.700178 7.89985 45.200264 7.700107 44.500099 7.700107 C 43.90006 7.700107 43.300021 7.89985 42.900233 8.400279 C 42.40032 8.799764 42.200068 9.399707 42.200068 10.099879 C 42.200068 10.80005 42.40032 11.399993 42.900233 11.800194 C 43.400147 12.199678 43.90006 12.49965 44.500099 12.49965 C 45.200264 12.49965 45.700178 12.299907 46.200091 11.800194 C 46.499753 11.500222 46.700005 11.100022 46.700005 10.600308 L 44.500099 10.600308 L 44.500099 9.799907 L 47.40017 9.799907 C 47.40017 9.900136 47.40017 10.099879 47.40017 10.200108 Z M 47.40017 10.200108 " stroke="#ffffff" stroke-width="0.2" stroke-opacity="1" stroke-miterlimit="10"/><path stroke-linecap="butt" transform="matrix(5.461882, 0, 0, 5.45625, 6.18788, 40.720667)" fill-opacity="1" fill="#ffffff" fill-rule="nonzero" stroke-linejoin="miter" d="M 52.000232 7.700107 L 49.299698 7.700107 L 49.299698 9.600165 L 51.799981 9.600165 L 51.799981 10.300337 L 49.299698 10.300337 L 49.299698 12.199678 L 52.000232 12.199678 L 52.000232 13.000079 L 48.500123 13.000079 L 48.500123 6.999936 L 52.000232 6.999936 Z M 52.000232 7.700107 " stroke="#ffffff" stroke-width="0.2" stroke-opacity="1" stroke-miterlimit="10"/><path stroke-linecap="butt" transform="matrix(5.461882, 0, 0, 5.45625, 6.18788, 40.720667)" fill-opacity="1" fill="#ffffff" fill-rule="nonzero" stroke-linejoin="miter" d="M 55.300091 13.000079 L 54.4998 13.000079 L 54.4998 7.700107 L 52.799808 7.700107 L 52.799808 6.999936 L 57.000083 6.999936 L 57.000083 7.700107 L 55.300091 7.700107 Z M 55.300091 13.000079 " stroke="#ffffff" stroke-width="0.2" stroke-opacity="1" stroke-miterlimit="10"/><path stroke-linecap="butt" transform="matrix(5.461882, 0, 0, 5.45625, 6.18788, 40.720667)" fill-opacity="1" fill="#ffffff" fill-rule="nonzero" stroke-linejoin="miter" d="M 59.900153 6.999936 L 60.699729 6.999936 L 60.699729 13.000079 L 59.900153 13.000079 Z M 59.900153 6.999936 " stroke="#ffffff" stroke-width="0.2" stroke-opacity="1" stroke-miterlimit="10"/><path stroke-linecap="butt" transform="matrix(5.461882, 0, 0, 5.45625, 6.18788, 40.720667)" fill-opacity="1" fill="#ffffff" fill-rule="nonzero" stroke-linejoin="miter" d="M 64.099713 13.000079 L 63.300137 13.000079 L 63.300137 7.700107 L 61.600145 7.700107 L 61.600145 6.999936 L 65.700294 6.999936 L 65.700294 7.700107 L 64.000302 7.700107 L 64.000302 13.000079 Z M 64.099713 13.000079 " stroke="#ffffff" stroke-width="0.2" stroke-opacity="1" stroke-miterlimit="10"/><path stroke-linecap="butt" transform="matrix(5.461882, 0, 0, 5.45625, 6.18788, 40.720667)" fill-opacity="1" fill="#ffffff" fill-rule="nonzero" stroke-linejoin="miter" d="M 73.600215 12.199678 C 73.000175 12.800337 72.30001 13.100308 71.400309 13.100308 C 70.499893 13.100308 69.799728 12.800337 69.199689 12.199678 C 68.599649 11.599736 68.299987 10.90028 68.299987 9.999649 C 68.299987 9.099735 68.599649 8.400279 69.199689 7.800337 C 69.799728 7.199678 70.499893 6.899706 71.400309 6.899706 C 72.30001 6.899706 73.000175 7.199678 73.600215 7.800337 C 74.200254 8.400279 74.499916 9.099735 74.499916 9.999649 C 74.499916 10.90028 74.200254 11.599736 73.600215 12.199678 Z M 69.799728 11.699965 C 70.200231 12.100165 70.80027 12.400136 71.400309 12.400136 C 72.000348 12.400136 72.599673 12.199678 73.000175 11.699965 C 73.399963 11.299764 73.70034 10.699821 73.70034 9.999649 C 73.70034 9.300194 73.500089 8.700251 73.000175 8.30005 C 72.599673 7.89985 72.000348 7.599878 71.400309 7.599878 C 70.80027 7.599878 70.200231 7.800337 69.799728 8.30005 C 69.39994 8.700251 69.100278 9.300194 69.100278 9.999649 C 69.100278 10.699821 69.299814 11.299764 69.799728 11.699965 Z M 69.799728 11.699965 " stroke="#ffffff" stroke-width="0.2" stroke-opacity="1" stroke-miterlimit="10"/><path stroke-linecap="butt" transform="matrix(5.461882, 0, 0, 5.45625, 6.18788, 40.720667)" fill-opacity="1" fill="#ffffff" fill-rule="nonzero" stroke-linejoin="miter" d="M 75.599869 13.000079 L 75.599869 6.999936 L 76.500285 6.999936 L 79.400356 11.699965 L 79.400356 6.999936 L 80.199931 6.999936 L 80.199931 13.000079 L 79.400356 13.000079 L 76.300034 8.100308 L 76.300034 13.000079 Z M 75.599869 13.000079 " stroke="#ffffff" stroke-width="0.2" stroke-opacity="1" stroke-miterlimit="10"/><path fill="#ffffff" d="M 378.140625 159.667969 C 365.035156 159.667969 354.65625 169.488281 354.65625 183.128906 C 354.65625 196.222656 365.035156 206.589844 378.140625 206.589844 C 391.25 206.589844 401.628906 196.769531 401.628906 183.128906 C 401.628906 168.941406 391.25 159.667969 378.140625 159.667969 Z M 378.140625 196.769531 C 371.042969 196.769531 365.035156 190.765625 365.035156 182.582031 C 365.035156 174.398438 371.042969 168.398438 378.140625 168.398438 C 385.242188 168.398438 391.25 173.851562 391.25 182.582031 C 391.25 190.765625 385.242188 196.769531 378.140625 196.769531 Z M 327.347656 159.667969 C 314.238281 159.667969 303.859375 169.488281 303.859375 183.128906 C 303.859375 196.222656 314.238281 206.589844 327.347656 206.589844 C 340.457031 206.589844 350.832031 196.769531 350.832031 183.128906 C 350.832031 168.941406 340.457031 159.667969 327.347656 159.667969 Z M 327.347656 196.769531 C 320.246094 196.769531 314.238281 190.765625 314.238281 182.582031 C 314.238281 174.398438 320.246094 168.398438 327.347656 168.398438 C 334.445312 168.398438 340.457031 173.851562 340.457031 182.582031 C 340.457031 190.765625 334.445312 196.769531 327.347656 196.769531 Z M 266.71875 166.761719 L 266.71875 176.582031 L 290.207031 176.582031 C 289.660156 182.039062 287.476562 186.402344 284.742188 189.128906 C 281.464844 192.40625 276.003906 196.222656 266.71875 196.222656 C 251.972656 196.222656 241.046875 184.765625 241.046875 170.035156 C 241.046875 155.300781 252.519531 143.84375 266.71875 143.84375 C 274.367188 143.84375 280.375 147.117188 284.742188 150.9375 L 291.84375 143.84375 C 285.835938 138.386719 278.191406 134.023438 267.265625 134.023438 C 247.601562 134.023438 230.671875 150.390625 230.671875 170.035156 C 230.671875 189.675781 247.601562 206.046875 267.265625 206.046875 C 278.191406 206.046875 285.835938 202.769531 292.390625 195.679688 C 298.945312 189.128906 301.128906 179.855469 301.128906 172.761719 C 301.128906 170.578125 301.128906 168.398438 300.582031 166.761719 Z M 514.6875 174.398438 C 512.503906 168.941406 507.042969 159.667969 495.027344 159.667969 C 483.011719 159.667969 473.179688 168.941406 473.179688 183.128906 C 473.179688 196.222656 483.011719 206.589844 496.117188 206.589844 C 506.496094 206.589844 513.050781 200.042969 515.234375 196.222656 L 507.589844 190.765625 C 504.859375 194.585938 501.582031 197.316406 496.117188 197.316406 C 490.65625 197.316406 487.378906 195.132812 484.648438 190.222656 L 515.78125 177.125 Z M 483.011719 182.039062 C 483.011719 173.308594 490.109375 168.398438 495.027344 168.398438 C 498.851562 168.398438 502.671875 170.578125 503.765625 173.308594 Z M 457.339844 204.40625 L 467.71875 204.40625 L 467.71875 136.203125 L 457.339844 136.203125 Z M 440.953125 164.578125 C 438.222656 161.847656 433.851562 159.121094 428.390625 159.121094 C 416.921875 159.121094 405.996094 169.488281 405.996094 182.582031 C 405.996094 195.679688 416.375 205.5 428.390625 205.5 C 433.851562 205.5 438.222656 202.769531 440.40625 200.042969 L 440.953125 200.042969 L 440.953125 203.316406 C 440.953125 212.046875 436.039062 216.957031 428.390625 216.957031 C 422.382812 216.957031 418.015625 212.59375 416.921875 208.773438 L 408.183594 212.59375 C 410.914062 218.59375 417.46875 226.234375 428.9375 226.234375 C 440.953125 226.234375 450.785156 219.140625 450.785156 202.226562 L 450.785156 160.757812 L 440.953125 160.757812 Z M 428.9375 196.769531 C 421.835938 196.769531 415.828125 190.765625 415.828125 182.582031 C 415.828125 174.398438 421.835938 168.398438 428.9375 168.398438 C 436.039062 168.398438 441.5 174.398438 441.5 182.582031 C 441.5 190.765625 436.039062 196.769531 428.9375 196.769531 Z M 562.207031 136.203125 L 537.628906 136.203125 L 537.628906 204.40625 L 548.007812 204.40625 L 548.007812 178.765625 L 562.207031 178.765625 C 573.675781 178.765625 584.601562 170.578125 584.601562 157.484375 C 584.601562 144.390625 573.675781 136.203125 562.207031 136.203125 Z M 562.753906 168.941406 L 548.007812 168.941406 L 548.007812 145.480469 L 562.753906 145.480469 C 570.398438 145.480469 574.769531 152.027344 574.769531 156.9375 C 574.222656 162.941406 569.855469 168.941406 562.753906 168.941406 Z M 625.566406 159.121094 C 617.917969 159.121094 610.273438 162.394531 607.542969 169.488281 L 616.828125 173.308594 C 619.011719 169.488281 622.289062 168.398438 626.113281 168.398438 C 631.574219 168.398438 636.488281 171.671875 637.035156 177.125 L 637.035156 177.671875 C 635.398438 176.582031 631.027344 174.945312 626.65625 174.945312 C 616.828125 174.945312 606.996094 180.402344 606.996094 190.222656 C 606.996094 199.496094 615.1875 205.5 623.925781 205.5 C 631.027344 205.5 634.304688 202.226562 637.035156 198.953125 L 637.582031 198.953125 L 637.582031 204.40625 L 647.414062 204.40625 L 647.414062 178.21875 C 646.320312 166.214844 637.035156 159.121094 625.566406 159.121094 Z M 624.472656 196.769531 C 621.195312 196.769531 616.28125 195.132812 616.28125 190.765625 C 616.28125 185.3125 622.289062 183.675781 627.203125 183.675781 C 631.574219 183.675781 633.757812 184.765625 636.488281 185.855469 C 635.398438 192.40625 629.933594 196.769531 624.472656 196.769531 Z M 681.824219 160.757812 L 670.351562 190.222656 L 669.804688 190.222656 L 657.789062 160.757812 L 646.867188 160.757812 L 664.890625 202.226562 L 654.511719 225.140625 L 664.890625 225.140625 L 692.746094 160.757812 Z M 590.0625 204.40625 L 600.441406 204.40625 L 600.441406 136.203125 L 590.0625 136.203125 Z M 590.0625 204.40625 " fill-opacity="1" fill-rule="nonzero"/><g clip-path="url(#76803e4970)"><g clip-path="url(#9c71bca332)"><path fill="url(#7598f7eb8b)" d="M 60.808594 218.046875 L 60.808594 81.640625 L 131.8125 81.640625 L 131.8125 218.046875 Z M 60.808594 218.046875 " fill-rule="nonzero"/></g></g><g clip-path="url(#75bdfc425c)"><g clip-path="url(#e78803ac21)"><path fill="url(#563ff19d75)" d="M 131.265625 173.308594 L 131.265625 126.929688 L 188.613281 126.929688 L 188.613281 173.308594 Z M 131.265625 173.308594 " fill-rule="nonzero"/></g></g><g clip-path="url(#fcd1f36288)"><g clip-path="url(#1357861b59)"><path fill="url(#a41a176367)" d="M 62.992188 220.777344 L 62.992188 149.84375 L 154.203125 149.84375 L 154.203125 220.777344 Z M 62.992188 220.777344 " fill-rule="nonzero"/></g></g><g clip-path="url(#3b41cce7a5)"><g clip-path="url(#6c090bcf82)"><path fill="url(#ff99737d9f)" d="M 62.992188 149.84375 L 62.992188 78.914062 L 154.203125 78.914062 L 154.203125 149.84375 Z M 62.992188 149.84375 " fill-rule="nonzero"/></g></g><path fill="#000000" d="M 153.660156 172.214844 L 74.460938 216.957031 C 70.09375 219.6875 66.269531 219.140625 63.539062 216.957031 L 62.992188 217.503906 L 63.539062 218.046875 C 66.269531 220.230469 70.09375 220.777344 74.460938 218.046875 Z M 153.660156 172.214844 " fill-opacity="0.2" fill-rule="nonzero"/><path fill="#000000" d="M 62.992188 216.957031 C 61.351562 215.320312 60.808594 212.59375 60.808594 209.320312 L 60.808594 209.863281 C 60.808594 213.136719 61.898438 215.867188 63.539062 217.503906 L 63.539062 216.957031 Z M 62.992188 216.957031 " fill-opacity="0.12" fill-rule="nonzero"/><path fill="#000000" d="M 180.96875 156.9375 L 153.660156 172.214844 L 154.203125 172.761719 L 180.96875 157.484375 C 184.792969 155.300781 186.429688 152.574219 186.429688 149.84375 C 186.429688 152.574219 184.246094 154.757812 180.96875 156.9375 Z M 180.96875 156.9375 " fill-opacity="0.12" fill-rule="nonzero"/><path fill="#ffffff" d="M 74.460938 82.1875 L 180.96875 142.753906 C 184.246094 144.933594 186.429688 147.117188 186.429688 149.84375 C 186.429688 147.117188 184.792969 144.390625 180.96875 142.207031 L 74.460938 81.640625 C 66.816406 77.277344 60.808594 80.550781 60.808594 89.28125 L 60.808594 89.828125 C 60.808594 81.640625 66.816406 77.824219 74.460938 82.1875 Z M 74.460938 82.1875 " fill-opacity="0.25" fill-rule="nonzero"/></svg>