<svg width="535" height="425" viewBox="0 0 535 425" fill="none" xmlns="http://www.w3.org/2000/svg">
<rect y="255" width="20" height="170" fill="#0799B6" fill-opacity="0.29"/>
<path d="M20 405H441V425H20V405Z" fill="#0799B6" fill-opacity="0.29"/>
<rect x="533.193" y="171.07" width="10" height="170.048" transform="rotate(-179.839 533.193 171.07)" fill="#0799B6" fill-opacity="0.29"/>
<path d="M523.649 10.9817L174.5 9.99999L174.528 3.40551e-05L523.677 0.981729L523.649 10.9817Z" fill="#0799B6" fill-opacity="0.29"/>
<ellipse cx="528.352" cy="419.365" rx="4.57559" ry="4.93351" transform="rotate(-90.8832 528.352 419.365)" fill="#0799B6" fill-opacity="0.29"/>
<ellipse cx="529.726" cy="401.802" rx="4.57559" ry="4.93351" transform="rotate(-90.8832 529.726 401.802)" fill="#0799B6" fill-opacity="0.29"/>
<ellipse cx="529.456" cy="384.264" rx="4.57559" ry="4.93351" transform="rotate(-90.8832 529.456 384.264)" fill="#0799B6" fill-opacity="0.29"/>
<ellipse cx="510.546" cy="384.555" rx="4.57559" ry="4.93351" transform="rotate(-90.8832 510.546 384.555)" fill="#0799B6" fill-opacity="0.29"/>
<ellipse cx="508.913" cy="331.955" rx="4.57559" ry="4.93351" transform="rotate(-90.8832 508.913 331.955)" fill="#0799B6" fill-opacity="0.29"/>
<ellipse cx="490.004" cy="332.247" rx="4.57559" ry="4.93351" transform="rotate(-90.8832 490.004 332.247)" fill="#0799B6" fill-opacity="0.29"/>
<ellipse cx="490.274" cy="349.784" rx="4.57559" ry="4.93351" transform="rotate(-90.8832 490.274 349.784)" fill="#0799B6" fill-opacity="0.29"/>
<ellipse cx="510.005" cy="349.48" rx="4.57559" ry="4.93351" transform="rotate(-90.8832 510.005 349.48)" fill="#0799B6" fill-opacity="0.29"/>
<ellipse cx="490.544" cy="367.322" rx="4.57559" ry="4.93351" transform="rotate(-90.8832 490.544 367.322)" fill="#0799B6" fill-opacity="0.29"/>
<ellipse cx="510.276" cy="367.018" rx="4.57559" ry="4.93351" transform="rotate(-90.8832 510.276 367.018)" fill="#0799B6" fill-opacity="0.29"/>
<ellipse cx="490.815" cy="384.859" rx="4.57559" ry="4.93351" transform="rotate(-90.8832 490.815 384.859)" fill="#0799B6" fill-opacity="0.29"/>
<ellipse cx="528.645" cy="331.651" rx="4.57559" ry="4.93351" transform="rotate(-90.8832 528.645 331.651)" fill="#0799B6" fill-opacity="0.29"/>
<ellipse cx="528.915" cy="349.189" rx="4.57559" ry="4.93351" transform="rotate(-90.8832 528.915 349.189)" fill="#0799B6" fill-opacity="0.29"/>
<ellipse cx="529.186" cy="366.726" rx="4.57559" ry="4.93351" transform="rotate(-90.8832 529.186 366.726)" fill="#0799B6" fill-opacity="0.29"/>
<ellipse cx="510.817" cy="402.093" rx="4.57559" ry="4.93351" transform="rotate(-90.8832 510.817 402.093)" fill="#0799B6" fill-opacity="0.29"/>
<ellipse cx="511.087" cy="419.631" rx="4.57559" ry="4.93351" transform="rotate(-90.8832 511.087 419.631)" fill="#0799B6" fill-opacity="0.29"/>
<ellipse cx="491.355" cy="419.935" rx="4.57559" ry="4.93351" transform="rotate(-90.8832 491.355 419.935)" fill="#0799B6" fill-opacity="0.29"/>
<ellipse cx="491.085" cy="402.397" rx="4.57559" ry="4.93351" transform="rotate(-90.8832 491.085 402.397)" fill="#0799B6" fill-opacity="0.29"/>
<ellipse cx="4.67717" cy="101.864" rx="4.67717" ry="4.11765" fill="#0799B6" fill-opacity="0.29"/>
<ellipse cx="22.6064" cy="101.864" rx="4.67717" ry="4.11765" fill="#0799B6" fill-opacity="0.29"/>
<ellipse cx="4.67717" cy="35.9817" rx="4.67717" ry="4.11765" fill="#0799B6" fill-opacity="0.29"/>
<ellipse cx="4.67717" cy="52.4524" rx="4.67717" ry="4.11765" fill="#0799B6" fill-opacity="0.29"/>
<ellipse cx="22.6064" cy="68.9228" rx="4.67717" ry="4.11765" fill="#0799B6" fill-opacity="0.29"/>
<ellipse cx="22.6064" cy="37.3542" rx="4.67717" ry="4.11765" fill="#0799B6" fill-opacity="0.29"/>
<ellipse cx="40.5356" cy="37.3542" rx="4.67717" ry="4.11765" fill="#0799B6" fill-opacity="0.29"/>
<ellipse cx="40.5356" cy="21.57" rx="4.67717" ry="4.11765" fill="#0799B6" fill-opacity="0.29"/>
<ellipse cx="94.3229" cy="20.8838" rx="4.67717" ry="4.11765" fill="#0799B6" fill-opacity="0.29"/>
<ellipse cx="94.3229" cy="5.09934" rx="4.67717" ry="4.11765" fill="#0799B6" fill-opacity="0.29"/>
<ellipse cx="76.3937" cy="5.09934" rx="4.67717" ry="4.11765" fill="#0799B6" fill-opacity="0.29"/>
<ellipse cx="76.3937" cy="21.57" rx="4.67717" ry="4.11765" fill="#0799B6" fill-opacity="0.29"/>
<ellipse cx="58.4645" cy="5.09934" rx="4.67717" ry="4.11765" fill="#0799B6" fill-opacity="0.29"/>
<ellipse cx="58.4645" cy="21.57" rx="4.67717" ry="4.11765" fill="#0799B6" fill-opacity="0.29"/>
<ellipse cx="40.5356" cy="5.09934" rx="4.67717" ry="4.11765" fill="#0799B6" fill-opacity="0.29"/>
<ellipse cx="94.3229" cy="37.3542" rx="4.67717" ry="4.11765" fill="#0799B6" fill-opacity="0.29"/>
<ellipse cx="76.3937" cy="37.3542" rx="4.67717" ry="4.11765" fill="#0799B6" fill-opacity="0.29"/>
<ellipse cx="58.4645" cy="37.3542" rx="4.67717" ry="4.11765" fill="#0799B6" fill-opacity="0.29"/>
<ellipse cx="22.6064" cy="21.57" rx="4.67717" ry="4.11765" fill="#0799B6" fill-opacity="0.29"/>
<ellipse cx="4.67717" cy="21.57" rx="4.67717" ry="4.11765" fill="#0799B6" fill-opacity="0.29"/>
<ellipse cx="4.67717" cy="5.09934" rx="4.67717" ry="4.11765" fill="#0799B6" fill-opacity="0.29"/>
<ellipse cx="22.6064" cy="5.09934" rx="4.67717" ry="4.11765" fill="#0799B6" fill-opacity="0.29"/>
<ellipse cx="22.6064" cy="52.4524" rx="4.67717" ry="4.11765" fill="#0799B6" fill-opacity="0.29"/>
<ellipse cx="4.67717" cy="68.9228" rx="4.67717" ry="4.11765" fill="#0799B6" fill-opacity="0.29"/>
<ellipse cx="22.6064" cy="85.3935" rx="4.67717" ry="4.11765" fill="#0799B6" fill-opacity="0.29"/>
<ellipse cx="4.67717" cy="85.3935" rx="4.67717" ry="4.11765" fill="#0799B6" fill-opacity="0.29"/>
<rect x="58" y="156" width="121" height="56" rx="10" fill="#0799B6" fill-opacity="0.29"/>
<rect x="349" y="239" width="117" height="39" rx="10" fill="#0799B6" fill-opacity="0.29"/>
<rect x="201" y="239" width="117" height="39" rx="10" fill="#0799B6" fill-opacity="0.29"/>
<rect x="347" y="306" width="117" height="39" rx="10" fill="#0799B6" fill-opacity="0.29"/>
<rect x="202" y="308" width="117" height="39" rx="10" fill="#0799B6" fill-opacity="0.29"/>
<rect x="60" y="308" width="117" height="39" rx="10" fill="#0799B6" fill-opacity="0.29"/>
<rect x="56" y="239" width="117" height="39" rx="10" fill="#0799B6" fill-opacity="0.29"/>
<rect x="349" y="158" width="121" height="56" rx="10" fill="#0799B6" fill-opacity="0.29"/>
<rect x="201" y="156" width="121" height="56" rx="10" fill="#0799B6" fill-opacity="0.29"/>
<path d="M180.18 70.1798C179.7 70.1798 179.34 70.0198 179.1 69.6998C178.873 69.3664 178.807 68.9131 178.9 68.3398L180.64 57.4398C180.707 56.9331 180.893 56.5531 181.2 56.2998C181.507 56.0331 181.92 55.8998 182.44 55.8998H186.66C188.233 55.8998 189.433 56.2531 190.26 56.9598C191.1 57.6664 191.52 58.6331 191.52 59.8598C191.52 60.9264 191.287 61.8064 190.82 62.4998C190.353 63.1798 189.707 63.6864 188.88 64.0198C188.053 64.3398 187.113 64.4998 186.06 64.4998V64.1598H186.7C187.353 64.1598 187.887 64.3464 188.3 64.7198C188.713 65.0798 189.047 65.5798 189.3 66.2198L190.06 68.1798C190.22 68.5931 190.273 68.9531 190.22 69.2598C190.18 69.5531 190.04 69.7798 189.8 69.9398C189.56 70.0998 189.22 70.1798 188.78 70.1798C188.353 70.1798 188.013 70.0731 187.76 69.8598C187.507 69.6331 187.293 69.2864 187.12 68.8198L185.94 65.7198C185.793 65.2931 185.587 64.9931 185.32 64.8198C185.067 64.6331 184.713 64.5398 184.26 64.5398H182.6L181.98 68.6198C181.9 69.1398 181.707 69.5331 181.4 69.7998C181.107 70.0531 180.7 70.1798 180.18 70.1798ZM182.96 62.2998H186C186.813 62.2998 187.44 62.1198 187.88 61.7598C188.32 61.3864 188.54 60.8398 188.54 60.1198C188.54 59.5198 188.347 59.0731 187.96 58.7798C187.587 58.4731 186.987 58.3198 186.16 58.3198H183.6L182.96 62.2998ZM197.372 70.2198C196.346 70.2198 195.452 70.0331 194.692 69.6598C193.932 69.2731 193.346 68.7398 192.932 68.0598C192.519 67.3798 192.312 66.5931 192.312 65.6998C192.312 64.5798 192.552 63.5931 193.032 62.7398C193.512 61.8864 194.166 61.2131 194.992 60.7198C195.832 60.2264 196.779 59.9798 197.832 59.9798C198.659 59.9798 199.359 60.1198 199.932 60.3998C200.506 60.6798 200.959 61.0598 201.292 61.5398C201.626 62.0064 201.846 62.5464 201.952 63.1598C202.072 63.7598 202.099 64.3798 202.032 65.0198C201.992 65.3264 201.906 65.5264 201.772 65.6198C201.639 65.6998 201.459 65.7398 201.232 65.7398H194.752L194.972 64.1798H199.992L199.672 64.4598C199.739 63.9798 199.719 63.5598 199.612 63.1998C199.506 62.8264 199.306 62.5331 199.012 62.3198C198.719 62.0931 198.319 61.9798 197.812 61.9798C197.306 61.9798 196.872 62.0998 196.512 62.3398C196.166 62.5664 195.892 62.8664 195.692 63.2398C195.492 63.5998 195.352 63.9998 195.272 64.4398L195.172 65.1398C195.026 66.0198 195.172 66.7131 195.612 67.2198C196.066 67.7131 196.752 67.9598 197.672 67.9598C198.019 67.9598 198.392 67.9198 198.792 67.8398C199.206 67.7598 199.572 67.6398 199.892 67.4798C200.186 67.3331 200.439 67.2864 200.652 67.3398C200.879 67.3798 201.052 67.4864 201.172 67.6598C201.292 67.8331 201.352 68.0331 201.352 68.2598C201.366 68.4731 201.306 68.6931 201.172 68.9198C201.052 69.1331 200.859 69.3131 200.592 69.4598C200.126 69.7131 199.599 69.8998 199.012 70.0198C198.426 70.1531 197.879 70.2198 197.372 70.2198ZM203.949 73.7798C203.482 73.7798 203.136 73.6198 202.909 73.2998C202.682 72.9931 202.616 72.5664 202.709 72.0198L204.369 61.5398C204.436 61.0331 204.616 60.6531 204.909 60.3998C205.202 60.1464 205.596 60.0198 206.089 60.0198C206.556 60.0198 206.889 60.1731 207.089 60.4798C207.302 60.7864 207.369 61.2198 207.289 61.7798L207.129 62.6598V61.8798C207.502 61.2664 207.982 60.7998 208.569 60.4798C209.156 60.1464 209.809 59.9798 210.529 59.9798C211.262 59.9798 211.902 60.1531 212.449 60.4998C213.009 60.8331 213.436 61.3198 213.729 61.9598C214.036 62.5998 214.189 63.3531 214.189 64.2198C214.189 65.3531 213.989 66.3731 213.589 67.2798C213.189 68.1864 212.616 68.9064 211.869 69.4398C211.136 69.9598 210.262 70.2198 209.249 70.2198C208.516 70.2198 207.869 70.0531 207.309 69.7198C206.762 69.3731 206.376 68.8731 206.149 68.2198H206.329L205.669 72.3198C205.589 72.8131 205.409 73.1798 205.129 73.4198C204.849 73.6598 204.456 73.7798 203.949 73.7798ZM208.629 67.9598C209.162 67.9598 209.616 67.8064 209.989 67.4998C210.362 67.1798 210.649 66.7531 210.849 66.2198C211.049 65.6731 211.149 65.0598 211.149 64.3798C211.149 63.6864 210.982 63.1598 210.649 62.7998C210.329 62.4264 209.882 62.2398 209.309 62.2398C208.776 62.2398 208.322 62.3931 207.949 62.6998C207.576 63.0064 207.289 63.4331 207.089 63.9798C206.889 64.5131 206.789 65.1198 206.789 65.7998C206.789 66.4931 206.949 67.0264 207.269 67.3998C207.602 67.7731 208.056 67.9598 208.629 67.9598ZM220.316 70.2198C219.303 70.2198 218.436 70.0331 217.716 69.6598C216.996 69.2864 216.443 68.7598 216.056 68.0798C215.683 67.3998 215.496 66.6064 215.496 65.6998C215.496 64.7931 215.643 63.9864 215.936 63.2798C216.243 62.5598 216.656 61.9598 217.176 61.4798C217.709 60.9864 218.309 60.6131 218.976 60.3598C219.656 60.1064 220.369 59.9798 221.116 59.9798C222.129 59.9798 222.996 60.1664 223.716 60.5398C224.436 60.8998 224.989 61.4198 225.376 62.0998C225.763 62.7798 225.956 63.5731 225.956 64.4798C225.956 65.3998 225.803 66.2131 225.496 66.9198C225.189 67.6264 224.769 68.2264 224.236 68.7198C223.716 69.2131 223.116 69.5864 222.436 69.8398C221.769 70.0931 221.063 70.2198 220.316 70.2198ZM220.396 67.9598C220.929 67.9598 221.376 67.8064 221.736 67.4998C222.109 67.1798 222.396 66.7531 222.596 66.2198C222.809 65.6731 222.916 65.0598 222.916 64.3798C222.916 63.6864 222.749 63.1598 222.416 62.7998C222.083 62.4264 221.629 62.2398 221.056 62.2398C220.536 62.2398 220.083 62.3931 219.696 62.6998C219.323 63.0064 219.036 63.4331 218.836 63.9798C218.636 64.5131 218.536 65.1198 218.536 65.7998C218.536 66.4931 218.696 67.0264 219.016 67.3998C219.349 67.7731 219.809 67.9598 220.396 67.9598ZM228.513 70.1798C228.02 70.1798 227.66 70.0331 227.433 69.7398C227.22 69.4331 227.16 69.0131 227.253 68.4798L228.353 61.4598C228.433 60.9798 228.613 60.6198 228.893 60.3798C229.187 60.1398 229.567 60.0198 230.033 60.0198C230.513 60.0198 230.86 60.1664 231.073 60.4598C231.287 60.7398 231.353 61.1531 231.273 61.6998L231.113 62.5798H230.933C231.187 61.7931 231.613 61.1731 232.213 60.7198C232.827 60.2664 233.533 60.0198 234.333 59.9798C234.733 59.9664 235.013 60.0398 235.173 60.1998C235.333 60.3464 235.413 60.5998 235.413 60.9598C235.413 61.4931 235.287 61.8864 235.033 62.1398C234.793 62.3931 234.42 62.5464 233.913 62.5998L233.253 62.6598C232.467 62.7398 231.9 62.9798 231.553 63.3798C231.207 63.7664 230.973 64.3331 230.853 65.0798L230.273 68.7198C230.207 69.2131 230.02 69.5798 229.713 69.8198C229.42 70.0598 229.02 70.1798 228.513 70.1798ZM240.841 70.2198C239.895 70.2198 239.121 70.0464 238.521 69.6998C237.935 69.3531 237.521 68.8798 237.281 68.2798C237.041 67.6664 236.988 66.9664 237.121 66.1798L237.721 62.4398H237.041C236.668 62.4398 236.375 62.3598 236.161 62.1998C235.948 62.0264 235.841 61.7864 235.841 61.4798C235.841 61.0664 235.975 60.7464 236.241 60.5198C236.521 60.2931 236.888 60.1798 237.341 60.1798H238.061L238.341 58.5198C238.421 58.0531 238.595 57.7064 238.861 57.4798C239.128 57.2398 239.495 57.1198 239.961 57.1198C240.481 57.1198 240.855 57.2664 241.081 57.5598C241.308 57.8531 241.381 58.2598 241.301 58.7798L241.081 60.1798H242.801C243.188 60.1798 243.488 60.2598 243.701 60.4198C243.915 60.5798 244.021 60.8131 244.021 61.1198C244.021 61.4931 243.895 61.8064 243.641 62.0598C243.401 62.3131 243.068 62.4398 242.641 62.4398H240.741L240.161 66.0198C240.055 66.6464 240.128 67.0931 240.381 67.3598C240.635 67.6264 240.988 67.7598 241.441 67.7598C241.668 67.7598 241.848 67.7464 241.981 67.7198C242.115 67.6798 242.255 67.6598 242.401 67.6598C242.615 67.6598 242.768 67.7198 242.861 67.8398C242.968 67.9464 243.021 68.1598 243.021 68.4798C243.021 69.0398 242.928 69.4264 242.741 69.6398C242.568 69.8531 242.328 69.9931 242.021 70.0598C241.848 70.1131 241.655 70.1531 241.441 70.1798C241.228 70.2064 241.028 70.2198 240.841 70.2198ZM249.15 70.2198C248.123 70.2198 247.23 70.0331 246.47 69.6598C245.71 69.2731 245.123 68.7398 244.71 68.0598C244.296 67.3798 244.09 66.5931 244.09 65.6998C244.09 64.5798 244.33 63.5931 244.81 62.7398C245.29 61.8864 245.943 61.2131 246.77 60.7198C247.61 60.2264 248.556 59.9798 249.61 59.9798C250.436 59.9798 251.136 60.1198 251.71 60.3998C252.283 60.6798 252.736 61.0598 253.07 61.5398C253.403 62.0064 253.623 62.5464 253.73 63.1598C253.85 63.7598 253.876 64.3798 253.81 65.0198C253.77 65.3264 253.683 65.5264 253.55 65.6198C253.416 65.6998 253.236 65.7398 253.01 65.7398H246.53L246.75 64.1798H251.77L251.45 64.4598C251.516 63.9798 251.496 63.5598 251.39 63.1998C251.283 62.8264 251.083 62.5331 250.79 62.3198C250.496 62.0931 250.096 61.9798 249.59 61.9798C249.083 61.9798 248.65 62.0998 248.29 62.3398C247.943 62.5664 247.67 62.8664 247.47 63.2398C247.27 63.5998 247.13 63.9998 247.05 64.4398L246.95 65.1398C246.803 66.0198 246.95 66.7131 247.39 67.2198C247.843 67.7131 248.53 67.9598 249.45 67.9598C249.796 67.9598 250.17 67.9198 250.57 67.8398C250.983 67.7598 251.35 67.6398 251.67 67.4798C251.963 67.3331 252.216 67.2864 252.43 67.3398C252.656 67.3798 252.83 67.4864 252.95 67.6598C253.07 67.8331 253.13 68.0331 253.13 68.2598C253.143 68.4731 253.083 68.6931 252.95 68.9198C252.83 69.1331 252.636 69.3131 252.37 69.4598C251.903 69.7131 251.376 69.8998 250.79 70.0198C250.203 70.1531 249.656 70.2198 249.15 70.2198ZM258.966 70.2198C258.34 70.2198 257.733 70.1598 257.146 70.0398C256.56 69.9198 256.046 69.7664 255.606 69.5798C255.3 69.4464 255.08 69.2731 254.946 69.0598C254.826 68.8464 254.773 68.6264 254.786 68.3998C254.813 68.1731 254.886 67.9731 255.006 67.7998C255.14 67.6264 255.32 67.5131 255.546 67.4598C255.773 67.3931 256.026 67.4198 256.306 67.5398C256.733 67.7398 257.173 67.8931 257.626 67.9998C258.08 68.0931 258.52 68.1398 258.946 68.1398C259.52 68.1398 259.946 68.0398 260.226 67.8398C260.52 67.6398 260.666 67.3864 260.666 67.0798C260.666 66.8531 260.586 66.6731 260.426 66.5398C260.28 66.3931 260.04 66.2931 259.706 66.2398L257.886 65.8998C257.113 65.7664 256.513 65.4798 256.086 65.0398C255.66 64.5864 255.446 64.0198 255.446 63.3398C255.446 62.7398 255.62 62.1864 255.966 61.6798C256.326 61.1598 256.853 60.7464 257.546 60.4398C258.24 60.1331 259.093 59.9798 260.106 59.9798C260.546 59.9798 261.026 60.0331 261.546 60.1398C262.066 60.2464 262.526 60.3998 262.926 60.5998C263.22 60.7331 263.426 60.9064 263.546 61.1198C263.666 61.3331 263.713 61.5464 263.686 61.7598C263.673 61.9731 263.593 62.1664 263.446 62.3398C263.313 62.4998 263.133 62.6064 262.906 62.6598C262.68 62.6998 262.42 62.6598 262.126 62.5398C261.806 62.3798 261.453 62.2598 261.066 62.1798C260.693 62.0864 260.32 62.0398 259.946 62.0398C259.346 62.0398 258.893 62.1464 258.586 62.3598C258.293 62.5731 258.146 62.8464 258.146 63.1798C258.146 63.3664 258.206 63.5331 258.326 63.6798C258.46 63.8131 258.673 63.9064 258.966 63.9598L260.766 64.2998C261.62 64.4598 262.266 64.7598 262.706 65.1998C263.146 65.6264 263.366 66.1798 263.366 66.8598C263.366 67.9398 262.96 68.7731 262.146 69.3598C261.346 69.9331 260.286 70.2198 258.966 70.2198ZM275.876 70.2198C275.329 70.2198 274.783 70.1798 274.236 70.0998C273.689 70.0198 273.149 69.8998 272.616 69.7398C272.096 69.5664 271.609 69.3598 271.156 69.1198C270.849 68.9464 270.636 68.7331 270.516 68.4798C270.409 68.2131 270.376 67.9464 270.416 67.6798C270.456 67.4131 270.563 67.1798 270.736 66.9798C270.909 66.7664 271.129 66.6331 271.396 66.5798C271.663 66.5131 271.969 66.5664 272.316 66.7398C272.929 67.0598 273.569 67.2931 274.236 67.4398C274.916 67.5731 275.556 67.6398 276.156 67.6398C277.009 67.6398 277.669 67.4864 278.136 67.1798C278.616 66.8731 278.856 66.4798 278.856 65.9998C278.856 65.6131 278.716 65.2931 278.436 65.0398C278.156 64.7864 277.689 64.5864 277.036 64.4398L274.776 63.8998C273.789 63.6731 273.003 63.2531 272.416 62.6398C271.843 62.0264 271.556 61.2331 271.556 60.2598C271.556 59.5398 271.703 58.8998 271.996 58.3398C272.303 57.7664 272.723 57.2864 273.256 56.8998C273.803 56.4998 274.423 56.1998 275.116 55.9998C275.823 55.7864 276.563 55.6798 277.336 55.6798C278.003 55.6798 278.723 55.7664 279.496 55.9398C280.283 56.1131 281.009 56.3998 281.676 56.7998C281.943 56.9598 282.129 57.1664 282.236 57.4198C282.343 57.6598 282.376 57.9131 282.336 58.1798C282.309 58.4331 282.209 58.6531 282.036 58.8398C281.876 59.0264 281.649 59.1464 281.356 59.1998C281.076 59.2398 280.736 59.1664 280.336 58.9798C279.896 58.7531 279.403 58.5798 278.856 58.4598C278.323 58.3264 277.803 58.2598 277.296 58.2598C276.763 58.2598 276.289 58.3331 275.876 58.4798C275.476 58.6264 275.163 58.8264 274.936 59.0798C274.723 59.3331 274.616 59.6331 274.616 59.9798C274.616 60.3798 274.743 60.6998 274.996 60.9398C275.263 61.1664 275.656 61.3464 276.176 61.4798L278.416 62.0198C279.563 62.2864 280.429 62.7331 281.016 63.3598C281.616 63.9864 281.916 64.7398 281.916 65.6198C281.916 66.3931 281.756 67.0664 281.436 67.6398C281.116 68.2131 280.669 68.6931 280.096 69.0798C279.536 69.4531 278.889 69.7398 278.156 69.9398C277.436 70.1264 276.676 70.2198 275.876 70.2198ZM288.368 70.2198C287.342 70.2198 286.448 70.0331 285.688 69.6598C284.928 69.2731 284.342 68.7398 283.928 68.0598C283.515 67.3798 283.308 66.5931 283.308 65.6998C283.308 64.5798 283.548 63.5931 284.028 62.7398C284.508 61.8864 285.162 61.2131 285.988 60.7198C286.828 60.2264 287.775 59.9798 288.828 59.9798C289.655 59.9798 290.355 60.1198 290.928 60.3998C291.502 60.6798 291.955 61.0598 292.288 61.5398C292.622 62.0064 292.842 62.5464 292.948 63.1598C293.068 63.7598 293.095 64.3798 293.028 65.0198C292.988 65.3264 292.902 65.5264 292.768 65.6198C292.635 65.6998 292.455 65.7398 292.228 65.7398H285.748L285.968 64.1798H290.988L290.668 64.4598C290.735 63.9798 290.715 63.5598 290.608 63.1998C290.502 62.8264 290.302 62.5331 290.008 62.3198C289.715 62.0931 289.315 61.9798 288.808 61.9798C288.302 61.9798 287.868 62.0998 287.508 62.3398C287.162 62.5664 286.888 62.8664 286.688 63.2398C286.488 63.5998 286.348 63.9998 286.268 64.4398L286.168 65.1398C286.022 66.0198 286.168 66.7131 286.608 67.2198C287.062 67.7131 287.748 67.9598 288.668 67.9598C289.015 67.9598 289.388 67.9198 289.788 67.8398C290.202 67.7598 290.568 67.6398 290.888 67.4798C291.182 67.3331 291.435 67.2864 291.648 67.3398C291.875 67.3798 292.048 67.4864 292.168 67.6598C292.288 67.8331 292.348 68.0331 292.348 68.2598C292.362 68.4731 292.302 68.6931 292.168 68.9198C292.048 69.1331 291.855 69.3131 291.588 69.4598C291.122 69.7131 290.595 69.8998 290.008 70.0198C289.422 70.1531 288.875 70.2198 288.368 70.2198ZM295.525 70.1798C295.058 70.1798 294.712 70.0331 294.485 69.7398C294.272 69.4331 294.212 69.0131 294.305 68.4798L295.425 61.4598C295.492 60.9798 295.665 60.6198 295.945 60.3798C296.238 60.1398 296.618 60.0198 297.085 60.0198C297.565 60.0198 297.912 60.1664 298.125 60.4598C298.338 60.7531 298.405 61.1664 298.325 61.6998L298.165 62.7798L298.045 62.1198C298.432 61.3731 298.925 60.8331 299.525 60.4998C300.125 60.1531 300.758 59.9798 301.425 59.9798C302.158 59.9798 302.765 60.1731 303.245 60.5598C303.725 60.9331 304.058 61.4931 304.245 62.2398L303.965 62.0998C304.325 61.3931 304.805 60.8664 305.405 60.5198C306.018 60.1598 306.718 59.9798 307.505 59.9798C308.212 59.9798 308.805 60.1264 309.285 60.4198C309.765 60.7131 310.105 61.1731 310.305 61.7998C310.505 62.4131 310.532 63.2064 310.385 64.1798L309.665 68.7198C309.598 69.1998 309.418 69.5664 309.125 69.8198C308.845 70.0598 308.465 70.1798 307.985 70.1798C307.492 70.1798 307.132 70.0331 306.905 69.7398C306.678 69.4331 306.605 69.0131 306.685 68.4798L307.345 64.1798C307.452 63.5664 307.412 63.1064 307.225 62.7998C307.038 62.4798 306.712 62.3198 306.245 62.3198C305.685 62.3198 305.218 62.5331 304.845 62.9598C304.485 63.3864 304.238 63.9864 304.105 64.7598L303.485 68.7198C303.418 69.1998 303.238 69.5664 302.945 69.8198C302.652 70.0598 302.265 70.1798 301.785 70.1798C301.292 70.1798 300.932 70.0331 300.705 69.7398C300.478 69.4331 300.405 69.0131 300.485 68.4798L301.165 64.1798C301.272 63.5664 301.232 63.1064 301.045 62.7998C300.858 62.4798 300.532 62.3198 300.065 62.3198C299.505 62.3198 299.038 62.5331 298.665 62.9598C298.292 63.3864 298.038 63.9864 297.905 64.7598L297.285 68.7198C297.138 69.6931 296.552 70.1798 295.525 70.1798ZM315.178 70.2198C314.565 70.2198 314.005 70.0798 313.498 69.7998C313.005 69.5064 312.605 69.1264 312.298 68.6598C312.005 68.1931 311.858 67.6864 311.858 67.1398C311.858 66.4464 312.052 65.8798 312.438 65.4398C312.825 64.9998 313.425 64.6798 314.238 64.4798C315.052 64.2664 316.092 64.1598 317.358 64.1598H318.938L318.698 65.7198H317.418C316.765 65.7198 316.245 65.7598 315.858 65.8398C315.472 65.9064 315.192 66.0331 315.018 66.2198C314.845 66.3931 314.758 66.6331 314.758 66.9398C314.758 67.3398 314.892 67.6531 315.158 67.8798C315.438 68.0931 315.785 68.1998 316.198 68.1998C316.585 68.1998 316.925 68.1198 317.218 67.9598C317.525 67.7998 317.778 67.5731 317.978 67.2798C318.192 66.9864 318.325 66.6398 318.378 66.2398L318.758 63.8998C318.852 63.3531 318.752 62.9331 318.458 62.6398C318.178 62.3464 317.698 62.1998 317.018 62.1998C316.605 62.1998 316.198 62.2398 315.798 62.3198C315.412 62.3998 315.005 62.5331 314.578 62.7198C314.272 62.8264 314.005 62.8464 313.778 62.7798C313.552 62.7131 313.365 62.5931 313.218 62.4198C313.085 62.2464 313.018 62.0464 313.018 61.8198C313.032 61.5798 313.118 61.3531 313.278 61.1398C313.438 60.9264 313.698 60.7464 314.058 60.5998C314.632 60.3731 315.205 60.2131 315.778 60.1198C316.352 60.0264 316.905 59.9798 317.438 59.9798C318.558 59.9798 319.438 60.1864 320.078 60.5998C320.718 61.0131 321.152 61.5731 321.378 62.2798C321.605 62.9731 321.645 63.7531 321.498 64.6198L320.858 68.6798C320.792 69.1731 320.618 69.5464 320.338 69.7998C320.058 70.0531 319.692 70.1798 319.238 70.1798C318.798 70.1798 318.472 70.0398 318.258 69.7598C318.045 69.4798 317.985 69.0664 318.078 68.5198L318.238 67.4598L318.338 67.9998C318.138 68.5064 317.872 68.9264 317.538 69.2598C317.218 69.5931 316.858 69.8398 316.458 69.9998C316.058 70.1464 315.632 70.2198 315.178 70.2198ZM324.411 70.1398C323.945 70.1398 323.598 69.9864 323.371 69.6798C323.158 69.3598 323.098 68.9264 323.191 68.3798L324.271 61.5198C324.351 61.0131 324.538 60.6398 324.831 60.3998C325.125 60.1464 325.511 60.0198 325.991 60.0198C326.445 60.0198 326.778 60.1598 326.991 60.4398C327.218 60.7064 327.285 61.1064 327.191 61.6398L327.031 62.6998L326.991 62.0398C327.325 61.3731 327.791 60.8664 328.391 60.5198C328.991 60.1598 329.698 59.9798 330.511 59.9798C331.231 59.9798 331.838 60.1264 332.331 60.4198C332.825 60.7131 333.171 61.1664 333.371 61.7798C333.585 62.3931 333.618 63.1864 333.471 64.1598L332.751 68.6398C332.685 69.1464 332.505 69.5264 332.211 69.7798C331.918 70.0198 331.518 70.1398 331.011 70.1398C330.545 70.1398 330.198 69.9864 329.971 69.6798C329.758 69.3598 329.691 68.9264 329.771 68.3798L330.431 64.2198C330.538 63.5798 330.491 63.1064 330.291 62.7998C330.105 62.4798 329.745 62.3198 329.211 62.3198C328.531 62.3198 327.985 62.5398 327.571 62.9798C327.158 63.4064 326.891 63.9998 326.771 64.7598L326.151 68.6398C326.005 69.6398 325.425 70.1398 324.411 70.1398ZM338.206 70.2198C337.592 70.2198 337.032 70.0798 336.526 69.7998C336.032 69.5064 335.632 69.1264 335.326 68.6598C335.032 68.1931 334.886 67.6864 334.886 67.1398C334.886 66.4464 335.079 65.8798 335.466 65.4398C335.852 64.9998 336.452 64.6798 337.266 64.4798C338.079 64.2664 339.119 64.1598 340.386 64.1598H341.966L341.726 65.7198H340.446C339.792 65.7198 339.272 65.7598 338.886 65.8398C338.499 65.9064 338.219 66.0331 338.046 66.2198C337.872 66.3931 337.786 66.6331 337.786 66.9398C337.786 67.3398 337.919 67.6531 338.186 67.8798C338.466 68.0931 338.812 68.1998 339.226 68.1998C339.612 68.1998 339.952 68.1198 340.246 67.9598C340.552 67.7998 340.806 67.5731 341.006 67.2798C341.219 66.9864 341.352 66.6398 341.406 66.2398L341.786 63.8998C341.879 63.3531 341.779 62.9331 341.486 62.6398C341.206 62.3464 340.726 62.1998 340.046 62.1998C339.632 62.1998 339.226 62.2398 338.826 62.3198C338.439 62.3998 338.032 62.5331 337.606 62.7198C337.299 62.8264 337.032 62.8464 336.806 62.7798C336.579 62.7131 336.392 62.5931 336.246 62.4198C336.112 62.2464 336.046 62.0464 336.046 61.8198C336.059 61.5798 336.146 61.3531 336.306 61.1398C336.466 60.9264 336.726 60.7464 337.086 60.5998C337.659 60.3731 338.232 60.2131 338.806 60.1198C339.379 60.0264 339.932 59.9798 340.466 59.9798C341.586 59.9798 342.466 60.1864 343.106 60.5998C343.746 61.0131 344.179 61.5731 344.406 62.2798C344.632 62.9731 344.672 63.7531 344.526 64.6198L343.886 68.6798C343.819 69.1731 343.646 69.5464 343.366 69.7998C343.086 70.0531 342.719 70.1798 342.266 70.1798C341.826 70.1798 341.499 70.0398 341.286 69.7598C341.072 69.4798 341.012 69.0664 341.106 68.5198L341.266 67.4598L341.366 67.9998C341.166 68.5064 340.899 68.9264 340.566 69.2598C340.246 69.5931 339.886 69.8398 339.486 69.9998C339.086 70.1464 338.659 70.2198 338.206 70.2198ZM349.619 70.2198C348.432 70.2198 347.572 69.8864 347.039 69.2198C346.505 68.5398 346.339 67.5598 346.539 66.2798L347.999 57.2398C348.065 56.7331 348.245 56.3531 348.539 56.0998C348.832 55.8464 349.232 55.7198 349.739 55.7198C350.205 55.7198 350.545 55.8798 350.759 56.1998C350.972 56.5064 351.039 56.9331 350.959 57.4798L349.559 66.2398C349.479 66.7598 349.525 67.1464 349.699 67.3998C349.885 67.6531 350.165 67.7798 350.539 67.7798C350.672 67.7798 350.779 67.7731 350.859 67.7598C350.952 67.7464 351.039 67.7398 351.119 67.7398C351.279 67.7398 351.405 67.7931 351.499 67.8998C351.592 68.0064 351.639 68.2131 351.639 68.5198C351.639 68.9864 351.545 69.3464 351.359 69.5998C351.172 69.8398 350.952 69.9998 350.699 70.0798C350.579 70.1198 350.412 70.1531 350.199 70.1798C349.999 70.2064 349.805 70.2198 349.619 70.2198ZM357.841 70.2198C356.814 70.2198 355.921 70.0331 355.161 69.6598C354.401 69.2731 353.814 68.7398 353.401 68.0598C352.988 67.3798 352.781 66.5931 352.781 65.6998C352.781 64.5798 353.021 63.5931 353.501 62.7398C353.981 61.8864 354.634 61.2131 355.461 60.7198C356.301 60.2264 357.248 59.9798 358.301 59.9798C359.128 59.9798 359.828 60.1198 360.401 60.3998C360.974 60.6798 361.428 61.0598 361.761 61.5398C362.094 62.0064 362.314 62.5464 362.421 63.1598C362.541 63.7598 362.568 64.3798 362.501 65.0198C362.461 65.3264 362.374 65.5264 362.241 65.6198C362.108 65.6998 361.928 65.7398 361.701 65.7398H355.221L355.441 64.1798H360.461L360.141 64.4598C360.208 63.9798 360.188 63.5598 360.081 63.1998C359.974 62.8264 359.774 62.5331 359.481 62.3198C359.188 62.0931 358.788 61.9798 358.281 61.9798C357.774 61.9798 357.341 62.0998 356.981 62.3398C356.634 62.5664 356.361 62.8664 356.161 63.2398C355.961 63.5998 355.821 63.9998 355.741 64.4398L355.641 65.1398C355.494 66.0198 355.641 66.7131 356.081 67.2198C356.534 67.7131 357.221 67.9598 358.141 67.9598C358.488 67.9598 358.861 67.9198 359.261 67.8398C359.674 67.7598 360.041 67.6398 360.361 67.4798C360.654 67.3331 360.908 67.2864 361.121 67.3398C361.348 67.3798 361.521 67.4864 361.641 67.6598C361.761 67.8331 361.821 68.0331 361.821 68.2598C361.834 68.4731 361.774 68.6931 361.641 68.9198C361.521 69.1331 361.328 69.3131 361.061 69.4598C360.594 69.7131 360.068 69.8998 359.481 70.0198C358.894 70.1531 358.348 70.2198 357.841 70.2198ZM367.658 70.2198C367.031 70.2198 366.424 70.1598 365.838 70.0398C365.251 69.9198 364.738 69.7664 364.298 69.5798C363.991 69.4464 363.771 69.2731 363.638 69.0598C363.518 68.8464 363.464 68.6264 363.478 68.3998C363.504 68.1731 363.578 67.9731 363.698 67.7998C363.831 67.6264 364.011 67.5131 364.238 67.4598C364.464 67.3931 364.718 67.4198 364.998 67.5398C365.424 67.7398 365.864 67.8931 366.318 67.9998C366.771 68.0931 367.211 68.1398 367.638 68.1398C368.211 68.1398 368.638 68.0398 368.918 67.8398C369.211 67.6398 369.358 67.3864 369.358 67.0798C369.358 66.8531 369.278 66.6731 369.118 66.5398C368.971 66.3931 368.731 66.2931 368.398 66.2398L366.578 65.8998C365.804 65.7664 365.204 65.4798 364.778 65.0398C364.351 64.5864 364.138 64.0198 364.138 63.3398C364.138 62.7398 364.311 62.1864 364.658 61.6798C365.018 61.1598 365.544 60.7464 366.238 60.4398C366.931 60.1331 367.784 59.9798 368.798 59.9798C369.238 59.9798 369.718 60.0331 370.238 60.1398C370.758 60.2464 371.218 60.3998 371.618 60.5998C371.911 60.7331 372.118 60.9064 372.238 61.1198C372.358 61.3331 372.404 61.5464 372.378 61.7598C372.364 61.9731 372.284 62.1664 372.138 62.3398C372.004 62.4998 371.824 62.6064 371.598 62.6598C371.371 62.6998 371.111 62.6598 370.818 62.5398C370.498 62.3798 370.144 62.2598 369.758 62.1798C369.384 62.0864 369.011 62.0398 368.638 62.0398C368.038 62.0398 367.584 62.1464 367.278 62.3598C366.984 62.5731 366.838 62.8464 366.838 63.1798C366.838 63.3664 366.898 63.5331 367.018 63.6798C367.151 63.8131 367.364 63.9064 367.658 63.9598L369.458 64.2998C370.311 64.4598 370.958 64.7598 371.398 65.1998C371.838 65.6264 372.058 66.1798 372.058 66.8598C372.058 67.9398 371.651 68.7731 370.838 69.3598C370.038 69.9331 368.978 70.2198 367.658 70.2198Z" fill="black"/>
<path d="M107.928 195.352C106.968 195.352 105.923 195.234 104.792 195C103.683 194.744 102.648 194.328 101.688 193.752C101.219 193.453 100.899 193.101 100.728 192.696C100.579 192.29 100.547 191.885 100.632 191.48C100.717 191.074 100.899 190.722 101.176 190.424C101.453 190.104 101.784 189.901 102.168 189.816C102.552 189.709 102.968 189.784 103.416 190.04C104.205 190.488 104.941 190.797 105.624 190.968C106.307 191.138 107.075 191.224 107.928 191.224C108.76 191.224 109.496 191.074 110.136 190.776C110.797 190.456 111.309 190.018 111.672 189.464C112.035 188.888 112.216 188.226 112.216 187.48C112.216 186.562 111.917 185.848 111.32 185.336C110.723 184.802 109.944 184.536 108.984 184.536C108.387 184.536 107.811 184.632 107.256 184.824C106.701 184.994 106.157 185.304 105.624 185.752C105.283 185.965 104.941 186.146 104.6 186.296C104.259 186.424 103.875 186.488 103.448 186.488C102.872 186.488 102.424 186.328 102.104 186.008C101.805 185.666 101.709 185.122 101.816 184.376L103.384 174.52C103.512 173.816 103.779 173.293 104.184 172.952C104.611 172.61 105.165 172.44 105.848 172.44H115.8C116.504 172.44 117.037 172.589 117.4 172.888C117.784 173.165 117.976 173.592 117.976 174.168C117.976 174.893 117.763 175.469 117.336 175.896C116.909 176.301 116.312 176.504 115.544 176.504H107.832L106.872 182.616H105.656C106.339 181.954 107.128 181.442 108.024 181.08C108.941 180.717 109.859 180.536 110.776 180.536C112.056 180.536 113.155 180.813 114.072 181.368C115.011 181.922 115.725 182.68 116.216 183.64C116.728 184.6 116.984 185.72 116.984 187C116.984 188.728 116.568 190.221 115.736 191.48C114.904 192.717 113.795 193.677 112.408 194.36C111.043 195.021 109.549 195.352 107.928 195.352ZM130.092 195.288C129.324 195.288 128.748 195.074 128.364 194.648C127.98 194.2 127.852 193.57 127.98 192.76L128.268 190.968H121.484C120.609 190.968 119.958 190.786 119.532 190.424C119.126 190.061 118.924 189.57 118.924 188.952C118.924 188.418 119.052 187.938 119.308 187.512C119.585 187.064 119.937 186.594 120.364 186.104L130.796 173.816C131.244 173.304 131.67 172.941 132.076 172.728C132.502 172.493 133.036 172.376 133.676 172.376C134.358 172.376 134.881 172.621 135.244 173.112C135.628 173.581 135.745 174.253 135.596 175.128L133.708 187.064H134.924C135.542 187.064 136.012 187.202 136.332 187.48C136.652 187.736 136.812 188.109 136.812 188.6C136.812 189.325 136.63 189.901 136.267 190.328C135.905 190.754 135.286 190.968 134.412 190.968H133.132L132.812 192.92C132.705 193.688 132.428 194.274 131.98 194.68C131.532 195.085 130.902 195.288 130.092 195.288ZM128.876 187.064L130.252 178.36H131.084L122.796 188.28L122.956 187.064H128.876Z" fill="#114C5F"/>
<path d="M260.8 197.352C259.755 197.352 258.645 197.234 257.472 197C256.299 196.786 255.189 196.381 254.144 195.784C253.653 195.528 253.323 195.197 253.152 194.792C253.003 194.365 252.96 193.938 253.024 193.512C253.109 193.085 253.28 192.712 253.536 192.392C253.813 192.072 254.144 191.869 254.528 191.784C254.912 191.677 255.328 191.752 255.776 192.008C256.608 192.477 257.451 192.797 258.304 192.968C259.179 193.138 260.011 193.224 260.8 193.224C261.525 193.224 262.155 193.106 262.688 192.872C263.243 192.616 263.68 192.253 264 191.784C264.341 191.314 264.512 190.749 264.512 190.088C264.512 189.32 264.245 188.722 263.712 188.296C263.2 187.848 262.411 187.624 261.344 187.624H259.872C259.168 187.624 258.624 187.474 258.24 187.176C257.877 186.877 257.696 186.44 257.696 185.864C257.696 185.181 257.909 184.637 258.336 184.232C258.784 183.826 259.381 183.624 260.128 183.624H261.632C262.379 183.624 263.051 183.506 263.648 183.272C264.245 183.037 264.704 182.696 265.024 182.248C265.365 181.8 265.536 181.256 265.536 180.616C265.536 179.848 265.248 179.261 264.672 178.856C264.117 178.429 263.381 178.216 262.464 178.216C261.803 178.216 261.088 178.312 260.32 178.504C259.573 178.674 258.827 178.962 258.08 179.368C257.589 179.624 257.141 179.72 256.736 179.656C256.331 179.57 255.989 179.378 255.712 179.08C255.435 178.781 255.264 178.429 255.2 178.024C255.136 177.618 255.2 177.224 255.392 176.84C255.605 176.434 255.968 176.093 256.48 175.816C257.547 175.197 258.656 174.76 259.808 174.504C260.981 174.226 262.101 174.088 263.168 174.088C264.789 174.088 266.123 174.365 267.168 174.92C268.235 175.453 269.024 176.157 269.536 177.032C270.048 177.906 270.304 178.845 270.304 179.848C270.325 180.85 270.112 181.757 269.664 182.568C269.216 183.357 268.587 184.018 267.776 184.552C266.987 185.085 266.069 185.448 265.024 185.64V185.224C266.411 185.501 267.467 186.109 268.192 187.048C268.917 187.986 269.28 189.117 269.28 190.44C269.28 191.656 268.939 192.797 268.256 193.864C267.595 194.909 266.635 195.752 265.376 196.392C264.117 197.032 262.592 197.352 260.8 197.352Z" fill="#114C5F"/>
<path d="M408.928 197.352C407.968 197.352 406.923 197.234 405.792 197C404.683 196.744 403.648 196.328 402.688 195.752C402.219 195.453 401.899 195.101 401.728 194.696C401.579 194.29 401.547 193.885 401.632 193.48C401.717 193.074 401.899 192.722 402.176 192.424C402.453 192.104 402.784 191.901 403.168 191.816C403.552 191.709 403.968 191.784 404.416 192.04C405.205 192.488 405.941 192.797 406.624 192.968C407.307 193.138 408.075 193.224 408.928 193.224C409.76 193.224 410.496 193.074 411.136 192.776C411.797 192.456 412.309 192.018 412.672 191.464C413.035 190.888 413.216 190.226 413.216 189.48C413.216 188.562 412.917 187.848 412.32 187.336C411.723 186.802 410.944 186.536 409.984 186.536C409.387 186.536 408.811 186.632 408.256 186.824C407.701 186.994 407.157 187.304 406.624 187.752C406.283 187.965 405.941 188.146 405.6 188.296C405.259 188.424 404.875 188.488 404.448 188.488C403.872 188.488 403.424 188.328 403.104 188.008C402.805 187.666 402.709 187.122 402.816 186.376L404.384 176.52C404.512 175.816 404.779 175.293 405.184 174.952C405.611 174.61 406.165 174.44 406.848 174.44H416.8C417.504 174.44 418.037 174.589 418.4 174.888C418.784 175.165 418.976 175.592 418.976 176.168C418.976 176.893 418.763 177.469 418.336 177.896C417.909 178.301 417.312 178.504 416.544 178.504H408.832L407.872 184.616H406.656C407.339 183.954 408.128 183.442 409.024 183.08C409.941 182.717 410.859 182.536 411.776 182.536C413.056 182.536 414.155 182.813 415.072 183.368C416.011 183.922 416.725 184.68 417.216 185.64C417.728 186.6 417.984 187.72 417.984 189C417.984 190.728 417.568 192.221 416.736 193.48C415.904 194.717 414.795 195.677 413.408 196.36C412.043 197.021 410.549 197.352 408.928 197.352Z" fill="#114C5F"/>
<path d="M408.928 266.216C408.352 266.216 407.92 266.056 407.632 265.736C407.344 265.4 407.248 264.928 407.344 264.32L407.56 262.976H402.472C401.816 262.976 401.328 262.84 401.008 262.568C400.704 262.296 400.552 261.928 400.552 261.464C400.552 261.064 400.648 260.704 400.84 260.384C401.048 260.048 401.312 259.696 401.632 259.328L409.456 250.112C409.792 249.728 410.112 249.456 410.416 249.296C410.736 249.12 411.136 249.032 411.616 249.032C412.128 249.032 412.52 249.216 412.792 249.584C413.08 249.936 413.168 250.44 413.056 251.096L411.64 260.048H412.552C413.016 260.048 413.368 260.152 413.608 260.36C413.848 260.552 413.968 260.832 413.968 261.2C413.968 261.744 413.832 262.176 413.56 262.496C413.288 262.816 412.824 262.976 412.168 262.976H411.208L410.968 264.44C410.888 265.016 410.68 265.456 410.344 265.76C410.008 266.064 409.536 266.216 408.928 266.216ZM408.016 260.048L409.048 253.52H409.672L403.456 260.96L403.576 260.048H408.016Z" fill="white"/>
<path d="M405.12 335C404.592 335 404.184 334.888 403.896 334.664C403.624 334.44 403.488 334.112 403.488 333.68C403.488 333.152 403.648 332.736 403.968 332.432C404.304 332.112 404.752 331.952 405.312 331.952H407.736L409.44 321.128L411.24 321.272L407.64 323.312C407.24 323.536 406.872 323.624 406.536 323.576C406.216 323.528 405.952 323.392 405.744 323.168C405.536 322.944 405.4 322.68 405.336 322.376C405.288 322.056 405.336 321.744 405.48 321.44C405.624 321.12 405.888 320.848 406.272 320.624L410.016 318.464C410.384 318.256 410.72 318.104 411.024 318.008C411.344 317.912 411.672 317.864 412.008 317.864C412.552 317.864 412.944 318.024 413.184 318.344C413.424 318.664 413.496 319.112 413.4 319.688L411.456 331.952H413.352C413.864 331.952 414.264 332.064 414.552 332.288C414.84 332.496 414.984 332.816 414.984 333.248C414.984 333.76 414.816 334.184 414.48 334.52C414.16 334.84 413.712 335 413.136 335H405.12Z" fill="white"/>
<path d="M260.488 266.264C259.192 266.264 258.088 266 257.176 265.472C256.28 264.944 255.584 264.192 255.088 263.216C254.608 262.224 254.368 261.064 254.368 259.736C254.368 258.024 254.56 256.496 254.944 255.152C255.328 253.808 255.88 252.664 256.6 251.72C257.32 250.776 258.192 250.056 259.216 249.56C260.256 249.064 261.424 248.816 262.72 248.816C263.44 248.816 264.152 248.92 264.856 249.128C265.576 249.336 266.248 249.664 266.872 250.112C267.208 250.336 267.424 250.6 267.52 250.904C267.616 251.208 267.616 251.512 267.52 251.816C267.44 252.12 267.288 252.384 267.064 252.608C266.84 252.816 266.576 252.944 266.272 252.992C265.968 253.04 265.648 252.96 265.312 252.752C264.88 252.464 264.424 252.256 263.944 252.128C263.48 251.984 263.008 251.912 262.528 251.912C261.664 251.912 260.904 252.136 260.248 252.584C259.608 253.016 259.088 253.656 258.688 254.504C258.304 255.336 258.048 256.36 257.92 257.576L257.824 258.416H257.536C257.68 257.712 257.976 257.104 258.424 256.592C258.888 256.08 259.432 255.688 260.056 255.416C260.696 255.144 261.352 255.008 262.024 255.008C262.92 255.008 263.696 255.232 264.352 255.68C265.024 256.112 265.544 256.696 265.912 257.432C266.296 258.168 266.488 258.984 266.488 259.88C266.488 261.08 266.232 262.168 265.72 263.144C265.224 264.104 264.52 264.864 263.608 265.424C262.712 265.984 261.672 266.264 260.488 266.264ZM260.344 263.36C260.904 263.36 261.384 263.224 261.784 262.952C262.184 262.68 262.496 262.312 262.72 261.848C262.944 261.368 263.056 260.824 263.056 260.216C263.056 259.752 262.96 259.352 262.768 259.016C262.592 258.664 262.328 258.392 261.976 258.2C261.624 258.008 261.216 257.912 260.752 257.912C260.224 257.912 259.752 258.048 259.336 258.32C258.936 258.592 258.616 258.96 258.376 259.424C258.152 259.888 258.04 260.432 258.04 261.056C258.04 261.504 258.136 261.904 258.328 262.256C258.52 262.608 258.792 262.88 259.144 263.072C259.496 263.264 259.896 263.36 260.344 263.36Z" fill="white"/>
<path d="M255.76 335C255.248 335 254.824 334.88 254.488 334.64C254.168 334.384 254.008 334.016 254.008 333.536C254.008 333.152 254.096 332.816 254.272 332.528C254.464 332.224 254.784 331.864 255.232 331.448L260.368 326.696C261.184 325.944 261.816 325.272 262.264 324.68C262.712 324.072 262.936 323.424 262.936 322.736C262.936 322.16 262.728 321.712 262.312 321.392C261.912 321.072 261.36 320.912 260.656 320.912C260.24 320.912 259.776 320.984 259.264 321.128C258.768 321.272 258.232 321.504 257.656 321.824C257.304 322.016 256.984 322.088 256.696 322.04C256.408 321.976 256.168 321.832 255.976 321.608C255.784 321.384 255.656 321.12 255.592 320.816C255.544 320.512 255.576 320.216 255.688 319.928C255.816 319.624 256.04 319.376 256.36 319.184C257.112 318.752 257.912 318.416 258.76 318.176C259.624 317.936 260.52 317.816 261.448 317.816C262.488 317.816 263.392 318.008 264.16 318.392C264.944 318.76 265.544 319.264 265.96 319.904C266.392 320.544 266.608 321.288 266.608 322.136C266.608 323.064 266.44 323.904 266.104 324.656C265.768 325.392 265.304 326.096 264.712 326.768C264.136 327.424 263.464 328.08 262.696 328.736L257.992 332.912L257.968 331.952H264.184C264.712 331.952 265.112 332.064 265.384 332.288C265.672 332.496 265.816 332.808 265.816 333.224C265.816 333.752 265.656 334.184 265.336 334.52C265.016 334.84 264.56 335 263.968 335H255.76Z" fill="white"/>
<path d="M106.552 266.24C105.304 266.24 104.232 266.064 103.336 265.712C102.456 265.344 101.768 264.832 101.272 264.176C100.792 263.504 100.552 262.72 100.552 261.824C100.552 260.96 100.744 260.176 101.128 259.472C101.528 258.768 102.064 258.208 102.736 257.792C103.424 257.36 104.192 257.12 105.04 257.072L104.968 257.672C104.104 257.448 103.416 257.008 102.904 256.352C102.408 255.68 102.16 254.84 102.16 253.832C102.16 252.76 102.448 251.856 103.024 251.12C103.6 250.368 104.376 249.808 105.352 249.44C106.344 249.056 107.448 248.864 108.664 248.864C109.8 248.864 110.776 249.032 111.592 249.368C112.424 249.704 113.064 250.184 113.512 250.808C113.976 251.432 114.208 252.168 114.208 253.016C114.208 253.768 114.032 254.48 113.68 255.152C113.344 255.808 112.872 256.36 112.264 256.808C111.672 257.24 110.992 257.496 110.224 257.576L110.32 257.024C111.248 257.184 112.008 257.616 112.6 258.32C113.192 259.008 113.488 259.896 113.488 260.984C113.488 262.136 113.184 263.104 112.576 263.888C111.968 264.656 111.144 265.24 110.104 265.64C109.064 266.04 107.88 266.24 106.552 266.24ZM106.72 263.408C107.744 263.408 108.56 263.184 109.168 262.736C109.776 262.288 110.08 261.648 110.08 260.816C110.08 260.176 109.824 259.696 109.312 259.376C108.816 259.04 108.152 258.872 107.32 258.872C106.296 258.872 105.48 259.088 104.872 259.52C104.264 259.952 103.96 260.576 103.96 261.392C103.96 262.048 104.208 262.552 104.704 262.904C105.2 263.24 105.872 263.408 106.72 263.408ZM107.872 256.016C108.464 256.016 108.976 255.912 109.408 255.704C109.84 255.496 110.176 255.208 110.416 254.84C110.672 254.472 110.8 254.04 110.8 253.544C110.8 252.952 110.6 252.496 110.2 252.176C109.8 251.856 109.24 251.696 108.52 251.696C107.592 251.696 106.872 251.92 106.36 252.368C105.848 252.816 105.592 253.416 105.592 254.168C105.592 254.76 105.792 255.216 106.192 255.536C106.592 255.856 107.152 256.016 107.872 256.016ZM117.919 266.216C117.455 266.216 117.079 266.104 116.791 265.88C116.503 265.64 116.343 265.328 116.311 264.944C116.295 264.56 116.447 264.144 116.767 263.696L125.503 251L125.479 252.176H118.519C117.975 252.176 117.551 252.064 117.247 251.84C116.943 251.6 116.791 251.256 116.791 250.808C116.791 250.264 116.943 249.84 117.247 249.536C117.567 249.232 118.015 249.08 118.591 249.08H127.471C128.175 249.08 128.655 249.208 128.911 249.464C129.183 249.72 129.319 250.056 129.319 250.472C129.319 250.872 129.231 251.248 129.055 251.6C128.895 251.952 128.647 252.36 128.311 252.824L120.031 264.992C119.743 265.424 119.431 265.736 119.095 265.928C118.759 266.12 118.367 266.216 117.919 266.216Z" fill="white"/>
<path d="M107.488 335.264C106.192 335.264 105.088 335 104.176 334.472C103.28 333.944 102.584 333.192 102.088 332.216C101.608 331.224 101.368 330.064 101.368 328.736C101.368 327.024 101.56 325.496 101.944 324.152C102.328 322.808 102.88 321.664 103.6 320.72C104.32 319.776 105.192 319.056 106.216 318.56C107.256 318.064 108.424 317.816 109.72 317.816C110.44 317.816 111.152 317.92 111.856 318.128C112.576 318.336 113.248 318.664 113.872 319.112C114.208 319.336 114.424 319.6 114.52 319.904C114.616 320.208 114.616 320.512 114.52 320.816C114.44 321.12 114.288 321.384 114.064 321.608C113.84 321.816 113.576 321.944 113.272 321.992C112.968 322.04 112.648 321.96 112.312 321.752C111.88 321.464 111.424 321.256 110.944 321.128C110.48 320.984 110.008 320.912 109.528 320.912C108.664 320.912 107.904 321.136 107.248 321.584C106.608 322.016 106.088 322.656 105.688 323.504C105.304 324.336 105.048 325.36 104.92 326.576L104.824 327.416H104.536C104.68 326.712 104.976 326.104 105.424 325.592C105.888 325.08 106.432 324.688 107.056 324.416C107.696 324.144 108.352 324.008 109.024 324.008C109.92 324.008 110.696 324.232 111.352 324.68C112.024 325.112 112.544 325.696 112.912 326.432C113.296 327.168 113.488 327.984 113.488 328.88C113.488 330.08 113.232 331.168 112.72 332.144C112.224 333.104 111.52 333.864 110.608 334.424C109.712 334.984 108.672 335.264 107.488 335.264ZM107.344 332.36C107.904 332.36 108.384 332.224 108.784 331.952C109.184 331.68 109.496 331.312 109.72 330.848C109.944 330.368 110.056 329.824 110.056 329.216C110.056 328.752 109.96 328.352 109.768 328.016C109.592 327.664 109.328 327.392 108.976 327.2C108.624 327.008 108.216 326.912 107.752 326.912C107.224 326.912 106.752 327.048 106.336 327.32C105.936 327.592 105.616 327.96 105.376 328.424C105.152 328.888 105.04 329.432 105.04 330.056C105.04 330.504 105.136 330.904 105.328 331.256C105.52 331.608 105.792 331.88 106.144 332.072C106.496 332.264 106.896 332.36 107.344 332.36ZM117.511 335C116.983 335 116.575 334.888 116.287 334.664C116.015 334.44 115.879 334.112 115.879 333.68C115.879 333.152 116.039 332.736 116.359 332.432C116.695 332.112 117.143 331.952 117.703 331.952H120.127L121.831 321.128L123.631 321.272L120.031 323.312C119.631 323.536 119.263 323.624 118.927 323.576C118.607 323.528 118.343 323.392 118.135 323.168C117.927 322.944 117.791 322.68 117.727 322.376C117.679 322.056 117.727 321.744 117.871 321.44C118.015 321.12 118.279 320.848 118.663 320.624L122.407 318.464C122.775 318.256 123.111 318.104 123.415 318.008C123.735 317.912 124.063 317.864 124.399 317.864C124.943 317.864 125.335 318.024 125.575 318.344C125.815 318.664 125.887 319.112 125.791 319.688L123.847 331.952H125.743C126.255 331.952 126.655 332.064 126.943 332.288C127.231 332.496 127.375 332.816 127.375 333.248C127.375 333.76 127.207 334.184 126.871 334.52C126.551 334.84 126.103 335 125.527 335H117.511Z" fill="white"/>
<path d="M68.605 121.135C68.265 121.135 68.005 121.025 67.825 120.805C67.655 120.575 67.6 120.255 67.66 119.845L69.025 111.28C69.085 110.95 69.205 110.705 69.385 110.545C69.575 110.375 69.81 110.29 70.09 110.29C70.39 110.29 70.615 110.35 70.765 110.47C70.925 110.58 71.085 110.765 71.245 111.025L75.37 117.925H74.965L76 111.37C76.06 111 76.19 110.73 76.39 110.56C76.6 110.38 76.885 110.29 77.245 110.29C77.585 110.29 77.83 110.405 77.98 110.635C78.14 110.855 78.19 111.165 78.13 111.565L76.78 120.13C76.73 120.46 76.62 120.71 76.45 120.88C76.28 121.05 76.055 121.135 75.775 121.135C75.475 121.135 75.235 121.075 75.055 120.955C74.875 120.835 74.705 120.645 74.545 120.385L70.42 113.5H70.825L69.79 120.055C69.74 120.415 69.62 120.685 69.43 120.865C69.24 121.045 68.965 121.135 68.605 121.135ZM79.6743 121.135C79.3243 121.135 79.0643 121.02 78.8943 120.79C78.7343 120.55 78.6893 120.225 78.7593 119.815L79.5843 114.64C79.6343 114.26 79.7693 113.98 79.9893 113.8C80.2093 113.61 80.5093 113.515 80.8893 113.515C81.2393 113.515 81.4943 113.63 81.6543 113.86C81.8143 114.09 81.8643 114.415 81.8043 114.835L80.9793 120.01C80.9193 120.38 80.7843 120.66 80.5743 120.85C80.3643 121.04 80.0643 121.135 79.6743 121.135ZM81.0993 112.285C80.6993 112.285 80.3993 112.19 80.1993 112C80.0093 111.81 79.9343 111.54 79.9743 111.19C80.0343 110.8 80.1893 110.51 80.4393 110.32C80.6893 110.12 81.0293 110.02 81.4593 110.02C81.8593 110.02 82.1593 110.115 82.3593 110.305C82.5593 110.495 82.6293 110.77 82.5693 111.13C82.5193 111.51 82.3693 111.8 82.1193 112C81.8693 112.19 81.5293 112.285 81.0993 112.285ZM85.803 121.135C85.443 121.135 85.158 121.05 84.948 120.88C84.738 120.7 84.588 120.44 84.498 120.1L83.103 115.045C83.013 114.745 82.998 114.48 83.058 114.25C83.118 114.02 83.238 113.84 83.418 113.71C83.598 113.58 83.828 113.515 84.108 113.515C84.418 113.515 84.658 113.59 84.828 113.74C84.998 113.89 85.123 114.155 85.203 114.535L86.223 118.915H85.758L88.368 114.295C88.528 114.005 88.698 113.805 88.878 113.695C89.068 113.575 89.308 113.515 89.598 113.515C89.878 113.515 90.098 113.58 90.258 113.71C90.418 113.83 90.503 113.995 90.513 114.205C90.533 114.405 90.473 114.625 90.333 114.865L87.078 120.31C86.898 120.6 86.703 120.81 86.493 120.94C86.293 121.07 86.063 121.135 85.803 121.135ZM94.4199 121.165C93.6499 121.165 92.9799 121.025 92.4099 120.745C91.8399 120.455 91.3999 120.055 91.0899 119.545C90.7799 119.035 90.6249 118.445 90.6249 117.775C90.6249 116.935 90.8049 116.195 91.1649 115.555C91.5249 114.915 92.0149 114.41 92.6349 114.04C93.2649 113.67 93.9749 113.485 94.7649 113.485C95.3849 113.485 95.9099 113.59 96.3399 113.8C96.7699 114.01 97.1099 114.295 97.3599 114.655C97.6099 115.005 97.7749 115.41 97.8549 115.87C97.9449 116.32 97.9649 116.785 97.9149 117.265C97.8849 117.495 97.8199 117.645 97.7199 117.715C97.6199 117.775 97.4849 117.805 97.3149 117.805H92.4549L92.6199 116.635H96.3849L96.1449 116.845C96.1949 116.485 96.1799 116.17 96.0999 115.9C96.0199 115.62 95.8699 115.4 95.6499 115.24C95.4299 115.07 95.1299 114.985 94.7499 114.985C94.3699 114.985 94.0449 115.075 93.7749 115.255C93.5149 115.425 93.3099 115.65 93.1599 115.93C93.0099 116.2 92.9049 116.5 92.8449 116.83L92.7699 117.355C92.6599 118.015 92.7699 118.535 93.0999 118.915C93.4399 119.285 93.9549 119.47 94.6449 119.47C94.9049 119.47 95.1849 119.44 95.4849 119.38C95.7949 119.32 96.0699 119.23 96.3099 119.11C96.5299 119 96.7199 118.965 96.8799 119.005C97.0499 119.035 97.1799 119.115 97.2699 119.245C97.3599 119.375 97.4049 119.525 97.4049 119.695C97.4149 119.855 97.3699 120.02 97.2699 120.19C97.1799 120.35 97.0349 120.485 96.8349 120.595C96.4849 120.785 96.0899 120.925 95.6499 121.015C95.2099 121.115 94.7999 121.165 94.4199 121.165ZM101.407 121.165C100.517 121.165 99.8723 120.915 99.4723 120.415C99.0723 119.905 98.9473 119.17 99.0973 118.21L100.192 111.43C100.242 111.05 100.377 110.765 100.597 110.575C100.817 110.385 101.117 110.29 101.497 110.29C101.847 110.29 102.102 110.41 102.262 110.65C102.422 110.88 102.472 111.2 102.412 111.61L101.362 118.18C101.302 118.57 101.337 118.86 101.467 119.05C101.607 119.24 101.817 119.335 102.097 119.335C102.197 119.335 102.277 119.33 102.337 119.32C102.407 119.31 102.472 119.305 102.532 119.305C102.652 119.305 102.747 119.345 102.817 119.425C102.887 119.505 102.922 119.66 102.922 119.89C102.922 120.24 102.852 120.51 102.712 120.7C102.572 120.88 102.407 121 102.217 121.06C102.127 121.09 102.002 121.115 101.842 121.135C101.692 121.155 101.547 121.165 101.407 121.165ZM110.772 121.165C110.222 121.165 109.737 121.035 109.317 120.775C108.907 120.505 108.587 120.135 108.357 119.665C108.137 119.185 108.027 118.62 108.027 117.97C108.027 117.11 108.177 116.345 108.477 115.675C108.777 114.995 109.207 114.46 109.767 114.07C110.327 113.68 110.982 113.485 111.732 113.485C112.282 113.485 112.762 113.615 113.172 113.875C113.592 114.125 113.887 114.495 114.057 114.985L113.937 114.97L114.492 111.385C114.552 111.015 114.692 110.74 114.912 110.56C115.132 110.38 115.427 110.29 115.797 110.29C116.157 110.29 116.417 110.405 116.577 110.635C116.737 110.855 116.787 111.175 116.727 111.595L115.392 119.98C115.342 120.36 115.207 120.65 114.987 120.85C114.767 121.04 114.472 121.135 114.102 121.135C113.752 121.135 113.497 121.015 113.337 120.775C113.187 120.525 113.147 120.195 113.217 119.785L113.322 119.125V119.725C113.042 120.165 112.682 120.515 112.242 120.775C111.802 121.035 111.312 121.165 110.772 121.165ZM111.687 119.47C112.087 119.47 112.427 119.35 112.707 119.11C112.987 118.87 113.202 118.55 113.352 118.15C113.502 117.75 113.577 117.295 113.577 116.785C113.577 116.265 113.452 115.87 113.202 115.6C112.962 115.32 112.627 115.18 112.197 115.18C111.797 115.18 111.457 115.295 111.177 115.525C110.897 115.755 110.682 116.075 110.532 116.485C110.382 116.885 110.307 117.34 110.307 117.85C110.307 118.37 110.427 118.77 110.667 119.05C110.917 119.33 111.257 119.47 111.687 119.47ZM120.992 121.165C120.222 121.165 119.552 121.025 118.982 120.745C118.412 120.455 117.972 120.055 117.662 119.545C117.352 119.035 117.197 118.445 117.197 117.775C117.197 116.935 117.377 116.195 117.737 115.555C118.097 114.915 118.587 114.41 119.207 114.04C119.837 113.67 120.547 113.485 121.337 113.485C121.957 113.485 122.482 113.59 122.912 113.8C123.342 114.01 123.682 114.295 123.932 114.655C124.182 115.005 124.347 115.41 124.427 115.87C124.517 116.32 124.537 116.785 124.487 117.265C124.457 117.495 124.392 117.645 124.292 117.715C124.192 117.775 124.057 117.805 123.887 117.805H119.027L119.192 116.635H122.957L122.717 116.845C122.767 116.485 122.752 116.17 122.672 115.9C122.592 115.62 122.442 115.4 122.222 115.24C122.002 115.07 121.702 114.985 121.322 114.985C120.942 114.985 120.617 115.075 120.347 115.255C120.087 115.425 119.882 115.65 119.732 115.93C119.582 116.2 119.477 116.5 119.417 116.83L119.342 117.355C119.232 118.015 119.342 118.535 119.672 118.915C120.012 119.285 120.527 119.47 121.217 119.47C121.477 119.47 121.757 119.44 122.057 119.38C122.367 119.32 122.642 119.23 122.882 119.11C123.102 119 123.292 118.965 123.452 119.005C123.622 119.035 123.752 119.115 123.842 119.245C123.932 119.375 123.977 119.525 123.977 119.695C123.987 119.855 123.942 120.02 123.842 120.19C123.752 120.35 123.607 120.485 123.407 120.595C123.057 120.785 122.662 120.925 122.222 121.015C121.782 121.115 121.372 121.165 120.992 121.165ZM130.939 121C130.509 121 130.199 120.89 130.009 120.67C129.819 120.44 129.754 120.115 129.814 119.695L131.104 111.55C131.164 111.18 131.304 110.9 131.524 110.71C131.744 110.52 132.039 110.425 132.409 110.425H137.569C137.879 110.425 138.114 110.49 138.274 110.62C138.444 110.74 138.529 110.92 138.529 111.16C138.529 111.5 138.429 111.765 138.229 111.955C138.039 112.145 137.779 112.24 137.449 112.24H133.219L132.829 114.715H136.564C136.874 114.715 137.109 114.78 137.269 114.91C137.429 115.04 137.509 115.22 137.509 115.45C137.509 115.79 137.409 116.06 137.209 116.26C137.019 116.45 136.764 116.545 136.444 116.545H132.544L132.124 119.185H136.174C136.484 119.185 136.719 119.25 136.879 119.38C137.049 119.5 137.134 119.68 137.134 119.92C137.134 120.26 137.034 120.525 136.834 120.715C136.644 120.905 136.384 121 136.054 121H130.939ZM141.582 121.165C141.112 121.165 140.657 121.12 140.217 121.03C139.777 120.94 139.392 120.825 139.062 120.685C138.832 120.585 138.667 120.455 138.567 120.295C138.477 120.135 138.437 119.97 138.447 119.8C138.467 119.63 138.522 119.48 138.612 119.35C138.712 119.22 138.847 119.135 139.017 119.095C139.187 119.045 139.377 119.065 139.587 119.155C139.907 119.305 140.237 119.42 140.577 119.5C140.917 119.57 141.247 119.605 141.567 119.605C141.997 119.605 142.317 119.53 142.527 119.38C142.747 119.23 142.857 119.04 142.857 118.81C142.857 118.64 142.797 118.505 142.677 118.405C142.567 118.295 142.387 118.22 142.137 118.18L140.772 117.925C140.192 117.825 139.742 117.61 139.422 117.28C139.102 116.94 138.942 116.515 138.942 116.005C138.942 115.555 139.072 115.14 139.332 114.76C139.602 114.37 139.997 114.06 140.517 113.83C141.037 113.6 141.677 113.485 142.437 113.485C142.767 113.485 143.127 113.525 143.517 113.605C143.907 113.685 144.252 113.8 144.552 113.95C144.772 114.05 144.927 114.18 145.017 114.34C145.107 114.5 145.142 114.66 145.122 114.82C145.112 114.98 145.052 115.125 144.942 115.255C144.842 115.375 144.707 115.455 144.537 115.495C144.367 115.525 144.172 115.495 143.952 115.405C143.712 115.285 143.447 115.195 143.157 115.135C142.877 115.065 142.597 115.03 142.317 115.03C141.867 115.03 141.527 115.11 141.297 115.27C141.077 115.43 140.967 115.635 140.967 115.885C140.967 116.025 141.012 116.15 141.102 116.26C141.202 116.36 141.362 116.43 141.582 116.47L142.932 116.725C143.572 116.845 144.057 117.07 144.387 117.4C144.717 117.72 144.882 118.135 144.882 118.645C144.882 119.455 144.577 120.08 143.967 120.52C143.367 120.95 142.572 121.165 141.582 121.165ZM149.522 121.165C148.812 121.165 148.232 121.035 147.782 120.775C147.342 120.515 147.032 120.16 146.852 119.71C146.672 119.25 146.632 118.725 146.732 118.135L147.182 115.33H146.672C146.392 115.33 146.172 115.27 146.012 115.15C145.852 115.02 145.772 114.84 145.772 114.61C145.772 114.3 145.872 114.06 146.072 113.89C146.282 113.72 146.557 113.635 146.897 113.635H147.437L147.647 112.39C147.707 112.04 147.837 111.78 148.037 111.61C148.237 111.43 148.512 111.34 148.862 111.34C149.252 111.34 149.532 111.45 149.702 111.67C149.872 111.89 149.927 112.195 149.867 112.585L149.702 113.635H150.992C151.282 113.635 151.507 113.695 151.667 113.815C151.827 113.935 151.907 114.11 151.907 114.34C151.907 114.62 151.812 114.855 151.622 115.045C151.442 115.235 151.192 115.33 150.872 115.33H149.447L149.012 118.015C148.932 118.485 148.987 118.82 149.177 119.02C149.367 119.22 149.632 119.32 149.972 119.32C150.142 119.32 150.277 119.31 150.377 119.29C150.477 119.26 150.582 119.245 150.692 119.245C150.852 119.245 150.967 119.29 151.037 119.38C151.117 119.46 151.157 119.62 151.157 119.86C151.157 120.28 151.087 120.57 150.947 120.73C150.817 120.89 150.637 120.995 150.407 121.045C150.277 121.085 150.132 121.115 149.972 121.135C149.812 121.155 149.662 121.165 149.522 121.165ZM152.961 121.135C152.591 121.135 152.321 121.025 152.151 120.805C151.991 120.575 151.946 120.26 152.016 119.86L152.841 114.595C152.901 114.235 153.036 113.965 153.246 113.785C153.466 113.605 153.751 113.515 154.101 113.515C154.461 113.515 154.721 113.625 154.881 113.845C155.041 114.055 155.091 114.365 155.031 114.775L154.911 115.435H154.776C154.966 114.845 155.286 114.38 155.736 114.04C156.196 113.7 156.726 113.515 157.326 113.485C157.626 113.475 157.836 113.53 157.956 113.65C158.076 113.76 158.136 113.95 158.136 114.22C158.136 114.62 158.041 114.915 157.851 115.105C157.671 115.295 157.391 115.41 157.011 115.45L156.516 115.495C155.926 115.555 155.501 115.735 155.241 116.035C154.981 116.325 154.806 116.75 154.716 117.31L154.281 120.04C154.231 120.41 154.091 120.685 153.861 120.865C153.641 121.045 153.341 121.135 152.961 121.135ZM161.876 121.165C161.106 121.165 160.436 121.025 159.866 120.745C159.296 120.455 158.856 120.055 158.546 119.545C158.236 119.035 158.081 118.445 158.081 117.775C158.081 116.935 158.261 116.195 158.621 115.555C158.981 114.915 159.471 114.41 160.091 114.04C160.721 113.67 161.431 113.485 162.221 113.485C162.841 113.485 163.366 113.59 163.796 113.8C164.226 114.01 164.566 114.295 164.816 114.655C165.066 115.005 165.231 115.41 165.311 115.87C165.401 116.32 165.421 116.785 165.371 117.265C165.341 117.495 165.276 117.645 165.176 117.715C165.076 117.775 164.941 117.805 164.771 117.805H159.911L160.076 116.635H163.841L163.601 116.845C163.651 116.485 163.636 116.17 163.556 115.9C163.476 115.62 163.326 115.4 163.106 115.24C162.886 115.07 162.586 114.985 162.206 114.985C161.826 114.985 161.501 115.075 161.231 115.255C160.971 115.425 160.766 115.65 160.616 115.93C160.466 116.2 160.361 116.5 160.301 116.83L160.226 117.355C160.116 118.015 160.226 118.535 160.556 118.915C160.896 119.285 161.411 119.47 162.101 119.47C162.361 119.47 162.641 119.44 162.941 119.38C163.251 119.32 163.526 119.23 163.766 119.11C163.986 119 164.176 118.965 164.336 119.005C164.506 119.035 164.636 119.115 164.726 119.245C164.816 119.375 164.861 119.525 164.861 119.695C164.871 119.855 164.826 120.02 164.726 120.19C164.636 120.35 164.491 120.485 164.291 120.595C163.941 120.785 163.546 120.925 163.106 121.015C162.666 121.115 162.256 121.165 161.876 121.165ZM169.238 121.165C168.768 121.165 168.313 121.12 167.873 121.03C167.433 120.94 167.048 120.825 166.718 120.685C166.488 120.585 166.323 120.455 166.223 120.295C166.133 120.135 166.093 119.97 166.103 119.8C166.123 119.63 166.178 119.48 166.268 119.35C166.368 119.22 166.503 119.135 166.673 119.095C166.843 119.045 167.033 119.065 167.243 119.155C167.563 119.305 167.893 119.42 168.233 119.5C168.573 119.57 168.903 119.605 169.223 119.605C169.653 119.605 169.973 119.53 170.183 119.38C170.403 119.23 170.513 119.04 170.513 118.81C170.513 118.64 170.453 118.505 170.333 118.405C170.223 118.295 170.043 118.22 169.793 118.18L168.428 117.925C167.848 117.825 167.398 117.61 167.078 117.28C166.758 116.94 166.598 116.515 166.598 116.005C166.598 115.555 166.728 115.14 166.988 114.76C167.258 114.37 167.653 114.06 168.173 113.83C168.693 113.6 169.333 113.485 170.093 113.485C170.423 113.485 170.783 113.525 171.173 113.605C171.563 113.685 171.908 113.8 172.208 113.95C172.428 114.05 172.583 114.18 172.673 114.34C172.763 114.5 172.798 114.66 172.778 114.82C172.768 114.98 172.708 115.125 172.598 115.255C172.498 115.375 172.363 115.455 172.193 115.495C172.023 115.525 171.828 115.495 171.608 115.405C171.368 115.285 171.103 115.195 170.813 115.135C170.533 115.065 170.253 115.03 169.973 115.03C169.523 115.03 169.183 115.11 168.953 115.27C168.733 115.43 168.623 115.635 168.623 115.885C168.623 116.025 168.668 116.15 168.758 116.26C168.858 116.36 169.018 116.43 169.238 116.47L170.588 116.725C171.228 116.845 171.713 117.07 172.043 117.4C172.373 117.72 172.538 118.135 172.538 118.645C172.538 119.455 172.233 120.08 171.623 120.52C171.023 120.95 170.228 121.165 169.238 121.165Z" fill="black"/>
<path d="M213.985 122.165C213.025 122.165 212.17 121.985 211.42 121.625C210.67 121.255 210.08 120.715 209.65 120.005C209.22 119.285 209.005 118.39 209.005 117.32C209.005 116.47 209.135 115.68 209.395 114.95C209.655 114.21 210.03 113.565 210.52 113.015C211.02 112.465 211.63 112.035 212.35 111.725C213.08 111.415 213.91 111.26 214.84 111.26C215.36 111.26 215.875 111.325 216.385 111.455C216.895 111.585 217.355 111.78 217.765 112.04C217.985 112.17 218.125 112.335 218.185 112.535C218.255 112.735 218.265 112.94 218.215 113.15C218.175 113.35 218.09 113.53 217.96 113.69C217.83 113.85 217.67 113.955 217.48 114.005C217.3 114.055 217.105 114.025 216.895 113.915C216.505 113.685 216.14 113.53 215.8 113.45C215.47 113.36 215.13 113.315 214.78 113.315C214.06 113.315 213.455 113.49 212.965 113.84C212.475 114.18 212.105 114.65 211.855 115.25C211.605 115.84 211.48 116.505 211.48 117.245C211.48 117.905 211.58 118.45 211.78 118.88C211.98 119.3 212.285 119.61 212.695 119.81C213.105 120.01 213.62 120.11 214.24 120.11C214.55 120.11 214.86 120.075 215.17 120.005C215.48 119.925 215.795 119.8 216.115 119.63C216.355 119.51 216.57 119.475 216.76 119.525C216.96 119.565 217.12 119.665 217.24 119.825C217.36 119.975 217.435 120.15 217.465 120.35C217.495 120.55 217.465 120.745 217.375 120.935C217.285 121.125 217.125 121.285 216.895 121.415C216.475 121.665 216 121.855 215.47 121.985C214.94 122.105 214.445 122.165 213.985 122.165ZM220.811 122.165C220.351 122.165 219.931 122.06 219.551 121.85C219.181 121.63 218.881 121.345 218.651 120.995C218.431 120.645 218.321 120.265 218.321 119.855C218.321 119.335 218.466 118.91 218.756 118.58C219.046 118.25 219.496 118.01 220.106 117.86C220.716 117.7 221.496 117.62 222.446 117.62H223.631L223.451 118.79H222.491C222.001 118.79 221.611 118.82 221.321 118.88C221.031 118.93 220.821 119.025 220.691 119.165C220.561 119.295 220.496 119.475 220.496 119.705C220.496 120.005 220.596 120.24 220.796 120.41C221.006 120.57 221.266 120.65 221.576 120.65C221.866 120.65 222.121 120.59 222.341 120.47C222.571 120.35 222.761 120.18 222.911 119.96C223.071 119.74 223.171 119.48 223.211 119.18L223.496 117.425C223.566 117.015 223.491 116.7 223.271 116.48C223.061 116.26 222.701 116.15 222.191 116.15C221.881 116.15 221.576 116.18 221.276 116.24C220.986 116.3 220.681 116.4 220.361 116.54C220.131 116.62 219.931 116.635 219.761 116.585C219.591 116.535 219.451 116.445 219.341 116.315C219.241 116.185 219.191 116.035 219.191 115.865C219.201 115.685 219.266 115.515 219.386 115.355C219.506 115.195 219.701 115.06 219.971 114.95C220.401 114.78 220.831 114.66 221.261 114.59C221.691 114.52 222.106 114.485 222.506 114.485C223.346 114.485 224.006 114.64 224.486 114.95C224.966 115.26 225.291 115.68 225.461 116.21C225.631 116.73 225.661 117.315 225.551 117.965L225.071 121.01C225.021 121.38 224.891 121.66 224.681 121.85C224.471 122.04 224.196 122.135 223.856 122.135C223.526 122.135 223.281 122.03 223.121 121.82C222.961 121.61 222.916 121.3 222.986 120.89L223.106 120.095L223.181 120.5C223.031 120.88 222.831 121.195 222.581 121.445C222.341 121.695 222.071 121.88 221.771 122C221.471 122.11 221.151 122.165 220.811 122.165ZM229.745 122.165C229.275 122.165 228.82 122.12 228.38 122.03C227.94 121.94 227.555 121.825 227.225 121.685C226.995 121.585 226.83 121.455 226.73 121.295C226.64 121.135 226.6 120.97 226.61 120.8C226.63 120.63 226.685 120.48 226.775 120.35C226.875 120.22 227.01 120.135 227.18 120.095C227.35 120.045 227.54 120.065 227.75 120.155C228.07 120.305 228.4 120.42 228.74 120.5C229.08 120.57 229.41 120.605 229.73 120.605C230.16 120.605 230.48 120.53 230.69 120.38C230.91 120.23 231.02 120.04 231.02 119.81C231.02 119.64 230.96 119.505 230.84 119.405C230.73 119.295 230.55 119.22 230.3 119.18L228.935 118.925C228.355 118.825 227.905 118.61 227.585 118.28C227.265 117.94 227.105 117.515 227.105 117.005C227.105 116.555 227.235 116.14 227.495 115.76C227.765 115.37 228.16 115.06 228.68 114.83C229.2 114.6 229.84 114.485 230.6 114.485C230.93 114.485 231.29 114.525 231.68 114.605C232.07 114.685 232.415 114.8 232.715 114.95C232.935 115.05 233.09 115.18 233.18 115.34C233.27 115.5 233.305 115.66 233.285 115.82C233.275 115.98 233.215 116.125 233.105 116.255C233.005 116.375 232.87 116.455 232.7 116.495C232.53 116.525 232.335 116.495 232.115 116.405C231.875 116.285 231.61 116.195 231.32 116.135C231.04 116.065 230.76 116.03 230.48 116.03C230.03 116.03 229.69 116.11 229.46 116.27C229.24 116.43 229.13 116.635 229.13 116.885C229.13 117.025 229.175 117.15 229.265 117.26C229.365 117.36 229.525 117.43 229.745 117.47L231.095 117.725C231.735 117.845 232.22 118.07 232.55 118.4C232.88 118.72 233.045 119.135 233.045 119.645C233.045 120.455 232.74 121.08 232.13 121.52C231.53 121.95 230.735 122.165 229.745 122.165ZM237.818 122.165C237.058 122.165 236.408 122.025 235.868 121.745C235.328 121.465 234.913 121.07 234.623 120.56C234.343 120.05 234.203 119.455 234.203 118.775C234.203 118.095 234.313 117.49 234.533 116.96C234.763 116.42 235.073 115.97 235.463 115.61C235.863 115.24 236.313 114.96 236.813 114.77C237.323 114.58 237.858 114.485 238.418 114.485C239.178 114.485 239.828 114.625 240.368 114.905C240.908 115.175 241.323 115.565 241.613 116.075C241.903 116.585 242.048 117.18 242.048 117.86C242.048 118.55 241.933 119.16 241.703 119.69C241.473 120.22 241.158 120.67 240.758 121.04C240.368 121.41 239.918 121.69 239.408 121.88C238.908 122.07 238.378 122.165 237.818 122.165ZM237.878 120.47C238.278 120.47 238.613 120.355 238.883 120.125C239.163 119.885 239.378 119.565 239.528 119.165C239.688 118.755 239.768 118.295 239.768 117.785C239.768 117.265 239.643 116.87 239.393 116.6C239.143 116.32 238.803 116.18 238.373 116.18C237.983 116.18 237.643 116.295 237.353 116.525C237.073 116.755 236.858 117.075 236.708 117.485C236.558 117.885 236.483 118.34 236.483 118.85C236.483 119.37 236.603 119.77 236.843 120.05C237.093 120.33 237.438 120.47 237.878 120.47ZM245.961 122.165C245.491 122.165 245.036 122.12 244.596 122.03C244.156 121.94 243.771 121.825 243.441 121.685C243.211 121.585 243.046 121.455 242.946 121.295C242.856 121.135 242.816 120.97 242.826 120.8C242.846 120.63 242.901 120.48 242.991 120.35C243.091 120.22 243.226 120.135 243.396 120.095C243.566 120.045 243.756 120.065 243.966 120.155C244.286 120.305 244.616 120.42 244.956 120.5C245.296 120.57 245.626 120.605 245.946 120.605C246.376 120.605 246.696 120.53 246.906 120.38C247.126 120.23 247.236 120.04 247.236 119.81C247.236 119.64 247.176 119.505 247.056 119.405C246.946 119.295 246.766 119.22 246.516 119.18L245.151 118.925C244.571 118.825 244.121 118.61 243.801 118.28C243.481 117.94 243.321 117.515 243.321 117.005C243.321 116.555 243.451 116.14 243.711 115.76C243.981 115.37 244.376 115.06 244.896 114.83C245.416 114.6 246.056 114.485 246.816 114.485C247.146 114.485 247.506 114.525 247.896 114.605C248.286 114.685 248.631 114.8 248.931 114.95C249.151 115.05 249.306 115.18 249.396 115.34C249.486 115.5 249.521 115.66 249.501 115.82C249.491 115.98 249.431 116.125 249.321 116.255C249.221 116.375 249.086 116.455 248.916 116.495C248.746 116.525 248.551 116.495 248.331 116.405C248.091 116.285 247.826 116.195 247.536 116.135C247.256 116.065 246.976 116.03 246.696 116.03C246.246 116.03 245.906 116.11 245.676 116.27C245.456 116.43 245.346 116.635 245.346 116.885C245.346 117.025 245.391 117.15 245.481 117.26C245.581 117.36 245.741 117.43 245.961 117.47L247.311 117.725C247.951 117.845 248.436 118.07 248.766 118.4C249.096 118.72 249.261 119.135 249.261 119.645C249.261 120.455 248.956 121.08 248.346 121.52C247.746 121.95 246.951 122.165 245.961 122.165ZM257.338 122.165C256.788 122.165 256.303 122.035 255.883 121.775C255.473 121.505 255.153 121.135 254.923 120.665C254.703 120.185 254.593 119.62 254.593 118.97C254.593 118.11 254.743 117.345 255.043 116.675C255.343 115.995 255.773 115.46 256.333 115.07C256.893 114.68 257.548 114.485 258.298 114.485C258.848 114.485 259.328 114.615 259.738 114.875C260.158 115.125 260.453 115.495 260.623 115.985L260.503 115.97L261.058 112.385C261.118 112.015 261.258 111.74 261.478 111.56C261.698 111.38 261.993 111.29 262.363 111.29C262.723 111.29 262.983 111.405 263.143 111.635C263.303 111.855 263.353 112.175 263.293 112.595L261.958 120.98C261.908 121.36 261.773 121.65 261.553 121.85C261.333 122.04 261.038 122.135 260.668 122.135C260.318 122.135 260.063 122.015 259.903 121.775C259.753 121.525 259.713 121.195 259.783 120.785L259.888 120.125V120.725C259.608 121.165 259.248 121.515 258.808 121.775C258.368 122.035 257.878 122.165 257.338 122.165ZM258.253 120.47C258.653 120.47 258.993 120.35 259.273 120.11C259.553 119.87 259.768 119.55 259.918 119.15C260.068 118.75 260.143 118.295 260.143 117.785C260.143 117.265 260.018 116.87 259.768 116.6C259.528 116.32 259.193 116.18 258.763 116.18C258.363 116.18 258.023 116.295 257.743 116.525C257.463 116.755 257.248 117.075 257.098 117.485C256.948 117.885 256.873 118.34 256.873 118.85C256.873 119.37 256.993 119.77 257.233 120.05C257.483 120.33 257.823 120.47 258.253 120.47ZM267.559 122.165C266.789 122.165 266.119 122.025 265.549 121.745C264.979 121.455 264.539 121.055 264.229 120.545C263.919 120.035 263.764 119.445 263.764 118.775C263.764 117.935 263.944 117.195 264.304 116.555C264.664 115.915 265.154 115.41 265.774 115.04C266.404 114.67 267.114 114.485 267.904 114.485C268.524 114.485 269.049 114.59 269.479 114.8C269.909 115.01 270.249 115.295 270.499 115.655C270.749 116.005 270.914 116.41 270.994 116.87C271.084 117.32 271.104 117.785 271.054 118.265C271.024 118.495 270.959 118.645 270.859 118.715C270.759 118.775 270.624 118.805 270.454 118.805H265.594L265.759 117.635H269.524L269.284 117.845C269.334 117.485 269.319 117.17 269.239 116.9C269.159 116.62 269.009 116.4 268.789 116.24C268.569 116.07 268.269 115.985 267.889 115.985C267.509 115.985 267.184 116.075 266.914 116.255C266.654 116.425 266.449 116.65 266.299 116.93C266.149 117.2 266.044 117.5 265.984 117.83L265.909 118.355C265.799 119.015 265.909 119.535 266.239 119.915C266.579 120.285 267.094 120.47 267.784 120.47C268.044 120.47 268.324 120.44 268.624 120.38C268.934 120.32 269.209 120.23 269.449 120.11C269.669 120 269.859 119.965 270.019 120.005C270.189 120.035 270.319 120.115 270.409 120.245C270.499 120.375 270.544 120.525 270.544 120.695C270.554 120.855 270.509 121.02 270.409 121.19C270.319 121.35 270.174 121.485 269.974 121.595C269.624 121.785 269.229 121.925 268.789 122.015C268.349 122.115 267.939 122.165 267.559 122.165ZM277.505 122C277.075 122 276.765 121.89 276.575 121.67C276.385 121.44 276.32 121.115 276.38 120.695L277.67 112.55C277.73 112.18 277.87 111.9 278.09 111.71C278.31 111.52 278.605 111.425 278.975 111.425H284.135C284.445 111.425 284.68 111.49 284.84 111.62C285.01 111.74 285.095 111.92 285.095 112.16C285.095 112.5 284.995 112.765 284.795 112.955C284.605 113.145 284.345 113.24 284.015 113.24H279.785L279.395 115.715H283.13C283.44 115.715 283.675 115.78 283.835 115.91C283.995 116.04 284.075 116.22 284.075 116.45C284.075 116.79 283.975 117.06 283.775 117.26C283.585 117.45 283.33 117.545 283.01 117.545H279.11L278.69 120.185H282.74C283.05 120.185 283.285 120.25 283.445 120.38C283.615 120.5 283.7 120.68 283.7 120.92C283.7 121.26 283.6 121.525 283.4 121.715C283.21 121.905 282.95 122 282.62 122H277.505ZM288.149 122.165C287.679 122.165 287.224 122.12 286.784 122.03C286.344 121.94 285.959 121.825 285.629 121.685C285.399 121.585 285.234 121.455 285.134 121.295C285.044 121.135 285.004 120.97 285.014 120.8C285.034 120.63 285.089 120.48 285.179 120.35C285.279 120.22 285.414 120.135 285.584 120.095C285.754 120.045 285.944 120.065 286.154 120.155C286.474 120.305 286.804 120.42 287.144 120.5C287.484 120.57 287.814 120.605 288.134 120.605C288.564 120.605 288.884 120.53 289.094 120.38C289.314 120.23 289.424 120.04 289.424 119.81C289.424 119.64 289.364 119.505 289.244 119.405C289.134 119.295 288.954 119.22 288.704 119.18L287.339 118.925C286.759 118.825 286.309 118.61 285.989 118.28C285.669 117.94 285.509 117.515 285.509 117.005C285.509 116.555 285.639 116.14 285.899 115.76C286.169 115.37 286.564 115.06 287.084 114.83C287.604 114.6 288.244 114.485 289.004 114.485C289.334 114.485 289.694 114.525 290.084 114.605C290.474 114.685 290.819 114.8 291.119 114.95C291.339 115.05 291.494 115.18 291.584 115.34C291.674 115.5 291.709 115.66 291.689 115.82C291.679 115.98 291.619 116.125 291.509 116.255C291.409 116.375 291.274 116.455 291.104 116.495C290.934 116.525 290.739 116.495 290.519 116.405C290.279 116.285 290.014 116.195 289.724 116.135C289.444 116.065 289.164 116.03 288.884 116.03C288.434 116.03 288.094 116.11 287.864 116.27C287.644 116.43 287.534 116.635 287.534 116.885C287.534 117.025 287.579 117.15 287.669 117.26C287.769 117.36 287.929 117.43 288.149 117.47L289.499 117.725C290.139 117.845 290.624 118.07 290.954 118.4C291.284 118.72 291.449 119.135 291.449 119.645C291.449 120.455 291.144 121.08 290.534 121.52C289.934 121.95 289.139 122.165 288.149 122.165ZM296.088 122.165C295.378 122.165 294.798 122.035 294.348 121.775C293.908 121.515 293.598 121.16 293.418 120.71C293.238 120.25 293.198 119.725 293.298 119.135L293.748 116.33H293.238C292.958 116.33 292.738 116.27 292.578 116.15C292.418 116.02 292.338 115.84 292.338 115.61C292.338 115.3 292.438 115.06 292.638 114.89C292.848 114.72 293.123 114.635 293.463 114.635H294.003L294.213 113.39C294.273 113.04 294.403 112.78 294.603 112.61C294.803 112.43 295.078 112.34 295.428 112.34C295.818 112.34 296.098 112.45 296.268 112.67C296.438 112.89 296.493 113.195 296.433 113.585L296.268 114.635H297.558C297.848 114.635 298.073 114.695 298.233 114.815C298.393 114.935 298.473 115.11 298.473 115.34C298.473 115.62 298.378 115.855 298.188 116.045C298.008 116.235 297.758 116.33 297.438 116.33H296.013L295.578 119.015C295.498 119.485 295.553 119.82 295.743 120.02C295.933 120.22 296.198 120.32 296.538 120.32C296.708 120.32 296.843 120.31 296.943 120.29C297.043 120.26 297.148 120.245 297.258 120.245C297.418 120.245 297.533 120.29 297.603 120.38C297.683 120.46 297.723 120.62 297.723 120.86C297.723 121.28 297.653 121.57 297.513 121.73C297.383 121.89 297.203 121.995 296.973 122.045C296.843 122.085 296.698 122.115 296.538 122.135C296.378 122.155 296.228 122.165 296.088 122.165ZM299.528 122.135C299.158 122.135 298.888 122.025 298.718 121.805C298.558 121.575 298.513 121.26 298.583 120.86L299.408 115.595C299.468 115.235 299.603 114.965 299.813 114.785C300.033 114.605 300.318 114.515 300.668 114.515C301.028 114.515 301.288 114.625 301.448 114.845C301.608 115.055 301.658 115.365 301.598 115.775L301.478 116.435H301.343C301.533 115.845 301.853 115.38 302.303 115.04C302.763 114.7 303.293 114.515 303.893 114.485C304.193 114.475 304.403 114.53 304.523 114.65C304.643 114.76 304.703 114.95 304.703 115.22C304.703 115.62 304.608 115.915 304.418 116.105C304.238 116.295 303.958 116.41 303.578 116.45L303.083 116.495C302.493 116.555 302.068 116.735 301.808 117.035C301.548 117.325 301.373 117.75 301.283 118.31L300.848 121.04C300.798 121.41 300.658 121.685 300.428 121.865C300.208 122.045 299.908 122.135 299.528 122.135ZM308.442 122.165C307.672 122.165 307.002 122.025 306.432 121.745C305.862 121.455 305.422 121.055 305.112 120.545C304.802 120.035 304.647 119.445 304.647 118.775C304.647 117.935 304.827 117.195 305.187 116.555C305.547 115.915 306.037 115.41 306.657 115.04C307.287 114.67 307.997 114.485 308.787 114.485C309.407 114.485 309.932 114.59 310.362 114.8C310.792 115.01 311.132 115.295 311.382 115.655C311.632 116.005 311.797 116.41 311.877 116.87C311.967 117.32 311.987 117.785 311.937 118.265C311.907 118.495 311.842 118.645 311.742 118.715C311.642 118.775 311.507 118.805 311.337 118.805H306.477L306.642 117.635H310.407L310.167 117.845C310.217 117.485 310.202 117.17 310.122 116.9C310.042 116.62 309.892 116.4 309.672 116.24C309.452 116.07 309.152 115.985 308.772 115.985C308.392 115.985 308.067 116.075 307.797 116.255C307.537 116.425 307.332 116.65 307.182 116.93C307.032 117.2 306.927 117.5 306.867 117.83L306.792 118.355C306.682 119.015 306.792 119.535 307.122 119.915C307.462 120.285 307.977 120.47 308.667 120.47C308.927 120.47 309.207 120.44 309.507 120.38C309.817 120.32 310.092 120.23 310.332 120.11C310.552 120 310.742 119.965 310.902 120.005C311.072 120.035 311.202 120.115 311.292 120.245C311.382 120.375 311.427 120.525 311.427 120.695C311.437 120.855 311.392 121.02 311.292 121.19C311.202 121.35 311.057 121.485 310.857 121.595C310.507 121.785 310.112 121.925 309.672 122.015C309.232 122.115 308.822 122.165 308.442 122.165ZM315.805 122.165C315.335 122.165 314.88 122.12 314.44 122.03C314 121.94 313.615 121.825 313.285 121.685C313.055 121.585 312.89 121.455 312.79 121.295C312.7 121.135 312.66 120.97 312.67 120.8C312.69 120.63 312.745 120.48 312.835 120.35C312.935 120.22 313.07 120.135 313.24 120.095C313.41 120.045 313.6 120.065 313.81 120.155C314.13 120.305 314.46 120.42 314.8 120.5C315.14 120.57 315.47 120.605 315.79 120.605C316.22 120.605 316.54 120.53 316.75 120.38C316.97 120.23 317.08 120.04 317.08 119.81C317.08 119.64 317.02 119.505 316.9 119.405C316.79 119.295 316.61 119.22 316.36 119.18L314.995 118.925C314.415 118.825 313.965 118.61 313.645 118.28C313.325 117.94 313.165 117.515 313.165 117.005C313.165 116.555 313.295 116.14 313.555 115.76C313.825 115.37 314.22 115.06 314.74 114.83C315.26 114.6 315.9 114.485 316.66 114.485C316.99 114.485 317.35 114.525 317.74 114.605C318.13 114.685 318.475 114.8 318.775 114.95C318.995 115.05 319.15 115.18 319.24 115.34C319.33 115.5 319.365 115.66 319.345 115.82C319.335 115.98 319.275 116.125 319.165 116.255C319.065 116.375 318.93 116.455 318.76 116.495C318.59 116.525 318.395 116.495 318.175 116.405C317.935 116.285 317.67 116.195 317.38 116.135C317.1 116.065 316.82 116.03 316.54 116.03C316.09 116.03 315.75 116.11 315.52 116.27C315.3 116.43 315.19 116.635 315.19 116.885C315.19 117.025 315.235 117.15 315.325 117.26C315.425 117.36 315.585 117.43 315.805 117.47L317.155 117.725C317.795 117.845 318.28 118.07 318.61 118.4C318.94 118.72 319.105 119.135 319.105 119.645C319.105 120.455 318.8 121.08 318.19 121.52C317.59 121.95 316.795 122.165 315.805 122.165Z" fill="black"/>
<path d="M366.65 121.135C366.28 121.135 366.01 121.015 365.84 120.775C365.67 120.525 365.615 120.19 365.675 119.77L366.98 111.58C367.03 111.19 367.17 110.9 367.4 110.71C367.63 110.52 367.94 110.425 368.33 110.425H371.435C372.665 110.425 373.59 110.69 374.21 111.22C374.83 111.74 375.14 112.475 375.14 113.425C375.14 114.615 374.775 115.54 374.045 116.2C373.315 116.86 372.255 117.19 370.865 117.19H368.405L367.97 119.965C367.91 120.355 367.77 120.65 367.55 120.85C367.33 121.04 367.03 121.135 366.65 121.135ZM368.705 115.39H370.955C371.595 115.39 372.08 115.24 372.41 114.94C372.74 114.63 372.905 114.19 372.905 113.62C372.905 113.14 372.76 112.79 372.47 112.57C372.18 112.35 371.74 112.24 371.15 112.24H369.2L368.705 115.39ZM376.239 121.135C375.869 121.135 375.599 121.025 375.429 120.805C375.269 120.575 375.224 120.26 375.294 119.86L376.119 114.595C376.179 114.235 376.314 113.965 376.524 113.785C376.744 113.605 377.029 113.515 377.379 113.515C377.739 113.515 377.999 113.625 378.159 113.845C378.319 114.055 378.369 114.365 378.309 114.775L378.189 115.435H378.054C378.244 114.845 378.564 114.38 379.014 114.04C379.474 113.7 380.004 113.515 380.604 113.485C380.904 113.475 381.114 113.53 381.234 113.65C381.354 113.76 381.414 113.95 381.414 114.22C381.414 114.62 381.319 114.915 381.129 115.105C380.949 115.295 380.669 115.41 380.289 115.45L379.794 115.495C379.204 115.555 378.779 115.735 378.519 116.035C378.259 116.325 378.084 116.75 377.994 117.31L377.559 120.04C377.509 120.41 377.369 120.685 377.139 120.865C376.919 121.045 376.619 121.135 376.239 121.135ZM385.154 121.165C384.384 121.165 383.714 121.025 383.144 120.745C382.574 120.455 382.134 120.055 381.824 119.545C381.514 119.035 381.359 118.445 381.359 117.775C381.359 116.935 381.539 116.195 381.899 115.555C382.259 114.915 382.749 114.41 383.369 114.04C383.999 113.67 384.709 113.485 385.499 113.485C386.119 113.485 386.644 113.59 387.074 113.8C387.504 114.01 387.844 114.295 388.094 114.655C388.344 115.005 388.509 115.41 388.589 115.87C388.679 116.32 388.699 116.785 388.649 117.265C388.619 117.495 388.554 117.645 388.454 117.715C388.354 117.775 388.219 117.805 388.049 117.805H383.189L383.354 116.635H387.119L386.879 116.845C386.929 116.485 386.914 116.17 386.834 115.9C386.754 115.62 386.604 115.4 386.384 115.24C386.164 115.07 385.864 114.985 385.484 114.985C385.104 114.985 384.779 115.075 384.509 115.255C384.249 115.425 384.044 115.65 383.894 115.93C383.744 116.2 383.639 116.5 383.579 116.83L383.504 117.355C383.394 118.015 383.504 118.535 383.834 118.915C384.174 119.285 384.689 119.47 385.379 119.47C385.639 119.47 385.919 119.44 386.219 119.38C386.529 119.32 386.804 119.23 387.044 119.11C387.264 119 387.454 118.965 387.614 119.005C387.784 119.035 387.914 119.115 388.004 119.245C388.094 119.375 388.139 119.525 388.139 119.695C388.149 119.855 388.104 120.02 388.004 120.19C387.914 120.35 387.769 120.485 387.569 120.595C387.219 120.785 386.824 120.925 386.384 121.015C385.944 121.115 385.534 121.165 385.154 121.165ZM392.322 121.165C391.772 121.165 391.287 121.035 390.867 120.775C390.457 120.505 390.137 120.135 389.907 119.665C389.687 119.185 389.577 118.62 389.577 117.97C389.577 117.11 389.727 116.345 390.027 115.675C390.327 114.995 390.757 114.46 391.317 114.07C391.877 113.68 392.532 113.485 393.282 113.485C393.832 113.485 394.312 113.615 394.722 113.875C395.142 114.125 395.437 114.495 395.607 114.985L395.487 114.97L396.042 111.385C396.102 111.015 396.242 110.74 396.462 110.56C396.682 110.38 396.977 110.29 397.347 110.29C397.707 110.29 397.967 110.405 398.127 110.635C398.287 110.855 398.337 111.175 398.277 111.595L396.942 119.98C396.892 120.36 396.757 120.65 396.537 120.85C396.317 121.04 396.022 121.135 395.652 121.135C395.302 121.135 395.047 121.015 394.887 120.775C394.737 120.525 394.697 120.195 394.767 119.785L394.872 119.125V119.725C394.592 120.165 394.232 120.515 393.792 120.775C393.352 121.035 392.862 121.165 392.322 121.165ZM393.237 119.47C393.637 119.47 393.977 119.35 394.257 119.11C394.537 118.87 394.752 118.55 394.902 118.15C395.052 117.75 395.127 117.295 395.127 116.785C395.127 116.265 395.002 115.87 394.752 115.6C394.512 115.32 394.177 115.18 393.747 115.18C393.347 115.18 393.007 115.295 392.727 115.525C392.447 115.755 392.232 116.075 392.082 116.485C391.932 116.885 391.857 117.34 391.857 117.85C391.857 118.37 391.977 118.77 392.217 119.05C392.467 119.33 392.807 119.47 393.237 119.47ZM399.647 121.135C399.297 121.135 399.037 121.02 398.867 120.79C398.707 120.55 398.662 120.225 398.732 119.815L399.557 114.64C399.607 114.26 399.742 113.98 399.962 113.8C400.182 113.61 400.482 113.515 400.862 113.515C401.212 113.515 401.467 113.63 401.627 113.86C401.787 114.09 401.837 114.415 401.777 114.835L400.952 120.01C400.892 120.38 400.757 120.66 400.547 120.85C400.337 121.04 400.037 121.135 399.647 121.135ZM401.072 112.285C400.672 112.285 400.372 112.19 400.172 112C399.982 111.81 399.907 111.54 399.947 111.19C400.007 110.8 400.162 110.51 400.412 110.32C400.662 110.12 401.002 110.02 401.432 110.02C401.832 110.02 402.132 110.115 402.332 110.305C402.532 110.495 402.602 110.77 402.542 111.13C402.492 111.51 402.342 111.8 402.092 112C401.842 112.19 401.502 112.285 401.072 112.285ZM406.436 121.165C405.616 121.165 404.931 121.025 404.381 120.745C403.841 120.455 403.436 120.055 403.166 119.545C402.896 119.025 402.761 118.43 402.761 117.76C402.761 117.21 402.846 116.68 403.016 116.17C403.186 115.66 403.446 115.205 403.796 114.805C404.156 114.395 404.606 114.075 405.146 113.845C405.696 113.605 406.336 113.485 407.066 113.485C407.416 113.485 407.741 113.52 408.041 113.59C408.351 113.65 408.641 113.74 408.911 113.86C409.151 113.96 409.321 114.09 409.421 114.25C409.521 114.41 409.561 114.58 409.541 114.76C409.531 114.94 409.476 115.105 409.376 115.255C409.286 115.395 409.161 115.495 409.001 115.555C408.841 115.615 408.666 115.6 408.476 115.51C408.256 115.4 408.046 115.325 407.846 115.285C407.646 115.235 407.441 115.21 407.231 115.21C406.831 115.21 406.491 115.285 406.211 115.435C405.941 115.575 405.721 115.77 405.551 116.02C405.391 116.26 405.271 116.53 405.191 116.83C405.111 117.12 405.071 117.42 405.071 117.73C405.071 118.24 405.201 118.65 405.461 118.96C405.731 119.27 406.171 119.425 406.781 119.425C406.931 119.425 407.106 119.405 407.306 119.365C407.516 119.315 407.731 119.24 407.951 119.14C408.111 119.07 408.261 119.065 408.401 119.125C408.551 119.175 408.671 119.27 408.761 119.41C408.851 119.54 408.901 119.69 408.911 119.86C408.931 120.02 408.891 120.18 408.791 120.34C408.701 120.5 408.546 120.635 408.326 120.745C408.076 120.875 407.771 120.975 407.411 121.045C407.061 121.125 406.736 121.165 406.436 121.165ZM413.452 121.165C412.632 121.165 411.947 121.025 411.397 120.745C410.857 120.455 410.452 120.055 410.182 119.545C409.912 119.025 409.777 118.43 409.777 117.76C409.777 117.21 409.862 116.68 410.032 116.17C410.202 115.66 410.462 115.205 410.812 114.805C411.172 114.395 411.622 114.075 412.162 113.845C412.712 113.605 413.352 113.485 414.082 113.485C414.432 113.485 414.757 113.52 415.057 113.59C415.367 113.65 415.657 113.74 415.927 113.86C416.167 113.96 416.337 114.09 416.437 114.25C416.537 114.41 416.577 114.58 416.557 114.76C416.547 114.94 416.492 115.105 416.392 115.255C416.302 115.395 416.177 115.495 416.017 115.555C415.857 115.615 415.682 115.6 415.492 115.51C415.272 115.4 415.062 115.325 414.862 115.285C414.662 115.235 414.457 115.21 414.247 115.21C413.847 115.21 413.507 115.285 413.227 115.435C412.957 115.575 412.737 115.77 412.567 116.02C412.407 116.26 412.287 116.53 412.207 116.83C412.127 117.12 412.087 117.42 412.087 117.73C412.087 118.24 412.217 118.65 412.477 118.96C412.747 119.27 413.187 119.425 413.797 119.425C413.947 119.425 414.122 119.405 414.322 119.365C414.532 119.315 414.747 119.24 414.967 119.14C415.127 119.07 415.277 119.065 415.417 119.125C415.567 119.175 415.687 119.27 415.777 119.41C415.867 119.54 415.917 119.69 415.927 119.86C415.947 120.02 415.907 120.18 415.807 120.34C415.717 120.5 415.562 120.635 415.342 120.745C415.092 120.875 414.787 120.975 414.427 121.045C414.077 121.125 413.752 121.165 413.452 121.165ZM417.84 121.135C417.49 121.135 417.23 121.02 417.06 120.79C416.9 120.55 416.855 120.225 416.925 119.815L417.75 114.64C417.8 114.26 417.935 113.98 418.155 113.8C418.375 113.61 418.675 113.515 419.055 113.515C419.405 113.515 419.66 113.63 419.82 113.86C419.98 114.09 420.03 114.415 419.97 114.835L419.145 120.01C419.085 120.38 418.95 120.66 418.74 120.85C418.53 121.04 418.23 121.135 417.84 121.135ZM419.265 112.285C418.865 112.285 418.565 112.19 418.365 112C418.175 111.81 418.1 111.54 418.14 111.19C418.2 110.8 418.355 110.51 418.605 110.32C418.855 110.12 419.195 110.02 419.625 110.02C420.025 110.02 420.325 110.115 420.525 110.305C420.725 110.495 420.795 110.77 420.735 111.13C420.685 111.51 420.535 111.8 420.285 112C420.035 112.19 419.695 112.285 419.265 112.285ZM424.569 121.165C423.809 121.165 423.159 121.025 422.619 120.745C422.079 120.465 421.664 120.07 421.374 119.56C421.094 119.05 420.954 118.455 420.954 117.775C420.954 117.095 421.064 116.49 421.284 115.96C421.514 115.42 421.824 114.97 422.214 114.61C422.614 114.24 423.064 113.96 423.564 113.77C424.074 113.58 424.609 113.485 425.169 113.485C425.929 113.485 426.579 113.625 427.119 113.905C427.659 114.175 428.074 114.565 428.364 115.075C428.654 115.585 428.799 116.18 428.799 116.86C428.799 117.55 428.684 118.16 428.454 118.69C428.224 119.22 427.909 119.67 427.509 120.04C427.119 120.41 426.669 120.69 426.159 120.88C425.659 121.07 425.129 121.165 424.569 121.165ZM424.629 119.47C425.029 119.47 425.364 119.355 425.634 119.125C425.914 118.885 426.129 118.565 426.279 118.165C426.439 117.755 426.519 117.295 426.519 116.785C426.519 116.265 426.394 115.87 426.144 115.6C425.894 115.32 425.554 115.18 425.124 115.18C424.734 115.18 424.394 115.295 424.104 115.525C423.824 115.755 423.609 116.075 423.459 116.485C423.309 116.885 423.234 117.34 423.234 117.85C423.234 118.37 423.354 118.77 423.594 119.05C423.844 119.33 424.189 119.47 424.629 119.47ZM430.702 121.105C430.352 121.105 430.092 120.99 429.922 120.76C429.762 120.52 429.717 120.195 429.787 119.785L430.597 114.64C430.657 114.26 430.797 113.98 431.017 113.8C431.237 113.61 431.527 113.515 431.887 113.515C432.227 113.515 432.477 113.62 432.637 113.83C432.807 114.03 432.857 114.33 432.787 114.73L432.667 115.525L432.637 115.03C432.887 114.53 433.237 114.15 433.687 113.89C434.137 113.62 434.667 113.485 435.277 113.485C435.817 113.485 436.272 113.595 436.642 113.815C437.012 114.035 437.272 114.375 437.422 114.835C437.582 115.295 437.607 115.89 437.497 116.62L436.957 119.98C436.907 120.36 436.772 120.645 436.552 120.835C436.332 121.015 436.032 121.105 435.652 121.105C435.302 121.105 435.042 120.99 434.872 120.76C434.712 120.52 434.662 120.195 434.722 119.785L435.217 116.665C435.297 116.185 435.262 115.83 435.112 115.6C434.972 115.36 434.702 115.24 434.302 115.24C433.792 115.24 433.382 115.405 433.072 115.735C432.762 116.055 432.562 116.5 432.472 117.07L432.007 119.98C431.897 120.73 431.462 121.105 430.702 121.105ZM442.503 121.165C441.733 121.165 441.063 121.025 440.493 120.745C439.923 120.455 439.483 120.055 439.173 119.545C438.863 119.035 438.708 118.445 438.708 117.775C438.708 116.935 438.888 116.195 439.248 115.555C439.608 114.915 440.098 114.41 440.718 114.04C441.348 113.67 442.058 113.485 442.848 113.485C443.468 113.485 443.993 113.59 444.423 113.8C444.853 114.01 445.193 114.295 445.443 114.655C445.693 115.005 445.858 115.41 445.938 115.87C446.028 116.32 446.048 116.785 445.998 117.265C445.968 117.495 445.903 117.645 445.803 117.715C445.703 117.775 445.568 117.805 445.398 117.805H440.538L440.703 116.635H444.468L444.228 116.845C444.278 116.485 444.263 116.17 444.183 115.9C444.103 115.62 443.953 115.4 443.733 115.24C443.513 115.07 443.213 114.985 442.833 114.985C442.453 114.985 442.128 115.075 441.858 115.255C441.598 115.425 441.393 115.65 441.243 115.93C441.093 116.2 440.988 116.5 440.928 116.83L440.853 117.355C440.743 118.015 440.853 118.535 441.183 118.915C441.523 119.285 442.038 119.47 442.728 119.47C442.988 119.47 443.268 119.44 443.568 119.38C443.878 119.32 444.153 119.23 444.393 119.11C444.613 119 444.803 118.965 444.963 119.005C445.133 119.035 445.263 119.115 445.353 119.245C445.443 119.375 445.488 119.525 445.488 119.695C445.498 119.855 445.453 120.02 445.353 120.19C445.263 120.35 445.118 120.485 444.918 120.595C444.568 120.785 444.173 120.925 443.733 121.015C443.293 121.115 442.883 121.165 442.503 121.165ZM449.865 121.165C449.395 121.165 448.94 121.12 448.5 121.03C448.06 120.94 447.675 120.825 447.345 120.685C447.115 120.585 446.95 120.455 446.85 120.295C446.76 120.135 446.72 119.97 446.73 119.8C446.75 119.63 446.805 119.48 446.895 119.35C446.995 119.22 447.13 119.135 447.3 119.095C447.47 119.045 447.66 119.065 447.87 119.155C448.19 119.305 448.52 119.42 448.86 119.5C449.2 119.57 449.53 119.605 449.85 119.605C450.28 119.605 450.6 119.53 450.81 119.38C451.03 119.23 451.14 119.04 451.14 118.81C451.14 118.64 451.08 118.505 450.96 118.405C450.85 118.295 450.67 118.22 450.42 118.18L449.055 117.925C448.475 117.825 448.025 117.61 447.705 117.28C447.385 116.94 447.225 116.515 447.225 116.005C447.225 115.555 447.355 115.14 447.615 114.76C447.885 114.37 448.28 114.06 448.8 113.83C449.32 113.6 449.96 113.485 450.72 113.485C451.05 113.485 451.41 113.525 451.8 113.605C452.19 113.685 452.535 113.8 452.835 113.95C453.055 114.05 453.21 114.18 453.3 114.34C453.39 114.5 453.425 114.66 453.405 114.82C453.395 114.98 453.335 115.125 453.225 115.255C453.125 115.375 452.99 115.455 452.82 115.495C452.65 115.525 452.455 115.495 452.235 115.405C451.995 115.285 451.73 115.195 451.44 115.135C451.16 115.065 450.88 115.03 450.6 115.03C450.15 115.03 449.81 115.11 449.58 115.27C449.36 115.43 449.25 115.635 449.25 115.885C449.25 116.025 449.295 116.15 449.385 116.26C449.485 116.36 449.645 116.43 449.865 116.47L451.215 116.725C451.855 116.845 452.34 117.07 452.67 117.4C453 117.72 453.165 118.135 453.165 118.645C453.165 119.455 452.86 120.08 452.25 120.52C451.65 120.95 450.855 121.165 449.865 121.165Z" fill="black"/>
</svg>
