<svg xmlns="http://www.w3.org/2000/svg" xmlns:xlink="http://www.w3.org/1999/xlink" width="400" zoomAndPan="magnify" viewBox="0 0 300 299.999988" height="400" preserveAspectRatio="xMidYMid meet" version="1.0"><defs><clipPath id="3bdd84aea8"><path d="M 130 144 L 151 144 L 151 165.601562 L 130 165.601562 Z M 130 144 " clip-rule="nonzero"/></clipPath><clipPath id="3b45dc6b96"><path d="M 127 161 L 143 161 L 143 165.601562 L 127 165.601562 Z M 127 161 " clip-rule="nonzero"/></clipPath><clipPath id="adf412bb8e"><path d="M 158 144 L 180 144 L 180 165.601562 L 158 165.601562 Z M 158 144 " clip-rule="nonzero"/></clipPath><clipPath id="a077b0ffdc"><path d="M 166 161 L 182 161 L 182 165.601562 L 166 165.601562 Z M 166 161 " clip-rule="nonzero"/></clipPath><clipPath id="4f5c36dac1"><path d="M 126 46.351562 L 169 46.351562 L 169 79 L 126 79 Z M 126 46.351562 " clip-rule="nonzero"/></clipPath><clipPath id="cbf443ffbe"><path d="M 251 83 L 256.027344 83 L 256.027344 85 L 251 85 Z M 251 83 " clip-rule="nonzero"/></clipPath></defs><path fill="#000000" d="M 46.304688 224.378906 C 44.816406 224.378906 43.523438 224.058594 42.425781 223.421875 C 41.335938 222.78125 40.484375 221.804688 39.871094 220.496094 L 31.15625 201.769531 C 30.992188 201.421875 30.851562 201.054688 30.734375 200.671875 C 30.613281 200.28125 30.554688 199.835938 30.554688 199.324219 C 30.554688 198.234375 30.941406 197.339844 31.714844 196.648438 C 32.488281 195.953125 33.726562 195.605469 35.429688 195.605469 C 36.628906 195.605469 37.53125 195.835938 38.128906 196.289062 C 38.730469 196.742188 39.179688 197.257812 39.472656 197.84375 L 50.105469 220.574219 C 50.210938 220.925781 50.421875 221.101562 50.746094 221.101562 C 50.90625 221.101562 51.046875 221.070312 51.167969 221 C 51.285156 220.929688 51.382812 220.789062 51.464844 220.574219 L 51.542969 220.417969 C 52.582031 218.148438 53.300781 216.152344 53.699219 214.433594 C 54.101562 212.714844 54.304688 211.1875 54.304688 209.851562 C 54.304688 208.625 54.191406 207.527344 53.964844 206.570312 C 53.734375 205.609375 53.472656 204.738281 53.179688 203.949219 C 52.890625 203.160156 52.632812 202.414062 52.40625 201.710938 C 52.175781 201.003906 52.0625 200.304688 52.0625 199.609375 C 52.0625 198.433594 52.433594 197.464844 53.179688 196.703125 C 53.929688 195.945312 55.105469 195.5625 56.703125 195.5625 C 58.382812 195.5625 59.628906 195.917969 60.441406 196.625 C 61.253906 197.335938 61.664062 198.234375 61.664062 199.324219 C 61.664062 199.863281 61.601562 200.328125 61.480469 200.726562 C 61.359375 201.128906 61.207031 201.515625 61.023438 201.890625 L 52.347656 220.496094 C 51.730469 221.804688 50.941406 222.78125 49.984375 223.421875 C 49.027344 224.058594 47.800781 224.378906 46.304688 224.378906 Z M 46.304688 224.378906 " fill-opacity="1" fill-rule="nonzero"/><path fill="#000000" d="M 69.257812 224.378906 C 67.707031 224.378906 66.554688 224.015625 65.796875 223.300781 C 65.039062 222.582031 64.660156 221.632812 64.660156 220.460938 L 64.660156 199.445312 C 64.660156 198.273438 65.039062 197.335938 65.796875 196.625 C 66.554688 195.917969 67.707031 195.5625 69.257812 195.5625 C 70.824219 195.5625 71.984375 195.917969 72.730469 196.625 C 73.476562 197.335938 73.855469 198.273438 73.855469 199.445312 L 73.855469 220.460938 C 73.855469 221.632812 73.476562 222.582031 72.730469 223.300781 C 71.984375 224.015625 70.824219 224.378906 69.257812 224.378906 Z M 69.257812 224.378906 " fill-opacity="1" fill-rule="nonzero"/><path fill="#000000" d="M 91.082031 224.378906 C 89.535156 224.378906 88.382812 224.015625 87.625 223.300781 C 86.863281 222.582031 86.484375 221.632812 86.484375 220.460938 L 86.484375 197.289062 C 86.484375 196.914062 86.296875 196.726562 85.921875 196.726562 L 85.84375 196.726562 C 85.417969 196.726562 85.03125 196.921875 84.683594 197.308594 C 84.335938 197.695312 84.003906 198.167969 83.679688 198.726562 C 83.363281 199.289062 83.015625 199.847656 82.640625 200.40625 C 82.273438 200.96875 81.824219 201.445312 81.304688 201.832031 C 80.785156 202.21875 80.15625 202.410156 79.410156 202.410156 C 78.585938 202.410156 77.898438 202.136719 77.347656 201.589844 C 76.800781 201.046875 76.527344 200.355469 76.527344 199.523438 C 76.527344 198.511719 76.925781 197.667969 77.722656 196.988281 C 78.523438 196.304688 79.554688 195.964844 80.804688 195.964844 L 101.402344 195.964844 C 102.652344 195.964844 103.679688 196.304688 104.476562 196.988281 C 105.277344 197.667969 105.679688 198.511719 105.679688 199.523438 C 105.679688 200.355469 105.398438 201.046875 104.839844 201.589844 C 104.277344 202.136719 103.597656 202.410156 102.796875 202.410156 C 102.050781 202.410156 101.417969 202.21875 100.894531 201.832031 C 100.378906 201.445312 99.933594 200.96875 99.558594 200.40625 C 99.183594 199.847656 98.835938 199.289062 98.519531 198.726562 C 98.199219 198.167969 97.875 197.695312 97.535156 197.308594 C 97.203125 196.921875 96.8125 196.726562 96.363281 196.726562 L 96.277344 196.726562 C 95.878906 196.726562 95.679688 196.914062 95.679688 197.289062 L 95.679688 220.460938 C 95.679688 221.632812 95.304688 222.582031 94.5625 223.300781 C 93.816406 224.015625 92.65625 224.378906 91.082031 224.378906 Z M 91.082031 224.378906 " fill-opacity="1" fill-rule="nonzero"/><path fill="#000000" d="M 111.988281 224.378906 C 110.3125 224.378906 109.066406 224.015625 108.25 223.300781 C 107.441406 222.582031 107.035156 221.683594 107.035156 220.617188 C 107.035156 220.085938 107.09375 219.617188 107.210938 219.21875 C 107.328125 218.816406 107.46875 218.429688 107.632812 218.058594 L 116.351562 199.445312 C 116.992188 198.113281 117.78125 197.132812 118.726562 196.503906 C 119.675781 195.878906 120.894531 195.5625 122.386719 195.5625 C 123.878906 195.5625 125.179688 195.878906 126.285156 196.503906 C 127.390625 197.132812 128.238281 198.113281 128.824219 199.445312 L 137.578125 218.136719 C 137.738281 218.484375 137.878906 218.851562 138 219.242188 C 138.117188 219.625 138.175781 220.085938 138.175781 220.617188 C 138.175781 221.683594 137.789062 222.574219 137.015625 223.28125 C 136.242188 223.988281 134.992188 224.339844 133.257812 224.339844 C 132.058594 224.339844 131.164062 224.117188 130.578125 223.664062 C 129.992188 223.210938 129.554688 222.6875 129.261719 222.097656 L 126.425781 216.015625 C 125.972656 215.003906 125.265625 214.203125 124.308594 213.613281 C 123.347656 213.027344 122.320312 212.730469 121.226562 212.730469 L 114.671875 212.730469 C 114.855469 213.800781 115.105469 214.769531 115.425781 215.636719 C 115.746094 216.503906 116.035156 217.316406 116.285156 218.074219 C 116.542969 218.832031 116.671875 219.601562 116.671875 220.375 C 116.671875 221.523438 116.296875 222.480469 115.546875 223.238281 C 114.800781 223.996094 113.613281 224.378906 111.988281 224.378906 Z M 114.550781 211.976562 L 121.070312 211.976562 C 121.867188 211.976562 122.476562 211.628906 122.90625 210.9375 C 123.117188 210.640625 123.226562 210.265625 123.226562 209.808594 C 123.226562 209.410156 123.15625 209.082031 123.027344 208.8125 L 118.628906 199.367188 C 118.464844 199.023438 118.238281 198.847656 117.953125 198.847656 C 117.8125 198.847656 117.683594 198.882812 117.566406 198.949219 C 117.449219 199.015625 117.335938 199.152344 117.226562 199.367188 L 117.027344 199.765625 C 116.039062 201.957031 115.359375 203.882812 114.984375 205.550781 C 114.613281 207.21875 114.429688 208.703125 114.429688 210.011719 C 114.429688 210.703125 114.46875 211.359375 114.550781 211.976562 Z M 114.550781 211.976562 " fill-opacity="1" fill-rule="nonzero"/><path fill="#000000" d="M 208.34375 223.976562 C 207.011719 223.976562 206.015625 223.613281 205.347656 222.882812 C 204.679688 222.144531 204.351562 221.191406 204.351562 220.019531 L 204.351562 199.929688 C 204.351562 198.730469 204.679688 197.769531 205.347656 197.046875 C 206.015625 196.324219 207.011719 195.964844 208.34375 195.964844 L 219.421875 195.964844 C 222.40625 195.964844 225.03125 196.53125 227.292969 197.664062 C 229.5625 198.800781 231.332031 200.414062 232.609375 202.507812 C 233.890625 204.601562 234.53125 207.09375 234.53125 209.972656 C 234.53125 212.851562 233.890625 215.339844 232.609375 217.433594 C 231.332031 219.527344 229.5625 221.140625 227.292969 222.277344 C 225.03125 223.410156 222.40625 223.976562 219.421875 223.976562 Z M 213.582031 222.660156 C 213.582031 223.03125 213.78125 223.214844 214.183594 223.214844 L 217.300781 223.214844 C 218.898438 223.214844 220.300781 222.777344 221.5 221.898438 C 222.699219 221.015625 223.632812 219.609375 224.296875 217.675781 C 224.960938 215.742188 225.292969 213.175781 225.292969 209.972656 C 225.292969 206.71875 224.960938 204.121094 224.296875 202.1875 C 223.632812 200.257812 222.699219 198.863281 221.5 198.007812 C 220.300781 197.152344 218.898438 196.726562 217.300781 196.726562 L 214.183594 196.726562 C 213.78125 196.726562 213.582031 196.914062 213.582031 197.289062 Z M 213.582031 222.660156 " fill-opacity="1" fill-rule="nonzero"/><path fill="#000000" d="M 252.679688 224.378906 C 247.722656 224.378906 244.050781 223.363281 241.664062 221.335938 C 239.28125 219.308594 238.089844 216.589844 238.089844 213.171875 L 238.089844 199.445312 C 238.089844 198.273438 238.46875 197.335938 239.230469 196.625 C 239.988281 195.917969 241.140625 195.5625 242.6875 195.5625 C 244.257812 195.5625 245.417969 195.917969 246.160156 196.625 C 246.910156 197.335938 247.285156 198.273438 247.285156 199.445312 L 247.285156 216.65625 C 247.285156 218.65625 247.71875 220.316406 248.582031 221.636719 C 249.449219 222.957031 250.816406 223.613281 252.679688 223.613281 C 254.546875 223.613281 255.90625 222.984375 256.757812 221.71875 C 257.613281 220.453125 258.039062 218.765625 258.039062 216.65625 L 258.039062 199.445312 C 258.039062 198.273438 258.417969 197.335938 259.179688 196.625 C 259.9375 195.917969 261.089844 195.5625 262.636719 195.5625 C 264.210938 195.5625 265.371094 195.917969 266.117188 196.625 C 266.859375 197.335938 267.234375 198.273438 267.234375 199.445312 L 267.234375 213.171875 C 267.234375 216.589844 266.039062 219.308594 263.65625 221.335938 C 261.273438 223.363281 257.613281 224.378906 252.679688 224.378906 Z M 252.679688 224.378906 " fill-opacity="1" fill-rule="nonzero"/><path stroke-linecap="butt" transform="matrix(0.328811, -0.0916779, 0.0915949, 0.329109, 175.841212, 198.408147)" fill="none" stroke-linejoin="miter" d="M 0.00141654 1.003509 L 69.273933 1.001075 " stroke="#000000" stroke-width="2" stroke-opacity="1" stroke-miterlimit="4"/><path stroke-linecap="butt" transform="matrix(0.331869, 0.0798834, -0.079811, 0.332169, 149.716914, 192.054666)" fill="none" stroke-linejoin="miter" d="M -0.00117375 0.999931 L 79.508415 1.000142 " stroke="#000000" stroke-width="2" stroke-opacity="1" stroke-miterlimit="4"/><path stroke-linecap="butt" transform="matrix(0.331399, -0.081814, 0.0817399, 0.331699, 175.851114, 211.859865)" fill="none" stroke-linejoin="miter" d="M 0.00221503 1.00007 L 68.731732 1.005932 " stroke="#000000" stroke-width="2" stroke-opacity="1" stroke-miterlimit="4"/><path stroke-linecap="butt" transform="matrix(0.326755, 0.098771, -0.0986815, 0.327051, 176.031467, 185.174032)" fill="none" stroke-linejoin="miter" d="M 0.00135091 0.996281 L 69.710506 1.000793 " stroke="#000000" stroke-width="2" stroke-opacity="1" stroke-miterlimit="4"/><path stroke-linecap="butt" transform="matrix(0.330289, -0.0861932, 0.0861151, 0.330588, 149.550932, 192.055165)" fill="none" stroke-linejoin="miter" d="M -0.00164455 1.002492 L 79.888799 1.000363 " stroke="#000000" stroke-width="2" stroke-opacity="1" stroke-miterlimit="4"/><path stroke-linecap="butt" transform="matrix(0.331885, 0.0798136, -0.0797413, 0.332186, 149.716854, 224.688966)" fill="none" stroke-linejoin="miter" d="M -0.00222957 0.995658 L 79.504762 1.001429 " stroke="#000000" stroke-width="2" stroke-opacity="1" stroke-miterlimit="4"/><path stroke-linecap="butt" transform="matrix(0.328833, -0.0915995, 0.0915165, 0.329131, 175.841315, 231.036953)" fill="none" stroke-linejoin="miter" d="M 0.00128586 1.00371 L 69.27072 0.995782 " stroke="#000000" stroke-width="2" stroke-opacity="1" stroke-miterlimit="4"/><path stroke-linecap="butt" transform="matrix(0, 0.34164, -0.341331, 0, 149.977201, 192.387685)" fill="none" stroke-linejoin="miter" d="M -0.00282853 0.997515 L 95.526727 0.997515 " stroke="#000000" stroke-width="2" stroke-opacity="1" stroke-miterlimit="4"/><path stroke-linecap="butt" transform="matrix(0.332381, -0.0777165, 0.0776462, 0.332683, 175.855216, 224.687998)" fill="none" stroke-linejoin="miter" d="M 0.00285396 0.99721 L 68.529557 1.001539 " stroke="#000000" stroke-width="2" stroke-opacity="1" stroke-miterlimit="4"/><path stroke-linecap="butt" transform="matrix(0, 0.34164, -0.341331, 0, 199.052349, 192.388681)" fill="none" stroke-linejoin="miter" d="M -0.00574388 1.000237 L 18.585645 1.000237 " stroke="#000000" stroke-width="2" stroke-opacity="1" stroke-miterlimit="4"/><path stroke-linecap="butt" transform="matrix(0.330207, -0.0865073, 0.086429, 0.330506, 175.846441, 204.375291)" fill="none" stroke-linejoin="miter" d="M 0.00113558 1.004033 L 68.981358 0.999628 " stroke="#000000" stroke-width="2" stroke-opacity="1" stroke-miterlimit="4"/><path stroke-linecap="butt" transform="matrix(0, 0.34164, -0.341331, 0, 199.053199, 206.56932)" fill="none" stroke-linejoin="miter" d="M 0.00290531 1.002726 L 16.467604 1.002726 " stroke="#000000" stroke-width="2" stroke-opacity="1" stroke-miterlimit="4"/><path stroke-linecap="butt" transform="matrix(0.328552, 0.0926057, -0.0925218, 0.32885, 154.942904, 198.409481)" fill="none" stroke-linejoin="miter" d="M 0.00328951 0.998922 L 64.444254 1.002424 " stroke="#000000" stroke-width="2" stroke-opacity="1" stroke-miterlimit="4"/><path stroke-linecap="butt" transform="matrix(0.000000000595736, 0.34164, -0.341331, 0.000000000596276, 155.189744, 198.739993)" fill="none" stroke-linejoin="miter" d="M -0.00500913 1.002218 L 23.720165 1.002218 " stroke="#000000" stroke-width="2" stroke-opacity="1" stroke-miterlimit="4"/><path stroke-linecap="butt" transform="matrix(0.000000000595736, 0.34164, -0.341331, 0.000000000596276, 199.053755, 219.308257)" fill="none" stroke-linejoin="miter" d="M 0.000984837 1.004357 L 16.717228 1.004357 " stroke="#000000" stroke-width="2" stroke-opacity="1" stroke-miterlimit="4"/><path stroke-linecap="butt" transform="matrix(0.331035, 0.0832751, -0.0831997, 0.331335, 154.933616, 219.363498)" fill="none" stroke-linejoin="miter" d="M 0.00359928 1.000542 L 63.958922 0.995507 " stroke="#000000" stroke-width="2" stroke-opacity="1" stroke-miterlimit="4"/><path stroke-linecap="butt" transform="matrix(0.000000000595736, -0.34164, 0.341331, 0.000000000596276, 154.508842, 219.694187)" fill="none" stroke-linejoin="miter" d="M -0.00329482 1.004072 L 20.783388 1.004072 " stroke="#000000" stroke-width="2" stroke-opacity="1" stroke-miterlimit="4"/><path stroke-linecap="butt" transform="matrix(0.331905, -0.0797325, 0.0796602, 0.332206, 175.853195, 217.331641)" fill="none" stroke-linejoin="miter" d="M 0.00195715 1.001118 L 68.628767 0.998493 " stroke="#000000" stroke-width="2" stroke-opacity="1" stroke-miterlimit="4"/><path stroke-linecap="butt" transform="matrix(0.330941, 0.0836489, -0.0835732, 0.331241, 154.933969, 206.509174)" fill="none" stroke-linejoin="miter" d="M 0.00290594 0.997542 L 63.977728 0.997953 " stroke="#000000" stroke-width="2" stroke-opacity="1" stroke-miterlimit="4"/><path stroke-linecap="butt" transform="matrix(0.331963, 0.079489, -0.079417, 0.332264, 154.929853, 212.262023)" fill="none" stroke-linejoin="miter" d="M 0.00284511 0.997702 L 63.781141 0.999625 " stroke="#000000" stroke-width="2" stroke-opacity="1" stroke-miterlimit="4"/><path fill="#232323" d="M 107.417969 160.671875 C 108.605469 161.398438 110.046875 161.175781 110.65625 160.195312 L 113.113281 156.195312 C 113.71875 155.21875 113.257812 153.820312 112.078125 153.09375 C 110.894531 152.367188 109.445312 152.582031 108.835938 153.566406 L 107.605469 155.570312 L 106.378906 157.570312 C 105.769531 158.566406 106.238281 159.945312 107.417969 160.671875 Z M 107.417969 160.671875 " fill-opacity="1" fill-rule="nonzero"/><path fill="#232323" d="M 111.0625 145.433594 C 110.839844 145.394531 110.636719 145.3125 110.449219 145.183594 C 110.28125 145.066406 110.140625 144.921875 110.03125 144.75 C 109.921875 144.578125 109.847656 144.390625 109.8125 144.1875 C 109.773438 143.984375 109.777344 143.785156 109.820312 143.585938 C 109.863281 143.382812 109.945312 143.199219 110.0625 143.03125 C 111.613281 140.730469 113.574219 138.859375 115.949219 137.421875 C 116.898438 136.839844 117.917969 136.417969 119 136.15625 C 119.199219 136.125 119.394531 136.132812 119.585938 136.179688 C 119.78125 136.226562 119.957031 136.304688 120.121094 136.417969 C 120.285156 136.535156 120.417969 136.675781 120.527344 136.839844 C 120.636719 137.007812 120.710938 137.1875 120.75 137.382812 C 120.789062 137.578125 120.789062 137.773438 120.75 137.96875 C 120.714844 138.164062 120.644531 138.347656 120.535156 138.515625 C 120.429688 138.683594 120.292969 138.824219 120.132812 138.941406 C 119.972656 139.054688 119.792969 139.136719 119.601562 139.183594 C 119.429688 139.222656 115.902344 140.039062 112.601562 144.792969 C 112.429688 145.039062 112.203125 145.222656 111.925781 145.339844 C 111.648438 145.453125 111.359375 145.484375 111.0625 145.433594 Z M 111.0625 145.433594 " fill-opacity="1" fill-rule="nonzero"/><path fill="#d6d6d4" d="M 128.367188 129.722656 C 128.75 130.050781 129.097656 130.414062 129.410156 130.8125 C 129.71875 131.210938 129.988281 131.636719 130.214844 132.085938 C 130.441406 132.539062 130.625 133.007812 130.757812 133.492188 C 130.894531 133.980469 130.980469 134.472656 131.015625 134.976562 C 131.054688 135.480469 131.042969 135.984375 130.980469 136.484375 C 130.917969 136.988281 130.808594 137.476562 130.652344 137.957031 C 130.492188 138.4375 130.289062 138.894531 130.039062 139.335938 C 129.792969 139.773438 129.503906 140.183594 129.171875 140.566406 C 128.84375 140.949219 128.480469 141.296875 128.082031 141.609375 C 127.683594 141.917969 127.257812 142.1875 126.808594 142.414062 C 126.355469 142.640625 125.886719 142.824219 125.402344 142.957031 C 124.914062 143.09375 124.417969 143.179688 123.917969 143.214844 C 123.414062 143.253906 122.910156 143.242188 122.410156 143.179688 C 121.90625 143.117188 121.417969 143.007812 120.9375 142.851562 C 120.457031 142.691406 120 142.488281 119.558594 142.238281 C 119.121094 141.992188 118.710938 141.703125 118.328125 141.371094 C 117.945312 141.042969 117.597656 140.679688 117.285156 140.28125 C 116.976562 139.882812 116.707031 139.457031 116.480469 139.007812 C 116.253906 138.554688 116.070312 138.085938 115.9375 137.601562 C 115.800781 137.113281 115.714844 136.617188 115.679688 136.117188 C 115.640625 135.613281 115.652344 135.109375 115.714844 134.609375 C 115.777344 134.105469 115.886719 133.617188 116.042969 133.136719 C 116.203125 132.65625 116.40625 132.199219 116.65625 131.757812 C 116.902344 131.320312 117.191406 130.90625 117.523438 130.527344 C 117.851562 130.144531 118.214844 129.796875 118.613281 129.484375 C 119.011719 129.175781 119.4375 128.90625 119.886719 128.679688 C 120.339844 128.453125 120.808594 128.269531 121.292969 128.136719 C 121.78125 128 122.277344 127.914062 122.777344 127.878906 C 123.28125 127.839844 123.785156 127.851562 124.285156 127.914062 C 124.789062 127.976562 125.277344 128.085938 125.757812 128.242188 C 126.238281 128.402344 126.695312 128.605469 127.136719 128.855469 C 127.574219 129.101562 127.988281 129.390625 128.367188 129.722656 Z M 128.367188 129.722656 " fill-opacity="1" fill-rule="nonzero"/><path fill="#e9e8e4" d="M 115.726562 142.953125 C 116.058594 143.550781 116.328125 144.171875 116.539062 144.820312 C 116.746094 145.46875 116.890625 146.132812 116.972656 146.808594 C 117.050781 147.488281 117.0625 148.164062 117.007812 148.84375 C 116.953125 149.523438 116.832031 150.191406 116.648438 150.847656 C 116.460938 151.503906 116.214844 152.136719 115.902344 152.742188 C 115.59375 153.351562 115.226562 153.921875 114.804688 154.457031 C 114.378906 154.992188 113.910156 155.480469 113.390625 155.921875 C 112.871094 156.363281 112.316406 156.75 111.71875 157.082031 C 111.125 157.414062 110.5 157.6875 109.851562 157.894531 C 109.203125 158.105469 108.542969 158.25 107.863281 158.328125 C 107.1875 158.410156 106.507812 158.421875 105.828125 158.367188 C 105.148438 158.3125 104.480469 158.191406 103.824219 158.003906 C 103.167969 157.820312 102.539062 157.570312 101.929688 157.261719 C 101.324219 156.949219 100.753906 156.585938 100.21875 156.160156 C 99.683594 155.738281 99.195312 155.265625 98.753906 154.75 C 98.3125 154.230469 97.925781 153.671875 97.589844 153.078125 C 97.257812 152.480469 96.988281 151.859375 96.777344 151.210938 C 96.570312 150.5625 96.425781 149.898438 96.34375 149.222656 C 96.265625 148.542969 96.253906 147.867188 96.308594 147.1875 C 96.363281 146.507812 96.484375 145.839844 96.667969 145.183594 C 96.855469 144.527344 97.101562 143.894531 97.414062 143.289062 C 97.722656 142.683594 98.089844 142.109375 98.511719 141.574219 C 98.9375 141.042969 99.40625 140.554688 99.925781 140.109375 C 100.445312 139.667969 101 139.28125 101.597656 138.949219 C 102.191406 138.617188 102.816406 138.347656 103.464844 138.136719 C 104.113281 137.925781 104.773438 137.78125 105.453125 137.703125 C 106.128906 137.625 106.808594 137.609375 107.488281 137.664062 C 108.167969 137.71875 108.835938 137.839844 109.492188 138.027344 C 110.148438 138.210938 110.777344 138.460938 111.386719 138.769531 C 111.992188 139.082031 112.5625 139.449219 113.097656 139.871094 C 113.632812 140.292969 114.121094 140.765625 114.5625 141.285156 C 115.003906 141.800781 115.394531 142.359375 115.726562 142.953125 Z M 115.726562 142.953125 " fill-opacity="1" fill-rule="nonzero"/><path fill="#232323" d="M 94.554688 157.261719 C 95.734375 157.988281 97.210938 157.730469 97.851562 156.6875 L 100.460938 152.46875 C 101.113281 151.425781 100.664062 149.996094 99.480469 149.269531 C 98.300781 148.542969 96.824219 148.796875 96.183594 149.84375 L 93.574219 154.0625 C 92.9375 155.089844 93.371094 156.523438 94.554688 157.261719 Z M 94.554688 157.261719 " fill-opacity="1" fill-rule="nonzero"/><path fill="#232323" d="M 98.554688 159.710938 C 99.738281 160.4375 101.214844 160.179688 101.855469 159.136719 L 104.464844 154.917969 C 105.117188 153.875 104.667969 152.441406 103.484375 151.714844 C 102.300781 150.988281 100.828125 151.246094 100.1875 152.289062 L 97.578125 156.507812 C 96.941406 157.550781 97.375 158.988281 98.554688 159.710938 Z M 98.554688 159.710938 " fill-opacity="1" fill-rule="nonzero"/><path fill="#232323" d="M 211.253906 117.128906 C 210.601562 115.914062 209.226562 115.375 208.207031 115.933594 L 204.085938 118.179688 C 203.066406 118.734375 202.785156 120.171875 203.433594 121.386719 C 204.085938 122.601562 205.464844 123.140625 206.484375 122.582031 L 208.542969 121.460938 L 210.605469 120.335938 C 211.625 119.769531 211.917969 118.347656 211.253906 117.128906 Z M 211.253906 117.128906 " fill-opacity="1" fill-rule="nonzero"/><path fill="#232323" d="M 200.515625 128.535156 C 200.28125 128.34375 200.019531 128.226562 199.71875 128.191406 C 199.417969 128.152344 199.132812 128.199219 198.863281 128.328125 C 193.609375 130.824219 190.042969 129.726562 190.007812 129.714844 C 189.8125 129.648438 189.613281 129.621094 189.40625 129.632812 C 189.203125 129.648438 189.007812 129.699219 188.824219 129.789062 C 188.640625 129.882812 188.480469 130.003906 188.34375 130.160156 C 188.207031 130.3125 188.105469 130.488281 188.042969 130.683594 C 187.976562 130.875 187.949219 131.078125 187.960938 131.28125 C 187.976562 131.488281 188.027344 131.679688 188.117188 131.867188 C 188.207031 132.050781 188.332031 132.210938 188.484375 132.34375 C 188.640625 132.480469 188.816406 132.582031 189.007812 132.648438 C 190.078125 132.957031 191.171875 133.097656 192.285156 133.066406 C 195.0625 133 197.695312 132.355469 200.183594 131.128906 C 200.371094 131.039062 200.53125 130.921875 200.667969 130.769531 C 200.808594 130.617188 200.910156 130.445312 200.980469 130.25 C 201.046875 130.058594 201.078125 129.859375 201.066406 129.652344 C 201.054688 129.449219 201.007812 129.253906 200.917969 129.066406 C 200.820312 128.863281 200.6875 128.683594 200.515625 128.535156 Z M 200.515625 128.535156 " fill-opacity="1" fill-rule="nonzero"/><path fill="#d6d6d4" d="M 187.703125 123.832031 C 188.171875 124.015625 188.621094 124.238281 189.050781 124.507812 C 189.476562 124.777344 189.871094 125.085938 190.238281 125.433594 C 190.605469 125.78125 190.933594 126.164062 191.226562 126.574219 C 191.515625 126.988281 191.765625 127.425781 191.96875 127.886719 C 192.175781 128.347656 192.332031 128.824219 192.445312 129.316406 C 192.554688 129.808594 192.617188 130.308594 192.632812 130.8125 C 192.644531 131.316406 192.609375 131.820312 192.523438 132.316406 C 192.4375 132.816406 192.304688 133.300781 192.121094 133.769531 C 191.941406 134.242188 191.714844 134.691406 191.445312 135.117188 C 191.175781 135.546875 190.867188 135.941406 190.519531 136.308594 C 190.171875 136.675781 189.792969 137.003906 189.378906 137.292969 C 188.96875 137.585938 188.53125 137.832031 188.070312 138.039062 C 187.605469 138.242188 187.128906 138.402344 186.636719 138.511719 C 186.144531 138.625 185.648438 138.6875 185.140625 138.699219 C 184.636719 138.714844 184.136719 138.675781 183.636719 138.589844 C 183.140625 138.503906 182.65625 138.371094 182.183594 138.191406 C 181.714844 138.011719 181.265625 137.785156 180.835938 137.515625 C 180.410156 137.246094 180.011719 136.9375 179.648438 136.589844 C 179.28125 136.242188 178.953125 135.859375 178.660156 135.449219 C 178.371094 135.035156 178.121094 134.597656 177.917969 134.136719 C 177.710938 133.675781 177.554688 133.199219 177.441406 132.707031 C 177.332031 132.214844 177.269531 131.714844 177.253906 131.210938 C 177.242188 130.707031 177.277344 130.203125 177.363281 129.707031 C 177.449219 129.210938 177.582031 128.726562 177.765625 128.253906 C 177.945312 127.78125 178.171875 127.332031 178.441406 126.90625 C 178.710938 126.480469 179.019531 126.082031 179.367188 125.714844 C 179.714844 125.351562 180.09375 125.019531 180.507812 124.730469 C 180.917969 124.4375 181.355469 124.191406 181.816406 123.984375 C 182.277344 123.78125 182.757812 123.621094 183.25 123.511719 C 183.742188 123.398438 184.238281 123.335938 184.746094 123.324219 C 185.25 123.3125 185.75 123.347656 186.25 123.433594 C 186.746094 123.519531 187.230469 123.652344 187.703125 123.832031 Z M 187.703125 123.832031 " fill-opacity="1" fill-rule="nonzero"/><path fill="#d6d6d4" d="M 212.960938 121.140625 C 213.441406 121.625 213.871094 122.148438 214.25 122.714844 C 214.628906 123.28125 214.949219 123.878906 215.210938 124.507812 C 215.472656 125.140625 215.667969 125.789062 215.800781 126.457031 C 215.933594 127.125 216 127.800781 216 128.484375 C 216 129.164062 215.933594 129.839844 215.800781 130.507812 C 215.667969 131.179688 215.472656 131.828125 215.210938 132.457031 C 214.949219 133.085938 214.628906 133.683594 214.25 134.253906 C 213.871094 134.820312 213.441406 135.34375 212.960938 135.824219 C 212.476562 136.308594 211.953125 136.738281 211.386719 137.117188 C 210.820312 137.496094 210.222656 137.816406 209.589844 138.078125 C 208.960938 138.335938 208.3125 138.535156 207.644531 138.667969 C 206.976562 138.800781 206.300781 138.867188 205.617188 138.867188 C 204.9375 138.867188 204.261719 138.800781 203.59375 138.667969 C 202.921875 138.535156 202.273438 138.335938 201.644531 138.078125 C 201.015625 137.816406 200.417969 137.496094 199.847656 137.117188 C 199.28125 136.738281 198.757812 136.308594 198.277344 135.824219 C 197.792969 135.34375 197.363281 134.820312 196.984375 134.253906 C 196.605469 133.683594 196.285156 133.085938 196.023438 132.457031 C 195.765625 131.828125 195.566406 131.179688 195.433594 130.507812 C 195.300781 129.839844 195.234375 129.164062 195.234375 128.484375 C 195.234375 127.800781 195.300781 127.125 195.433594 126.457031 C 195.566406 125.789062 195.765625 125.140625 196.023438 124.507812 C 196.285156 123.878906 196.605469 123.28125 196.984375 122.714844 C 197.363281 122.148438 197.792969 121.625 198.277344 121.140625 C 198.757812 120.660156 199.28125 120.226562 199.847656 119.851562 C 200.417969 119.472656 201.015625 119.152344 201.644531 118.890625 C 202.273438 118.628906 202.921875 118.433594 203.59375 118.300781 C 204.261719 118.167969 204.9375 118.101562 205.617188 118.101562 C 206.300781 118.101562 206.976562 118.167969 207.644531 118.300781 C 208.3125 118.433594 208.960938 118.628906 209.589844 118.890625 C 210.222656 119.152344 210.820312 119.472656 211.386719 119.851562 C 211.953125 120.226562 212.476562 120.660156 212.960938 121.140625 Z M 212.960938 121.140625 " fill-opacity="1" fill-rule="nonzero"/><path fill="#232323" d="M 220.710938 126.496094 C 220.058594 125.277344 218.636719 124.769531 217.566406 125.351562 L 213.214844 127.722656 C 212.144531 128.308594 211.808594 129.769531 212.472656 130.980469 C 213.125 132.199219 214.542969 132.710938 215.617188 132.125 L 217.792969 130.9375 L 219.96875 129.753906 C 221.039062 129.171875 221.375 127.710938 220.710938 126.496094 Z M 220.710938 126.496094 " fill-opacity="1" fill-rule="nonzero"/><path fill="#232323" d="M 218.472656 122.378906 C 217.820312 121.164062 216.398438 120.652344 215.324219 121.238281 L 210.972656 123.597656 C 209.898438 124.183594 209.566406 125.644531 210.230469 126.859375 C 210.882812 128.074219 212.300781 128.585938 213.375 128 L 215.550781 126.816406 L 217.726562 125.628906 C 218.796875 125.046875 219.125 123.585938 218.472656 122.378906 Z M 218.472656 122.378906 " fill-opacity="1" fill-rule="nonzero"/><path fill="#232323" d="M 140.261719 147.480469 C 140.460938 147.480469 140.652344 147.445312 140.835938 147.371094 C 141.019531 147.296875 141.179688 147.191406 141.324219 147.058594 C 141.46875 146.921875 141.582031 146.765625 141.664062 146.585938 C 141.746094 146.40625 141.792969 146.21875 141.804688 146.019531 C 142.203125 138.617188 149.09375 135.804688 149.386719 135.691406 C 149.574219 135.613281 149.746094 135.507812 149.894531 135.363281 C 150.039062 135.222656 150.15625 135.058594 150.238281 134.871094 C 150.320312 134.683594 150.363281 134.488281 150.367188 134.28125 C 150.371094 134.078125 150.335938 133.878906 150.261719 133.6875 C 150.1875 133.496094 150.078125 133.328125 149.9375 133.179688 C 149.792969 133.03125 149.628906 132.917969 149.441406 132.835938 C 149.253906 132.753906 149.058594 132.710938 148.855469 132.707031 C 148.648438 132.703125 148.453125 132.738281 148.261719 132.8125 C 147.890625 132.953125 139.226562 136.433594 138.722656 145.851562 C 138.710938 146.054688 138.738281 146.253906 138.804688 146.449219 C 138.871094 146.644531 138.972656 146.816406 139.109375 146.96875 C 139.25 147.121094 139.410156 147.242188 139.59375 147.332031 C 139.777344 147.421875 139.972656 147.472656 140.179688 147.480469 Z M 140.261719 147.480469 " fill-opacity="1" fill-rule="nonzero"/><g clip-path="url(#3bdd84aea8)"><path fill="#e9e8e4" d="M 143.238281 144.613281 C 143.710938 144.613281 144.179688 144.660156 144.644531 144.75 C 145.105469 144.84375 145.558594 144.980469 145.992188 145.160156 C 146.429688 145.339844 146.84375 145.5625 147.238281 145.824219 C 147.628906 146.085938 147.992188 146.386719 148.328125 146.71875 C 148.660156 147.054688 148.960938 147.417969 149.222656 147.808594 C 149.484375 148.203125 149.707031 148.617188 149.886719 149.054688 C 150.066406 149.492188 150.203125 149.941406 150.296875 150.402344 C 150.390625 150.867188 150.433594 151.335938 150.433594 151.808594 L 150.433594 158.632812 C 150.433594 159.105469 150.390625 159.570312 150.296875 160.035156 C 150.203125 160.5 150.066406 160.949219 149.886719 161.386719 C 149.707031 161.820312 149.484375 162.234375 149.222656 162.628906 C 148.960938 163.023438 148.660156 163.386719 148.328125 163.71875 C 147.992188 164.054688 147.628906 164.351562 147.238281 164.613281 C 146.84375 164.875 146.429688 165.097656 145.992188 165.277344 C 145.558594 165.460938 145.105469 165.597656 144.644531 165.6875 C 144.179688 165.78125 143.710938 165.828125 143.238281 165.828125 L 130.121094 165.828125 L 130.121094 157.730469 C 130.121094 156.871094 130.207031 156.015625 130.375 155.171875 C 130.542969 154.328125 130.789062 153.507812 131.121094 152.710938 C 131.449219 151.917969 131.851562 151.160156 132.332031 150.445312 C 132.808594 149.730469 133.355469 149.066406 133.960938 148.457031 C 134.570312 147.847656 135.234375 147.304688 135.949219 146.828125 C 136.667969 146.347656 137.421875 145.945312 138.21875 145.613281 C 139.011719 145.285156 139.832031 145.035156 140.679688 144.867188 C 141.523438 144.699219 142.375 144.617188 143.238281 144.617188 Z M 143.238281 144.613281 " fill-opacity="1" fill-rule="nonzero"/></g><g clip-path="url(#3b45dc6b96)"><path fill="#0cc0df" d="M 130.046875 161.175781 L 138.09375 161.175781 C 138.402344 161.175781 138.707031 161.203125 139.003906 161.265625 C 139.304688 161.324219 139.597656 161.414062 139.882812 161.53125 C 140.164062 161.648438 140.433594 161.789062 140.6875 161.960938 C 140.941406 162.128906 141.179688 162.324219 141.394531 162.539062 C 141.609375 162.757812 141.804688 162.992188 141.972656 163.246094 C 142.144531 163.503906 142.289062 163.769531 142.40625 164.054688 C 142.523438 164.335938 142.613281 164.628906 142.671875 164.929688 C 142.730469 165.230469 142.761719 165.535156 142.761719 165.839844 L 130.046875 165.839844 C 129.738281 165.839844 129.441406 165.78125 129.152344 165.660156 C 128.867188 165.542969 128.617188 165.375 128.398438 165.15625 C 128.179688 164.9375 128.011719 164.6875 127.894531 164.402344 C 127.773438 164.113281 127.714844 163.816406 127.714844 163.507812 C 127.714844 163.199219 127.773438 162.902344 127.890625 162.617188 C 128.011719 162.328125 128.179688 162.078125 128.398438 161.859375 C 128.617188 161.640625 128.867188 161.46875 129.152344 161.351562 C 129.4375 161.234375 129.738281 161.175781 130.046875 161.175781 Z M 130.046875 161.175781 " fill-opacity="1" fill-rule="nonzero"/></g><path fill="#232323" d="M 169.148438 147.480469 L 169.242188 147.480469 C 169.449219 147.472656 169.644531 147.421875 169.828125 147.332031 C 170.011719 147.242188 170.171875 147.121094 170.308594 146.96875 C 170.445312 146.816406 170.550781 146.644531 170.617188 146.449219 C 170.683594 146.253906 170.710938 146.054688 170.699219 145.851562 C 170.195312 136.429688 161.53125 132.953125 161.160156 132.8125 C 160.96875 132.738281 160.773438 132.703125 160.566406 132.707031 C 160.363281 132.710938 160.167969 132.753906 159.980469 132.835938 C 159.792969 132.917969 159.628906 133.03125 159.484375 133.179688 C 159.34375 133.328125 159.234375 133.496094 159.160156 133.6875 C 159.085938 133.878906 159.050781 134.078125 159.054688 134.28125 C 159.058594 134.488281 159.101562 134.683594 159.183594 134.871094 C 159.265625 135.058594 159.382812 135.222656 159.527344 135.363281 C 159.675781 135.507812 159.84375 135.613281 160.035156 135.691406 C 160.332031 135.804688 167.207031 138.625 167.617188 146.019531 C 167.628906 146.21875 167.675781 146.40625 167.757812 146.582031 C 167.839844 146.761719 167.953125 146.917969 168.09375 147.054688 C 168.234375 147.191406 168.398438 147.292969 168.582031 147.367188 C 168.761719 147.441406 168.953125 147.480469 169.148438 147.480469 Z M 169.148438 147.480469 " fill-opacity="1" fill-rule="nonzero"/><g clip-path="url(#adf412bb8e)"><path fill="#e9e8e4" d="M 179.289062 165.828125 L 166.175781 165.828125 C 165.703125 165.828125 165.234375 165.785156 164.773438 165.691406 C 164.308594 165.597656 163.859375 165.460938 163.421875 165.28125 C 162.984375 165.101562 162.570312 164.878906 162.179688 164.617188 C 161.785156 164.355469 161.421875 164.054688 161.085938 163.722656 C 160.753906 163.386719 160.457031 163.023438 160.191406 162.632812 C 159.929688 162.238281 159.707031 161.824219 159.527344 161.386719 C 159.347656 160.953125 159.210938 160.5 159.117188 160.039062 C 159.027344 159.574219 158.980469 159.105469 158.980469 158.632812 L 158.980469 151.8125 C 158.980469 151.339844 159.027344 150.871094 159.117188 150.40625 C 159.210938 149.945312 159.347656 149.496094 159.527344 149.058594 C 159.707031 148.621094 159.929688 148.207031 160.191406 147.8125 C 160.457031 147.421875 160.753906 147.058594 161.085938 146.722656 C 161.421875 146.390625 161.785156 146.089844 162.179688 145.828125 C 162.570312 145.566406 162.984375 145.34375 163.421875 145.164062 C 163.859375 144.984375 164.308594 144.847656 164.773438 144.753906 C 165.234375 144.660156 165.703125 144.617188 166.175781 144.617188 C 167.035156 144.617188 167.890625 144.699219 168.734375 144.867188 C 169.582031 145.035156 170.402344 145.285156 171.199219 145.617188 C 171.992188 145.945312 172.75 146.351562 173.464844 146.828125 C 174.183594 147.308594 174.84375 147.851562 175.453125 148.460938 C 176.0625 149.070312 176.605469 149.734375 177.085938 150.453125 C 177.5625 151.167969 177.96875 151.925781 178.296875 152.722656 C 178.625 153.519531 178.875 154.339844 179.039062 155.183594 C 179.207031 156.03125 179.292969 156.882812 179.289062 157.746094 Z M 179.289062 165.828125 " fill-opacity="1" fill-rule="nonzero"/></g><g clip-path="url(#a077b0ffdc)"><path fill="#0cc0df" d="M 179.367188 165.820312 L 166.652344 165.820312 C 166.652344 165.515625 166.679688 165.210938 166.742188 164.910156 C 166.800781 164.609375 166.890625 164.316406 167.007812 164.035156 C 167.125 163.75 167.265625 163.484375 167.4375 163.226562 C 167.609375 162.972656 167.800781 162.738281 168.019531 162.519531 C 168.234375 162.304688 168.46875 162.109375 168.722656 161.941406 C 168.980469 161.769531 169.25 161.628906 169.53125 161.511719 C 169.8125 161.394531 170.105469 161.304688 170.40625 161.246094 C 170.707031 161.183594 171.011719 161.15625 171.316406 161.15625 L 179.367188 161.15625 C 179.675781 161.15625 179.972656 161.214844 180.257812 161.332031 C 180.542969 161.449219 180.796875 161.617188 181.015625 161.835938 C 181.234375 162.054688 181.402344 162.308594 181.519531 162.59375 C 181.636719 162.878906 181.695312 163.175781 181.695312 163.484375 C 181.695312 163.796875 181.636719 164.09375 181.519531 164.378906 C 181.402344 164.664062 181.234375 164.917969 181.015625 165.136719 C 180.796875 165.355469 180.542969 165.523438 180.257812 165.640625 C 179.972656 165.761719 179.675781 165.820312 179.367188 165.820312 Z M 179.367188 165.820312 " fill-opacity="1" fill-rule="nonzero"/></g><path fill="#d6d6d4" d="M 187.65625 104.273438 C 188.09375 110.691406 188.492188 115.894531 194.914062 115.457031 C 195.683594 115.414062 196.441406 115.292969 197.1875 115.101562 C 197.933594 114.90625 198.652344 114.640625 199.347656 114.304688 C 200.039062 113.96875 200.691406 113.566406 201.304688 113.097656 C 201.921875 112.632812 202.480469 112.109375 202.992188 111.53125 C 203.503906 110.953125 203.949219 110.332031 204.335938 109.664062 C 204.722656 109 205.039062 108.300781 205.289062 107.570312 C 205.535156 106.839844 205.710938 106.09375 205.8125 105.328125 C 205.910156 104.566406 205.933594 103.796875 205.882812 103.027344 C 205.828125 102.257812 205.703125 101.503906 205.5 100.757812 C 205.296875 100.015625 205.023438 99.300781 204.679688 98.609375 C 204.332031 97.917969 203.925781 97.269531 203.453125 96.664062 C 202.976562 96.054688 202.449219 95.5 201.867188 94.996094 C 201.28125 94.492188 200.652344 94.050781 199.984375 93.671875 C 199.3125 93.292969 198.609375 92.984375 197.878906 92.742188 C 197.144531 92.503906 196.394531 92.339844 195.628906 92.246094 C 194.863281 92.15625 194.097656 92.140625 193.328125 92.203125 C 186.90625 92.640625 187.21875 97.847656 187.65625 104.273438 Z M 187.65625 104.273438 " fill-opacity="1" fill-rule="nonzero"/><path fill="#d6d6d4" d="M 117.96875 109.011719 C 118.402344 115.433594 118.71875 120.640625 112.292969 121.074219 C 111.527344 121.136719 110.757812 121.121094 109.992188 121.03125 C 109.226562 120.9375 108.480469 120.773438 107.746094 120.535156 C 107.015625 120.292969 106.3125 119.984375 105.640625 119.605469 C 104.96875 119.226562 104.34375 118.785156 103.757812 118.28125 C 103.175781 117.777344 102.644531 117.222656 102.171875 116.613281 C 101.699219 116.007812 101.289062 115.355469 100.945312 114.667969 C 100.601562 113.976562 100.328125 113.261719 100.125 112.519531 C 99.921875 111.773438 99.792969 111.015625 99.742188 110.25 C 99.691406 109.480469 99.714844 108.710938 99.8125 107.949219 C 99.914062 107.183594 100.085938 106.4375 100.335938 105.707031 C 100.582031 104.976562 100.898438 104.277344 101.285156 103.613281 C 101.671875 102.945312 102.121094 102.324219 102.632812 101.746094 C 103.140625 101.167969 103.703125 100.644531 104.316406 100.175781 C 104.929688 99.710938 105.585938 99.308594 106.277344 98.972656 C 106.972656 98.636719 107.691406 98.371094 108.4375 98.175781 C 109.183594 97.980469 109.941406 97.863281 110.710938 97.820312 C 117.132812 97.390625 117.53125 102.59375 117.96875 109.011719 Z M 117.96875 109.011719 " fill-opacity="1" fill-rule="nonzero"/><path fill="#e9e8e4" d="M 107.378906 107.605469 L 107.667969 111.839844 C 107.734375 112.792969 107.84375 113.742188 108.003906 114.683594 C 108.160156 115.625 108.363281 116.558594 108.613281 117.476562 C 108.863281 118.398438 109.15625 119.308594 109.496094 120.199219 C 109.835938 121.09375 110.21875 121.96875 110.640625 122.820312 C 111.066406 123.675781 111.53125 124.511719 112.039062 125.320312 C 112.542969 126.128906 113.089844 126.910156 113.671875 127.667969 C 114.253906 128.425781 114.875 129.148438 115.527344 129.84375 C 116.183594 130.539062 116.871094 131.203125 117.589844 131.828125 C 118.308594 132.457031 119.058594 133.046875 119.835938 133.601562 C 120.613281 134.15625 121.414062 134.671875 122.242188 135.148438 C 123.070312 135.621094 123.921875 136.054688 124.792969 136.449219 C 125.664062 136.839844 126.550781 137.1875 127.457031 137.492188 C 128.359375 137.796875 129.277344 138.058594 130.207031 138.273438 C 131.140625 138.484375 132.078125 138.65625 133.023438 138.777344 C 133.972656 138.898438 134.921875 138.976562 135.878906 139.003906 C 136.832031 139.03125 137.785156 139.015625 138.738281 138.949219 L 171.132812 136.742188 C 172.085938 136.679688 173.035156 136.566406 173.976562 136.410156 C 174.917969 136.253906 175.851562 136.050781 176.773438 135.800781 C 177.695312 135.550781 178.601562 135.257812 179.496094 134.921875 C 180.386719 134.582031 181.261719 134.199219 182.117188 133.777344 C 182.972656 133.351562 183.808594 132.886719 184.617188 132.382812 C 185.425781 131.875 186.210938 131.332031 186.964844 130.75 C 187.722656 130.164062 188.449219 129.546875 189.144531 128.894531 C 189.839844 128.238281 190.503906 127.550781 191.128906 126.832031 C 191.757812 126.113281 192.351562 125.363281 192.90625 124.585938 C 193.460938 123.808594 193.976562 123.007812 194.449219 122.179688 C 194.925781 121.351562 195.359375 120.5 195.753906 119.628906 C 196.144531 118.761719 196.492188 117.871094 196.796875 116.96875 C 197.101562 116.0625 197.363281 115.144531 197.578125 114.214844 C 197.792969 113.28125 197.960938 112.34375 198.085938 111.398438 C 198.207031 110.449219 198.28125 109.5 198.3125 108.542969 C 198.339844 107.589844 198.324219 106.636719 198.257812 105.683594 L 197.972656 101.445312 C 197.90625 100.492188 197.796875 99.546875 197.636719 98.605469 C 197.480469 97.660156 197.273438 96.730469 197.027344 95.808594 C 196.777344 94.886719 196.480469 93.980469 196.144531 93.085938 C 195.804688 92.195312 195.421875 91.320312 195 90.464844 C 194.574219 89.609375 194.109375 88.777344 193.601562 87.96875 C 193.097656 87.15625 192.550781 86.375 191.96875 85.617188 C 191.382812 84.863281 190.765625 84.136719 190.113281 83.441406 C 189.457031 82.746094 188.769531 82.085938 188.050781 81.457031 C 187.332031 80.828125 186.582031 80.238281 185.804688 79.683594 C 185.027344 79.128906 184.222656 78.617188 183.394531 78.140625 C 182.566406 77.664062 181.71875 77.230469 180.847656 76.839844 C 179.976562 76.445312 179.089844 76.097656 178.183594 75.792969 C 177.28125 75.488281 176.363281 75.230469 175.429688 75.015625 C 174.5 74.800781 173.5625 74.632812 172.613281 74.511719 C 171.667969 74.386719 170.71875 74.3125 169.761719 74.285156 C 168.808594 74.253906 167.855469 74.273438 166.902344 74.335938 L 134.488281 76.535156 C 133.539062 76.597656 132.589844 76.710938 131.648438 76.867188 C 130.707031 77.027344 129.773438 77.230469 128.851562 77.480469 C 127.929688 77.730469 127.023438 78.023438 126.128906 78.363281 C 125.238281 78.699219 124.363281 79.082031 123.507812 79.507812 C 122.652344 79.929688 121.820312 80.394531 121.011719 80.902344 C 120.199219 81.410156 119.417969 81.953125 118.660156 82.535156 C 117.90625 83.121094 117.179688 83.738281 116.484375 84.394531 C 115.789062 85.046875 115.128906 85.734375 114.5 86.453125 C 113.871094 87.175781 113.28125 87.921875 112.726562 88.699219 C 112.171875 89.476562 111.65625 90.28125 111.183594 91.109375 C 110.707031 91.9375 110.273438 92.785156 109.882812 93.65625 C 109.488281 94.527344 109.140625 95.414062 108.835938 96.320312 C 108.53125 97.226562 108.273438 98.144531 108.058594 99.074219 C 107.84375 100.003906 107.675781 100.941406 107.550781 101.890625 C 107.429688 102.835938 107.355469 103.789062 107.324219 104.742188 C 107.296875 105.695312 107.3125 106.652344 107.378906 107.605469 Z M 107.378906 107.605469 " fill-opacity="1" fill-rule="nonzero"/><path fill="#d6d6d4" d="M 135.113281 127.292969 L 173.15625 124.707031 C 173.574219 124.679688 173.984375 124.609375 174.390625 124.5 C 174.792969 124.390625 175.183594 124.242188 175.558594 124.054688 C 175.9375 123.871094 176.289062 123.648438 176.621094 123.390625 C 176.953125 123.136719 177.257812 122.851562 177.535156 122.535156 C 177.808594 122.21875 178.050781 121.878906 178.257812 121.515625 C 178.46875 121.152344 178.640625 120.769531 178.773438 120.375 C 178.90625 119.976562 179 119.570312 179.054688 119.152344 C 179.109375 118.738281 179.121094 118.320312 179.09375 117.902344 L 177.585938 95.757812 C 177.558594 95.339844 177.488281 94.929688 177.378906 94.523438 C 177.269531 94.121094 177.121094 93.730469 176.933594 93.355469 C 176.75 92.980469 176.527344 92.625 176.269531 92.292969 C 176.015625 91.960938 175.730469 91.65625 175.414062 91.382812 C 175.097656 91.105469 174.757812 90.863281 174.394531 90.65625 C 174.03125 90.445312 173.648438 90.277344 173.253906 90.140625 C 172.855469 90.007812 172.449219 89.914062 172.03125 89.859375 C 171.617188 89.808594 171.199219 89.792969 170.78125 89.824219 L 145.957031 91.515625 L 132.730469 92.410156 C 132.3125 92.441406 131.898438 92.511719 131.496094 92.621094 C 131.089844 92.730469 130.699219 92.878906 130.324219 93.066406 C 129.949219 93.253906 129.59375 93.476562 129.261719 93.734375 C 128.929688 93.988281 128.628906 94.277344 128.351562 94.59375 C 128.078125 94.910156 127.835938 95.25 127.628906 95.613281 C 127.417969 95.980469 127.25 96.359375 127.117188 96.757812 C 126.984375 97.15625 126.890625 97.5625 126.835938 97.980469 C 126.785156 98.394531 126.773438 98.8125 126.800781 99.230469 L 128.3125 121.378906 C 128.339844 121.796875 128.410156 122.207031 128.519531 122.609375 C 128.628906 123.011719 128.777344 123.402344 128.964844 123.777344 C 129.152344 124.152344 129.375 124.503906 129.628906 124.835938 C 129.886719 125.167969 130.171875 125.46875 130.488281 125.742188 C 130.804688 126.019531 131.144531 126.261719 131.503906 126.46875 C 131.867188 126.675781 132.25 126.847656 132.644531 126.980469 C 133.042969 127.113281 133.449219 127.207031 133.863281 127.257812 C 134.277344 127.3125 134.695312 127.324219 135.113281 127.292969 Z M 135.113281 127.292969 " fill-opacity="1" fill-rule="nonzero"/><path fill="#232323" d="M 134.980469 125.378906 L 173.015625 122.789062 C 173.433594 122.761719 173.84375 122.691406 174.25 122.582031 C 174.652344 122.472656 175.042969 122.324219 175.417969 122.136719 C 175.796875 121.953125 176.148438 121.730469 176.480469 121.472656 C 176.8125 121.21875 177.117188 120.933594 177.390625 120.617188 C 177.667969 120.300781 177.910156 119.960938 178.117188 119.597656 C 178.328125 119.234375 178.5 118.851562 178.632812 118.457031 C 178.765625 118.058594 178.859375 117.652344 178.914062 117.238281 C 178.96875 116.820312 178.980469 116.402344 178.953125 115.984375 L 177.445312 93.84375 C 177.417969 93.425781 177.347656 93.011719 177.238281 92.609375 C 177.128906 92.203125 176.980469 91.8125 176.792969 91.4375 C 176.609375 91.0625 176.386719 90.707031 176.128906 90.375 C 175.875 90.042969 175.589844 89.742188 175.273438 89.464844 C 174.957031 89.191406 174.617188 88.949219 174.253906 88.738281 C 173.890625 88.53125 173.507812 88.359375 173.113281 88.226562 C 172.714844 88.089844 172.308594 87.996094 171.894531 87.945312 C 171.476562 87.890625 171.058594 87.878906 170.640625 87.90625 L 145.816406 89.597656 L 132.609375 90.496094 C 132.191406 90.523438 131.777344 90.59375 131.375 90.703125 C 130.96875 90.8125 130.578125 90.960938 130.203125 91.144531 C 129.828125 91.332031 129.476562 91.554688 129.144531 91.808594 C 128.8125 92.066406 128.507812 92.351562 128.230469 92.667969 C 127.957031 92.984375 127.714844 93.324219 127.503906 93.6875 C 127.296875 94.050781 127.125 94.429688 126.992188 94.828125 C 126.859375 95.226562 126.765625 95.632812 126.710938 96.046875 C 126.65625 96.464844 126.644531 96.878906 126.671875 97.296875 L 128.179688 119.445312 C 128.210938 119.863281 128.277344 120.273438 128.386719 120.679688 C 128.496094 121.082031 128.644531 121.472656 128.832031 121.847656 C 129.019531 122.222656 129.238281 122.578125 129.496094 122.910156 C 129.75 123.242188 130.035156 123.542969 130.351562 123.820312 C 130.667969 124.09375 131.007812 124.335938 131.371094 124.546875 C 131.734375 124.753906 132.113281 124.925781 132.511719 125.058594 C 132.910156 125.191406 133.316406 125.285156 133.730469 125.339844 C 134.148438 125.394531 134.5625 125.40625 134.980469 125.378906 Z M 134.980469 125.378906 " fill-opacity="1" fill-rule="nonzero"/><path fill="#e9e8e4" d="M 145.867188 110.421875 C 145.910156 110.710938 145.921875 111 145.90625 111.292969 C 145.886719 111.582031 145.84375 111.871094 145.769531 112.152344 C 145.699219 112.4375 145.597656 112.710938 145.472656 112.972656 C 145.34375 113.238281 145.191406 113.484375 145.015625 113.71875 C 144.839844 113.953125 144.644531 114.167969 144.425781 114.363281 C 144.210938 114.554688 143.972656 114.726562 143.722656 114.875 C 143.472656 115.027344 143.207031 115.148438 142.929688 115.246094 C 142.65625 115.339844 142.375 115.410156 142.082031 115.453125 C 141.792969 115.492188 141.503906 115.503906 141.210938 115.488281 C 140.921875 115.472656 140.632812 115.429688 140.351562 115.355469 C 140.066406 115.28125 139.792969 115.183594 139.53125 115.058594 C 139.265625 114.929688 139.019531 114.78125 138.785156 114.605469 C 138.550781 114.429688 138.335938 114.230469 138.140625 114.015625 C 137.945312 113.796875 137.773438 113.5625 137.625 113.3125 C 137.476562 113.058594 137.351562 112.796875 137.257812 112.519531 C 137.160156 112.242188 137.089844 111.960938 137.050781 111.671875 C 136.703125 109.238281 138.203125 105.605469 140.636719 105.257812 C 143.066406 104.914062 145.523438 107.984375 145.867188 110.421875 Z M 145.867188 110.421875 " fill-opacity="1" fill-rule="nonzero"/><path fill="#e9e8e4" d="M 167.894531 108.921875 C 167.933594 109.210938 167.945312 109.5 167.929688 109.792969 C 167.914062 110.085938 167.871094 110.371094 167.796875 110.65625 C 167.722656 110.9375 167.625 111.210938 167.496094 111.476562 C 167.371094 111.738281 167.21875 111.988281 167.042969 112.222656 C 166.867188 112.457031 166.671875 112.671875 166.453125 112.863281 C 166.234375 113.058594 166 113.230469 165.75 113.378906 C 165.496094 113.53125 165.234375 113.652344 164.957031 113.75 C 164.683594 113.847656 164.398438 113.914062 164.109375 113.957031 C 163.820312 113.996094 163.53125 114.007812 163.238281 113.992188 C 162.945312 113.976562 162.65625 113.933594 162.375 113.859375 C 162.089844 113.785156 161.816406 113.6875 161.554688 113.5625 C 161.292969 113.433594 161.042969 113.28125 160.808594 113.105469 C 160.574219 112.929688 160.359375 112.734375 160.164062 112.515625 C 159.96875 112.300781 159.796875 112.0625 159.648438 111.8125 C 159.5 111.558594 159.378906 111.296875 159.28125 111.019531 C 159.183594 110.746094 159.117188 110.460938 159.074219 110.171875 C 158.730469 107.738281 160.230469 104.105469 162.660156 103.761719 C 165.09375 103.414062 167.546875 106.484375 167.894531 108.921875 Z M 167.894531 108.921875 " fill-opacity="1" fill-rule="nonzero"/><path fill="#e9e8e4" d="M 151.253906 116.769531 C 152.714844 117.003906 154.707031 116.863281 157.027344 115.5 L 156.464844 114.554688 C 152.292969 117.003906 149.421875 114.976562 149.289062 114.878906 L 148.640625 115.777344 C 149.433594 116.304688 150.308594 116.636719 151.253906 116.769531 Z M 151.253906 116.769531 " fill-opacity="1" fill-rule="nonzero"/><path fill="#d6d6d4" d="M 136.714844 76.382812 C 137.449219 77.445312 138.3125 78.394531 139.300781 79.226562 C 140.292969 80.0625 141.378906 80.746094 142.554688 81.289062 C 143.730469 81.828125 144.957031 82.203125 146.234375 82.414062 C 147.511719 82.625 148.792969 82.660156 150.078125 82.527344 C 159.207031 81.722656 161.125 74.722656 161.125 74.722656 Z M 136.714844 76.382812 " fill-opacity="1" fill-rule="nonzero"/><g clip-path="url(#4f5c36dac1)"><path fill="#0cc0df" d="M 166.164062 46.492188 C 150.289062 51.832031 147.191406 60.121094 146.945312 65.207031 C 144.628906 62.015625 139.449219 58.386719 127.964844 60.21875 C 127.746094 60.253906 127.546875 60.335938 127.367188 60.46875 C 127.1875 60.597656 127.046875 60.761719 126.945312 60.957031 C 126.84375 61.152344 126.792969 61.363281 126.789062 61.585938 C 126.785156 61.804688 126.835938 62.015625 126.933594 62.214844 C 129.027344 66.511719 135.578125 77.125 146.6875 70.640625 C 146.738281 72.871094 147 75.078125 147.472656 77.261719 C 147.523438 77.488281 147.613281 77.699219 147.75 77.886719 C 147.882812 78.078125 148.050781 78.234375 148.246094 78.359375 C 148.445312 78.480469 148.660156 78.558594 148.890625 78.597656 C 149.121094 78.632812 149.347656 78.621094 149.574219 78.566406 C 149.789062 78.511719 149.988281 78.417969 150.171875 78.289062 C 150.351562 78.15625 150.5 77.996094 150.621094 77.808594 C 150.738281 77.617188 150.816406 77.414062 150.855469 77.195312 C 150.898438 76.976562 150.894531 76.757812 150.847656 76.539062 C 150.371094 74.363281 150.132812 72.167969 150.136719 69.941406 C 167.824219 70.953125 168.324219 53.476562 168.015625 47.730469 C 168 47.511719 167.9375 47.308594 167.832031 47.121094 C 167.722656 46.933594 167.578125 46.777344 167.394531 46.65625 C 167.214844 46.535156 167.015625 46.460938 166.800781 46.429688 C 166.582031 46.402344 166.371094 46.421875 166.164062 46.492188 Z M 166.164062 46.492188 " fill-opacity="1" fill-rule="nonzero"/></g><path fill="#0cc0df" d="M 251.074219 87.734375 L 251.074219 104.574219 C 251.074219 104.988281 251.035156 105.398438 250.953125 105.800781 C 250.871094 106.207031 250.753906 106.601562 250.597656 106.984375 C 250.4375 107.363281 250.246094 107.726562 250.015625 108.070312 C 249.785156 108.414062 249.523438 108.730469 249.234375 109.023438 C 248.941406 109.316406 248.621094 109.578125 248.277344 109.804688 C 247.9375 110.035156 247.574219 110.230469 247.191406 110.386719 C 246.808594 110.542969 246.417969 110.664062 246.011719 110.742188 C 245.605469 110.824219 245.195312 110.863281 244.785156 110.863281 L 224.460938 110.863281 L 217.449219 116.148438 C 217.203125 116.335938 216.9375 116.359375 216.660156 116.21875 C 216.382812 116.082031 216.242188 115.855469 216.242188 115.546875 L 216.242188 110.863281 L 216.1875 110.863281 C 215.777344 110.863281 215.367188 110.824219 214.960938 110.742188 C 214.554688 110.664062 214.164062 110.542969 213.78125 110.386719 C 213.398438 110.226562 213.039062 110.035156 212.695312 109.804688 C 212.351562 109.574219 212.03125 109.316406 211.738281 109.023438 C 211.449219 108.730469 211.1875 108.414062 210.957031 108.070312 C 210.726562 107.726562 210.535156 107.363281 210.375 106.980469 C 210.21875 106.601562 210.097656 106.207031 210.019531 105.800781 C 209.9375 105.398438 209.898438 104.988281 209.898438 104.574219 L 209.898438 87.734375 C 209.894531 87.445312 209.917969 87.152344 209.960938 86.863281 C 209.960938 86.78125 209.980469 86.695312 210 86.617188 C 210.128906 85.890625 210.378906 85.210938 210.75 84.574219 C 211.121094 83.9375 211.589844 83.382812 212.15625 82.910156 C 212.722656 82.4375 213.351562 82.074219 214.046875 81.824219 C 214.738281 81.570312 215.453125 81.445312 216.191406 81.449219 L 244.796875 81.449219 C 245.210938 81.449219 245.617188 81.488281 246.023438 81.570312 C 246.425781 81.652344 246.820312 81.769531 247.199219 81.929688 C 247.582031 82.089844 247.941406 82.28125 248.285156 82.511719 C 248.628906 82.742188 248.945312 83.003906 249.234375 83.292969 C 249.527344 83.585938 249.785156 83.902344 250.015625 84.246094 C 250.246094 84.589844 250.4375 84.953125 250.59375 85.332031 C 250.753906 85.714844 250.871094 86.105469 250.953125 86.511719 C 251.03125 86.914062 251.074219 87.324219 251.074219 87.734375 Z M 251.074219 87.734375 " fill-opacity="1" fill-rule="nonzero"/><path fill="#e9e8e4" d="M 221.910156 94.992188 C 221.808594 94.714844 221.800781 94.433594 221.882812 94.148438 C 221.96875 93.863281 222.128906 93.632812 222.363281 93.453125 C 222.84375 93.089844 224.222656 92.59375 225.152344 92.285156 C 225.410156 92.199219 225.667969 92.207031 225.917969 92.308594 C 226.171875 92.410156 226.363281 92.582031 226.488281 92.824219 L 228.902344 97.484375 C 228.902344 97.484375 231.917969 91.113281 234.5625 88.179688 C 234.757812 87.964844 235 87.828125 235.28125 87.765625 C 235.566406 87.707031 235.84375 87.734375 236.109375 87.855469 C 237.140625 88.277344 238.039062 88.898438 238.804688 89.714844 C 238.976562 89.925781 239.078125 90.167969 239.101562 90.441406 C 239.125 90.714844 239.074219 90.96875 238.941406 91.207031 C 237.828125 93.265625 234.378906 99.402344 231.769531 102.003906 C 231.539062 102.230469 231.261719 102.359375 230.9375 102.382812 C 229.511719 102.515625 228.085938 102.535156 226.65625 102.441406 C 226.226562 102.394531 225.894531 102.191406 225.660156 101.828125 C 224.828125 100.535156 222.6875 97.101562 221.910156 94.992188 Z M 221.910156 94.992188 " fill-opacity="1" fill-rule="nonzero"/><path fill="#0097b2" d="M 250.914062 105.957031 C 250.828125 106.332031 250.710938 106.695312 250.5625 107.050781 C 250.320312 107.617188 250 108.136719 249.605469 108.609375 C 249.210938 109.082031 248.757812 109.484375 248.242188 109.824219 C 247.726562 110.164062 247.175781 110.421875 246.585938 110.597656 C 245.996094 110.777344 245.394531 110.863281 244.777344 110.863281 L 224.460938 110.863281 L 217.449219 116.148438 C 217.203125 116.335938 216.9375 116.359375 216.660156 116.21875 C 216.382812 116.082031 216.242188 115.855469 216.242188 115.546875 L 216.242188 110.863281 L 216.1875 110.863281 C 215.777344 110.863281 215.367188 110.824219 214.960938 110.742188 C 214.554688 110.664062 214.164062 110.542969 213.78125 110.386719 C 213.398438 110.226562 213.039062 110.035156 212.695312 109.804688 C 212.351562 109.574219 212.03125 109.316406 211.738281 109.023438 C 211.449219 108.730469 211.1875 108.414062 210.957031 108.070312 C 210.726562 107.726562 210.535156 107.363281 210.375 106.980469 C 210.21875 106.601562 210.097656 106.207031 210.019531 105.800781 C 209.9375 105.398438 209.898438 104.988281 209.898438 104.574219 L 209.898438 87.734375 C 209.894531 87.445312 209.917969 87.152344 209.960938 86.863281 C 210.972656 93.785156 217.316406 106.933594 250.914062 105.957031 Z M 250.914062 105.957031 " fill-opacity="1" fill-rule="nonzero"/><path fill="#0cc0df" d="M 248.976562 80.917969 C 248.933594 80.921875 248.894531 80.921875 248.851562 80.917969 C 248.640625 80.886719 248.46875 80.785156 248.339844 80.613281 C 248.214844 80.4375 248.167969 80.246094 248.199219 80.03125 L 248.789062 76.480469 C 248.824219 76.273438 248.929688 76.105469 249.101562 75.980469 C 249.277344 75.855469 249.46875 75.8125 249.679688 75.847656 C 249.890625 75.878906 250.054688 75.984375 250.179688 76.15625 C 250.304688 76.332031 250.351562 76.523438 250.316406 76.734375 L 249.734375 80.269531 C 249.707031 80.457031 249.617188 80.609375 249.472656 80.734375 C 249.332031 80.855469 249.164062 80.917969 248.976562 80.917969 Z M 248.976562 80.917969 " fill-opacity="1" fill-rule="nonzero"/><g clip-path="url(#cbf443ffbe)"><path fill="#0cc0df" d="M 255.515625 84.5625 L 252.175781 84.5625 C 251.953125 84.574219 251.757812 84.507812 251.597656 84.355469 C 251.433594 84.199219 251.351562 84.011719 251.351562 83.789062 C 251.351562 83.566406 251.433594 83.378906 251.597656 83.226562 C 251.757812 83.074219 251.953125 83.003906 252.175781 83.019531 L 255.515625 83.019531 C 255.738281 83.003906 255.933594 83.074219 256.09375 83.226562 C 256.257812 83.378906 256.339844 83.566406 256.339844 83.789062 C 256.339844 84.011719 256.257812 84.199219 256.09375 84.355469 C 255.933594 84.507812 255.738281 84.574219 255.515625 84.5625 Z M 255.515625 84.5625 " fill-opacity="1" fill-rule="nonzero"/></g><path fill="#0cc0df" d="M 251.226562 82.433594 C 250.882812 82.433594 250.644531 82.28125 250.511719 81.964844 C 250.375 81.652344 250.429688 81.375 250.664062 81.128906 L 254.40625 77.164062 C 254.554688 77.003906 254.734375 76.921875 254.949219 76.914062 C 255.164062 76.90625 255.347656 76.976562 255.503906 77.125 C 255.664062 77.273438 255.742188 77.453125 255.75 77.667969 C 255.753906 77.882812 255.683594 78.066406 255.53125 78.222656 L 251.785156 82.1875 C 251.636719 82.347656 251.449219 82.429688 251.226562 82.433594 Z M 251.226562 82.433594 " fill-opacity="1" fill-rule="nonzero"/></svg>