<svg xmlns="http://www.w3.org/2000/svg" xmlns:xlink="http://www.w3.org/1999/xlink" width="100" zoomAndPan="magnify" viewBox="0 0 75 30.000001" height="40" preserveAspectRatio="xMidYMid meet" version="1.0"><path fill="#ffffff" d="M 8.957031 17.828125 C 8.546875 17.828125 8.191406 17.738281 7.886719 17.566406 C 7.585938 17.386719 7.351562 17.121094 7.183594 16.757812 L 4.78125 11.605469 C 4.738281 11.507812 4.699219 11.410156 4.667969 11.304688 C 4.632812 11.195312 4.617188 11.074219 4.617188 10.933594 C 4.617188 10.632812 4.722656 10.386719 4.9375 10.195312 C 5.148438 10.003906 5.492188 9.910156 5.960938 9.910156 C 6.292969 9.910156 6.539062 9.972656 6.703125 10.097656 C 6.871094 10.222656 6.992188 10.363281 7.074219 10.523438 L 10.003906 16.78125 C 10.03125 16.878906 10.089844 16.925781 10.179688 16.925781 C 10.222656 16.925781 10.261719 16.917969 10.296875 16.898438 C 10.328125 16.878906 10.355469 16.839844 10.378906 16.78125 L 10.398438 16.738281 C 10.6875 16.113281 10.882812 15.5625 10.992188 15.089844 C 11.105469 14.617188 11.160156 14.199219 11.160156 13.828125 C 11.160156 13.492188 11.128906 13.191406 11.066406 12.925781 C 11.003906 12.664062 10.929688 12.421875 10.851562 12.203125 C 10.769531 11.988281 10.699219 11.78125 10.636719 11.589844 C 10.574219 11.394531 10.542969 11.203125 10.542969 11.011719 C 10.542969 10.6875 10.644531 10.421875 10.851562 10.210938 C 11.054688 10.003906 11.378906 9.898438 11.820312 9.898438 C 12.285156 9.898438 12.625 9.996094 12.851562 10.1875 C 13.074219 10.382812 13.1875 10.632812 13.1875 10.933594 C 13.1875 11.082031 13.171875 11.207031 13.136719 11.320312 C 13.101562 11.429688 13.0625 11.535156 13.011719 11.636719 L 10.621094 16.757812 C 10.449219 17.121094 10.234375 17.386719 9.96875 17.566406 C 9.707031 17.738281 9.367188 17.828125 8.957031 17.828125 Z M 8.957031 17.828125 " fill-opacity="1" fill-rule="nonzero"/><path fill="#ffffff" d="M 15.277344 17.828125 C 14.851562 17.828125 14.535156 17.726562 14.324219 17.53125 C 14.117188 17.332031 14.011719 17.070312 14.011719 16.75 L 14.011719 10.964844 C 14.011719 10.644531 14.117188 10.382812 14.324219 10.1875 C 14.535156 9.996094 14.851562 9.898438 15.277344 9.898438 C 15.710938 9.898438 16.03125 9.996094 16.234375 10.1875 C 16.441406 10.382812 16.546875 10.644531 16.546875 10.964844 L 16.546875 16.75 C 16.546875 17.070312 16.441406 17.332031 16.234375 17.53125 C 16.03125 17.726562 15.710938 17.828125 15.277344 17.828125 Z M 15.277344 17.828125 " fill-opacity="1" fill-rule="nonzero"/><path fill="#ffffff" d="M 21.292969 17.828125 C 20.863281 17.828125 20.546875 17.726562 20.339844 17.53125 C 20.128906 17.332031 20.023438 17.070312 20.023438 16.75 L 20.023438 10.371094 C 20.023438 10.269531 19.972656 10.214844 19.871094 10.214844 L 19.847656 10.214844 C 19.730469 10.214844 19.625 10.269531 19.527344 10.378906 C 19.433594 10.484375 19.339844 10.613281 19.253906 10.769531 C 19.164062 10.921875 19.070312 11.078125 18.964844 11.230469 C 18.863281 11.382812 18.742188 11.515625 18.597656 11.621094 C 18.453125 11.726562 18.28125 11.78125 18.074219 11.78125 C 17.847656 11.78125 17.660156 11.707031 17.507812 11.554688 C 17.355469 11.40625 17.28125 11.214844 17.28125 10.988281 C 17.28125 10.707031 17.390625 10.476562 17.613281 10.289062 C 17.832031 10.101562 18.117188 10.007812 18.460938 10.007812 L 24.132812 10.007812 C 24.480469 10.007812 24.761719 10.101562 24.980469 10.289062 C 25.203125 10.476562 25.3125 10.707031 25.3125 10.988281 C 25.3125 11.214844 25.234375 11.40625 25.082031 11.554688 C 24.925781 11.707031 24.738281 11.78125 24.519531 11.78125 C 24.3125 11.78125 24.136719 11.726562 23.996094 11.621094 C 23.851562 11.515625 23.730469 11.382812 23.625 11.230469 C 23.523438 11.078125 23.425781 10.921875 23.339844 10.769531 C 23.253906 10.613281 23.160156 10.484375 23.070312 10.378906 C 22.976562 10.269531 22.871094 10.214844 22.746094 10.214844 L 22.722656 10.214844 C 22.613281 10.214844 22.558594 10.269531 22.558594 10.371094 L 22.558594 16.75 C 22.558594 17.070312 22.453125 17.332031 22.25 17.53125 C 22.042969 17.726562 21.726562 17.828125 21.292969 17.828125 Z M 21.292969 17.828125 " fill-opacity="1" fill-rule="nonzero"/><path fill="#ffffff" d="M 27.050781 17.828125 C 26.589844 17.828125 26.246094 17.726562 26.019531 17.53125 C 25.796875 17.332031 25.6875 17.085938 25.6875 16.792969 C 25.6875 16.644531 25.703125 16.519531 25.734375 16.40625 C 25.765625 16.296875 25.804688 16.191406 25.851562 16.089844 L 28.253906 10.964844 C 28.429688 10.597656 28.648438 10.328125 28.90625 10.15625 C 29.167969 9.984375 29.503906 9.898438 29.914062 9.898438 C 30.328125 9.898438 30.683594 9.984375 30.988281 10.15625 C 31.292969 10.328125 31.527344 10.597656 31.6875 10.964844 L 34.101562 16.109375 C 34.144531 16.207031 34.183594 16.308594 34.214844 16.414062 C 34.25 16.519531 34.265625 16.644531 34.265625 16.792969 C 34.265625 17.085938 34.15625 17.332031 33.945312 17.523438 C 33.730469 17.71875 33.386719 17.816406 32.910156 17.816406 C 32.578125 17.816406 32.332031 17.753906 32.171875 17.632812 C 32.011719 17.503906 31.890625 17.363281 31.808594 17.199219 L 31.027344 15.527344 C 30.902344 15.246094 30.707031 15.027344 30.445312 14.863281 C 30.179688 14.703125 29.898438 14.621094 29.59375 14.621094 L 27.789062 14.621094 C 27.839844 14.914062 27.910156 15.183594 27.996094 15.421875 C 28.085938 15.660156 28.164062 15.882812 28.234375 16.09375 C 28.304688 16.300781 28.339844 16.511719 28.339844 16.726562 C 28.339844 17.042969 28.238281 17.304688 28.03125 17.511719 C 27.824219 17.722656 27.5 17.828125 27.050781 17.828125 Z M 27.757812 14.414062 L 29.550781 14.414062 C 29.769531 14.414062 29.941406 14.320312 30.058594 14.128906 C 30.117188 14.046875 30.144531 13.945312 30.144531 13.816406 C 30.144531 13.707031 30.128906 13.617188 30.089844 13.542969 L 28.878906 10.945312 C 28.835938 10.847656 28.773438 10.800781 28.691406 10.800781 C 28.65625 10.800781 28.621094 10.808594 28.585938 10.828125 C 28.554688 10.847656 28.523438 10.886719 28.492188 10.945312 L 28.4375 11.054688 C 28.167969 11.65625 27.976562 12.1875 27.875 12.644531 C 27.773438 13.105469 27.722656 13.515625 27.722656 13.871094 C 27.722656 14.0625 27.734375 14.246094 27.757812 14.414062 Z M 27.757812 14.414062 " fill-opacity="1" fill-rule="nonzero"/><path fill="#ffffff" d="M 53.59375 17.71875 C 53.226562 17.71875 52.953125 17.617188 52.769531 17.414062 C 52.585938 17.214844 52.492188 16.949219 52.492188 16.628906 L 52.492188 11.097656 C 52.492188 10.769531 52.585938 10.503906 52.769531 10.304688 C 52.953125 10.105469 53.226562 10.007812 53.59375 10.007812 L 56.644531 10.007812 C 57.46875 10.007812 58.191406 10.164062 58.8125 10.476562 C 59.4375 10.789062 59.925781 11.230469 60.277344 11.808594 C 60.632812 12.386719 60.808594 13.070312 60.808594 13.863281 C 60.808594 14.65625 60.632812 15.339844 60.277344 15.914062 C 59.925781 16.492188 59.4375 16.9375 58.8125 17.25 C 58.191406 17.5625 57.46875 17.71875 56.644531 17.71875 Z M 55.035156 17.355469 C 55.035156 17.457031 55.09375 17.507812 55.203125 17.507812 L 56.0625 17.507812 C 56.503906 17.507812 56.886719 17.386719 57.21875 17.144531 C 57.550781 16.902344 57.804688 16.515625 57.988281 15.984375 C 58.171875 15.449219 58.261719 14.746094 58.261719 13.863281 C 58.261719 12.964844 58.171875 12.253906 57.988281 11.71875 C 57.804688 11.1875 57.550781 10.804688 57.21875 10.570312 C 56.886719 10.335938 56.503906 10.214844 56.0625 10.214844 L 55.203125 10.214844 C 55.09375 10.214844 55.035156 10.269531 55.035156 10.371094 Z M 55.035156 17.355469 " fill-opacity="1" fill-rule="nonzero"/><path fill="#ffffff" d="M 65.808594 17.828125 C 64.441406 17.828125 63.429688 17.546875 62.773438 16.988281 C 62.117188 16.433594 61.789062 15.683594 61.789062 14.742188 L 61.789062 10.964844 C 61.789062 10.644531 61.894531 10.382812 62.101562 10.1875 C 62.3125 9.996094 62.628906 9.898438 63.054688 9.898438 C 63.488281 9.898438 63.804688 9.996094 64.011719 10.1875 C 64.21875 10.382812 64.320312 10.644531 64.320312 10.964844 L 64.320312 15.703125 C 64.320312 16.253906 64.441406 16.710938 64.679688 17.074219 C 64.917969 17.4375 65.292969 17.617188 65.808594 17.617188 C 66.320312 17.617188 66.695312 17.445312 66.929688 17.097656 C 67.167969 16.746094 67.285156 16.28125 67.285156 15.703125 L 67.285156 10.964844 C 67.285156 10.644531 67.386719 10.382812 67.597656 10.1875 C 67.804688 9.996094 68.125 9.898438 68.550781 9.898438 C 68.984375 9.898438 69.304688 9.996094 69.507812 10.1875 C 69.714844 10.382812 69.816406 10.644531 69.816406 10.964844 L 69.816406 14.742188 C 69.816406 15.683594 69.488281 16.433594 68.832031 16.988281 C 68.175781 17.546875 67.167969 17.828125 65.808594 17.828125 Z M 65.808594 17.828125 " fill-opacity="1" fill-rule="nonzero"/><path stroke-linecap="butt" transform="matrix(0.0905794, -0.0252322, 0.0252322, 0.0905794, 44.640294, 10.679889)" fill="none" stroke-linejoin="miter" d="M -0.0123214 0.986218 L 69.282518 1.01232 " stroke="#000000" stroke-width="2" stroke-opacity="1" stroke-miterlimit="4"/><path stroke-linecap="butt" transform="matrix(0.0914217, 0.021986, -0.021986, 0.0914217, 37.443688, 8.931244)" fill="none" stroke-linejoin="miter" d="M 0.00370523 1.007549 L 79.514836 0.985277 " stroke="#000000" stroke-width="2" stroke-opacity="1" stroke-miterlimit="4"/><path stroke-linecap="butt" transform="matrix(0.0912922, -0.0225173, 0.0225173, 0.0912922, 44.643021, 14.38215)" fill="none" stroke-linejoin="miter" d="M -0.0132361 0.988126 L 68.744091 1.002997 " stroke="#000000" stroke-width="2" stroke-opacity="1" stroke-miterlimit="4"/><path stroke-linecap="butt" transform="matrix(0.0900129, 0.0271844, -0.0271844, 0.0900129, 44.692706, 7.037516)" fill="none" stroke-linejoin="miter" d="M -0.0106165 1.018505 L 69.723769 1.005699 " stroke="#000000" stroke-width="2" stroke-opacity="1" stroke-miterlimit="4"/><path stroke-linecap="butt" transform="matrix(0.0909864, -0.0237226, 0.0237226, 0.0909864, 37.397971, 8.931383)" fill="none" stroke-linejoin="miter" d="M -0.000998345 1.011475 L 79.893629 1.020029 " stroke="#000000" stroke-width="2" stroke-opacity="1" stroke-miterlimit="4"/><path stroke-linecap="butt" transform="matrix(0.0914262, 0.0219668, -0.0219668, 0.0914262, 37.443674, 17.913056)" fill="none" stroke-linejoin="miter" d="M 0.00030465 0.993632 L 79.511504 0.988039 " stroke="#000000" stroke-width="2" stroke-opacity="1" stroke-miterlimit="4"/><path stroke-linecap="butt" transform="matrix(0.0905854, -0.0252106, 0.0252106, 0.0905854, 44.640324, 19.660188)" fill="none" stroke-linejoin="miter" d="M -0.0128795 0.987872 L 69.28195 0.99746 " stroke="#000000" stroke-width="2" stroke-opacity="1" stroke-miterlimit="4"/><path stroke-linecap="butt" transform="matrix(0, 0.0940282, -0.0940282, 0, 37.515397, 9.022901)" fill="none" stroke-linejoin="miter" d="M 0.00570207 0.994616 L 95.513919 0.994616 " stroke="#000000" stroke-width="2" stroke-opacity="1" stroke-miterlimit="4"/><path stroke-linecap="butt" transform="matrix(0.091563, -0.0213896, 0.0213896, 0.091563, 44.644152, 17.91279)" fill="none" stroke-linejoin="miter" d="M -0.0142376 0.991797 L 68.539605 1.008144 " stroke="#000000" stroke-width="2" stroke-opacity="1" stroke-miterlimit="4"/><path stroke-linecap="butt" transform="matrix(0, 0.0940282, -0.0940282, 0, 51.034396, 9.023175)" fill="none" stroke-linejoin="miter" d="M 0.00279231 0.988953 L 18.57268 0.988953 " stroke="#000000" stroke-width="2" stroke-opacity="1" stroke-miterlimit="4"/><path stroke-linecap="butt" transform="matrix(0.0909639, -0.0238091, 0.0238091, 0.0909639, 44.641739, 12.322199)" fill="none" stroke-linejoin="miter" d="M -0.0177047 1.005255 L 68.995509 0.989962 " stroke="#000000" stroke-width="2" stroke-opacity="1" stroke-miterlimit="4"/><path stroke-linecap="butt" transform="matrix(0, 0.0940282, -0.0940282, 0, 51.03463, 12.926056)" fill="none" stroke-linejoin="miter" d="M -0.00291865 0.991448 L 16.448257 0.991448 " stroke="#000000" stroke-width="2" stroke-opacity="1" stroke-miterlimit="4"/><path stroke-linecap="butt" transform="matrix(0.090508, 0.0254875, -0.0254875, 0.090508, 38.883326, 10.680255)" fill="none" stroke-linejoin="miter" d="M 0.0121757 0.982957 L 64.455158 1.005513 " stroke="#000000" stroke-width="2" stroke-opacity="1" stroke-miterlimit="4"/><path stroke-linecap="butt" transform="matrix(0.000000000164111, 0.0940282, -0.0940282, 0.000000000164111, 38.951324, 10.771219)" fill="none" stroke-linejoin="miter" d="M -0.0179448 1.019434 L 23.703322 1.019434 " stroke="#000000" stroke-width="2" stroke-opacity="1" stroke-miterlimit="4"/><path stroke-linecap="butt" transform="matrix(0.000000000164111, 0.0940282, -0.0940282, 0.000000000164111, 51.034786, 16.432143)" fill="none" stroke-linejoin="miter" d="M 0.0154309 0.993103 L 16.715867 0.993103 " stroke="#000000" stroke-width="2" stroke-opacity="1" stroke-miterlimit="4"/><path stroke-linecap="butt" transform="matrix(0.0911921, 0.0229195, -0.0229195, 0.0911921, 38.880764, 16.447348)" fill="none" stroke-linejoin="miter" d="M 0.017141 1.001418 L 63.967986 0.991808 " stroke="#000000" stroke-width="2" stroke-opacity="1" stroke-miterlimit="4"/><path stroke-linecap="butt" transform="matrix(0.000000000164111, -0.0940282, 0.0940282, 0.000000000164111, 38.763752, 16.538361)" fill="none" stroke-linejoin="miter" d="M -0.0074589 1.016958 L 20.764228 1.016958 " stroke="#000000" stroke-width="2" stroke-opacity="1" stroke-miterlimit="4"/><path stroke-linecap="butt" transform="matrix(0.0914316, -0.0219444, 0.0219444, 0.0914316, 44.643592, 15.888125)" fill="none" stroke-linejoin="miter" d="M -0.0175097 1.005777 L 68.641617 0.993461 " stroke="#000000" stroke-width="2" stroke-opacity="1" stroke-miterlimit="4"/><path stroke-linecap="butt" transform="matrix(0.0911662, 0.0230224, -0.0230224, 0.0911662, 38.880863, 12.909501)" fill="none" stroke-linejoin="miter" d="M 0.0140843 0.989127 L 63.985172 0.987924 " stroke="#000000" stroke-width="2" stroke-opacity="1" stroke-miterlimit="4"/><path stroke-linecap="butt" transform="matrix(0.0914477, 0.0218774, -0.0218774, 0.0914477, 38.879729, 14.492835)" fill="none" stroke-linejoin="miter" d="M 0.0198523 1.013343 L 63.79266 1.006181 " stroke="#000000" stroke-width="2" stroke-opacity="1" stroke-miterlimit="4"/></svg>