<svg xmlns="http://www.w3.org/2000/svg" xmlns:xlink="http://www.w3.org/1999/xlink" width="1920" zoomAndPan="magnify" viewBox="0 0 1440 809.999993" height="1080" preserveAspectRatio="xMidYMid meet" version="1.0"><path fill="#ffffff" d="M 300.398438 453.328125 C 294.371094 453.328125 289.148438 452.042969 284.714844 449.472656 C 280.300781 446.882812 276.859375 442.941406 274.386719 437.648438 L 239.136719 361.996094 C 238.480469 360.601562 237.914062 359.121094 237.4375 357.566406 C 236.957031 355.996094 236.71875 354.183594 236.71875 352.125 C 236.71875 347.71875 238.28125 344.113281 241.410156 341.308594 C 244.53125 338.507812 249.539062 337.105469 256.429688 337.105469 C 261.277344 337.105469 264.917969 338.027344 267.335938 339.867188 C 269.769531 341.695312 271.582031 343.78125 272.773438 346.140625 L 315.765625 437.964844 C 316.183594 439.386719 317.046875 440.09375 318.355469 440.09375 C 319.003906 440.09375 319.570312 439.964844 320.050781 439.691406 C 320.527344 439.402344 320.929688 438.828125 321.261719 437.964844 L 321.578125 437.332031 C 325.777344 428.164062 328.683594 420.109375 330.296875 413.160156 C 331.921875 406.21875 332.742188 400.050781 332.742188 394.65625 C 332.742188 389.691406 332.28125 385.269531 331.363281 381.390625 C 330.441406 377.519531 329.382812 373.988281 328.195312 370.800781 C 327.023438 367.621094 325.980469 364.609375 325.058594 361.765625 C 324.140625 358.910156 323.679688 356.082031 323.679688 353.277344 C 323.679688 348.523438 325.183594 344.609375 328.195312 341.539062 C 331.226562 338.472656 335.972656 336.933594 342.441406 336.933594 C 349.230469 336.933594 354.265625 338.363281 357.546875 341.222656 C 360.839844 344.085938 362.496094 347.71875 362.496094 352.125 C 362.496094 354.300781 362.246094 356.183594 361.75 357.796875 C 361.265625 359.40625 360.65625 360.976562 359.90625 362.484375 L 324.828125 437.648438 C 322.332031 442.941406 319.144531 446.882812 315.277344 449.472656 C 311.398438 452.042969 306.441406 453.328125 300.398438 453.328125 Z M 300.398438 453.328125 " fill-opacity="1" fill-rule="nonzero"/><path fill="#ffffff" d="M 393.195312 453.328125 C 386.9375 453.328125 382.277344 451.875 379.210938 448.984375 C 376.140625 446.070312 374.609375 442.242188 374.609375 437.503906 L 374.609375 352.617188 C 374.609375 347.882812 376.140625 344.085938 379.210938 341.222656 C 382.277344 338.363281 386.9375 336.933594 393.195312 336.933594 C 399.542969 336.933594 404.226562 338.363281 407.238281 341.222656 C 410.269531 344.085938 411.785156 347.882812 411.785156 352.617188 L 411.785156 437.503906 C 411.785156 442.242188 410.269531 446.070312 407.238281 448.984375 C 404.226562 451.875 399.542969 453.328125 393.195312 453.328125 Z M 393.195312 453.328125 " fill-opacity="1" fill-rule="nonzero"/><path fill="#ffffff" d="M 481.445312 453.328125 C 475.1875 453.328125 470.527344 451.875 467.460938 448.984375 C 464.390625 446.070312 462.855469 442.242188 462.855469 437.503906 L 462.855469 343.898438 C 462.855469 342.386719 462.09375 341.625 460.582031 341.625 L 460.265625 341.625 C 458.539062 341.625 456.972656 342.414062 455.578125 343.984375 C 454.175781 345.539062 452.820312 347.449219 451.519531 349.710938 C 450.230469 351.976562 448.828125 354.242188 447.316406 356.5 C 445.820312 358.765625 444.015625 360.6875 441.910156 362.253906 C 439.816406 363.808594 437.261719 364.585938 434.253906 364.585938 C 430.917969 364.585938 428.132812 363.484375 425.910156 361.277344 C 423.699219 359.074219 422.601562 356.292969 422.601562 352.933594 C 422.601562 348.847656 424.210938 345.4375 427.433594 342.6875 C 430.671875 339.925781 434.828125 338.542969 439.894531 338.542969 L 523.171875 338.542969 C 528.234375 338.542969 532.378906 339.925781 535.601562 342.6875 C 538.839844 345.4375 540.464844 348.847656 540.464844 352.933594 C 540.464844 356.292969 539.328125 359.074219 537.070312 361.277344 C 534.800781 363.484375 532.046875 364.585938 528.808594 364.585938 C 525.796875 364.585938 523.234375 363.808594 521.128906 362.253906 C 519.035156 360.6875 517.226562 358.765625 515.71875 356.5 C 514.199219 354.242188 512.796875 351.976562 511.515625 349.710938 C 510.226562 347.449219 508.90625 345.539062 507.546875 343.984375 C 506.199219 342.414062 504.617188 341.625 502.796875 341.625 L 502.453125 341.625 C 500.839844 341.625 500.035156 342.386719 500.035156 343.898438 L 500.035156 437.503906 C 500.035156 442.242188 498.523438 446.070312 495.515625 448.984375 C 492.503906 451.875 487.8125 453.328125 481.445312 453.328125 Z M 481.445312 453.328125 " fill-opacity="1" fill-rule="nonzero"/><path fill="#ffffff" d="M 565.972656 453.328125 C 559.199219 453.328125 554.160156 451.875 550.867188 448.984375 C 547.585938 446.070312 545.945312 442.453125 545.945312 438.136719 C 545.945312 435.992188 546.183594 434.109375 546.667969 432.496094 C 547.140625 430.871094 547.710938 429.300781 548.363281 427.804688 L 583.613281 352.617188 C 586.203125 347.226562 589.40625 343.265625 593.226562 340.730469 C 597.058594 338.199219 601.988281 336.933594 608.015625 336.933594 C 614.058594 336.933594 619.308594 338.199219 623.785156 340.730469 C 628.25 343.265625 631.675781 347.226562 634.058594 352.617188 L 669.449219 428.121094 C 670.097656 429.523438 670.667969 431.015625 671.148438 432.582031 C 671.625 434.136719 671.867188 435.992188 671.867188 438.136719 C 671.867188 442.453125 670.300781 446.042969 667.175781 448.898438 C 664.046875 451.753906 658.984375 453.1875 651.984375 453.1875 C 647.128906 453.1875 643.507812 452.273438 641.136719 450.453125 C 638.777344 448.609375 637 446.503906 635.8125 444.121094 L 624.359375 419.546875 C 622.519531 415.460938 619.65625 412.230469 615.785156 409.851562 C 611.90625 407.476562 607.757812 406.28125 603.324219 406.28125 L 576.824219 406.28125 C 577.570312 410.597656 578.585938 414.511719 579.871094 418.023438 C 581.175781 421.519531 582.332031 424.800781 583.355469 427.863281 C 584.390625 430.933594 584.910156 434.035156 584.910156 437.15625 C 584.910156 441.804688 583.390625 445.660156 580.363281 448.726562 C 577.347656 451.789062 572.550781 453.328125 565.972656 453.328125 Z M 576.332031 403.230469 L 602.691406 403.230469 C 605.914062 403.230469 608.390625 401.835938 610.117188 399.03125 C 610.980469 397.84375 611.410156 396.324219 611.410156 394.484375 C 611.410156 392.871094 611.136719 391.535156 610.605469 390.457031 L 592.820312 352.300781 C 592.167969 350.902344 591.253906 350.199219 590.089844 350.199219 C 589.527344 350.199219 589.007812 350.335938 588.535156 350.601562 C 588.050781 350.875 587.59375 351.4375 587.152344 352.300781 L 586.347656 353.910156 C 582.355469 362.757812 579.597656 370.542969 578.089844 377.277344 C 576.59375 384.011719 575.84375 390.015625 575.84375 395.289062 C 575.84375 398.09375 576.003906 400.742188 576.332031 403.230469 Z M 576.332031 403.230469 " fill-opacity="1" fill-rule="nonzero"/><path fill="#ffffff" d="M 955.570312 451.71875 C 950.195312 451.71875 946.160156 450.242188 943.457031 447.285156 C 940.765625 444.316406 939.429688 440.460938 939.429688 435.71875 L 939.429688 354.574219 C 939.429688 349.722656 940.765625 345.839844 943.457031 342.917969 C 946.160156 340.003906 950.195312 338.542969 955.570312 338.542969 L 1000.375 338.542969 C 1012.4375 338.542969 1023.050781 340.839844 1032.199219 345.421875 C 1041.363281 350.011719 1048.53125 356.53125 1053.695312 364.988281 C 1058.875 373.449219 1061.464844 383.507812 1061.464844 395.144531 C 1061.464844 406.769531 1058.875 416.8125 1053.695312 425.273438 C 1048.53125 433.734375 1041.363281 440.257812 1032.199219 444.839844 C 1023.050781 449.429688 1012.4375 451.71875 1000.375 451.71875 Z M 976.75 446.394531 C 976.75 447.890625 977.5625 448.640625 979.195312 448.640625 L 991.800781 448.640625 C 998.257812 448.640625 1003.921875 446.871094 1008.777344 443.316406 C 1013.625 439.746094 1017.394531 434.066406 1020.085938 426.253906 C 1022.769531 418.445312 1024.113281 408.082031 1024.113281 395.144531 C 1024.113281 381.988281 1022.769531 371.507812 1020.085938 363.695312 C 1017.394531 355.890625 1013.625 350.257812 1008.777344 346.804688 C 1003.921875 343.351562 998.257812 341.625 991.800781 341.625 L 979.195312 341.625 C 977.5625 341.625 976.75 342.386719 976.75 343.898438 Z M 976.75 446.394531 " fill-opacity="1" fill-rule="nonzero"/><path fill="#ffffff" d="M 1134.847656 453.328125 C 1114.796875 453.328125 1099.949219 449.238281 1090.304688 441.042969 C 1080.671875 432.855469 1075.859375 421.863281 1075.859375 408.066406 L 1075.859375 352.617188 C 1075.859375 347.882812 1077.390625 344.085938 1080.460938 341.222656 C 1083.527344 338.363281 1088.1875 336.933594 1094.445312 336.933594 C 1100.792969 336.933594 1105.476562 338.363281 1108.488281 341.222656 C 1111.519531 344.085938 1113.035156 347.882812 1113.035156 352.617188 L 1113.035156 422.136719 C 1113.035156 430.214844 1114.777344 436.921875 1118.273438 442.25 C 1121.785156 447.589844 1127.308594 450.25 1134.847656 450.25 C 1142.386719 450.25 1147.882812 447.703125 1151.335938 442.597656 C 1154.789062 437.472656 1156.515625 430.65625 1156.515625 422.136719 L 1156.515625 352.617188 C 1156.515625 347.882812 1158.046875 344.085938 1161.121094 341.222656 C 1164.183594 338.363281 1168.84375 336.933594 1175.105469 336.933594 C 1181.46875 336.933594 1186.160156 338.363281 1189.175781 341.222656 C 1192.183594 344.085938 1193.691406 347.882812 1193.691406 352.617188 L 1193.691406 408.066406 C 1193.691406 421.863281 1188.867188 432.855469 1179.21875 441.042969 C 1169.585938 449.238281 1154.796875 453.328125 1134.847656 453.328125 Z M 1134.847656 453.328125 " fill-opacity="1" fill-rule="nonzero"/><path stroke-linecap="butt" transform="matrix(1.3295, -0.370351, 0.370351, 1.3295, 824.156797, 348.422522)" fill="none" stroke-linejoin="miter" d="M -0.00219631 0.997867 L 69.277856 1.002057 " stroke="#000000" stroke-width="2" stroke-opacity="1" stroke-miterlimit="4"/><path stroke-linecap="butt" transform="matrix(1.341863, 0.322704, -0.322704, 1.341863, 718.52697, 322.756381)" fill="none" stroke-linejoin="miter" d="M 0.00184858 0.999117 L 79.512108 1.000504 " stroke="#000000" stroke-width="2" stroke-opacity="1" stroke-miterlimit="4"/><path stroke-linecap="butt" transform="matrix(1.339962, -0.330503, 0.330503, 1.339962, 824.196877, 402.763296)" fill="none" stroke-linejoin="miter" d="M -0.00315729 1.000871 L 68.737089 1.000977 " stroke="#000000" stroke-width="2" stroke-opacity="1" stroke-miterlimit="4"/><path stroke-linecap="butt" transform="matrix(1.321185, 0.399005, -0.399005, 1.321185, 824.926069, 294.960766)" fill="none" stroke-linejoin="miter" d="M -0.00184418 1.002983 L 69.714348 0.99952 " stroke="#000000" stroke-width="2" stroke-opacity="1" stroke-miterlimit="4"/><path stroke-linecap="butt" transform="matrix(1.335474, -0.348194, 0.348194, 1.335474, 717.855978, 322.758431)" fill="none" stroke-linejoin="miter" d="M 0.00131884 1.003153 L 79.892145 1.001058 " stroke="#000000" stroke-width="2" stroke-opacity="1" stroke-miterlimit="4"/><path stroke-linecap="butt" transform="matrix(1.341929, 0.322422, -0.322422, 1.341929, 718.526754, 454.588941)" fill="none" stroke-linejoin="miter" d="M 0.00170175 0.99871 L 79.50873 1.003013 " stroke="#000000" stroke-width="2" stroke-opacity="1" stroke-miterlimit="4"/><path stroke-linecap="butt" transform="matrix(1.329588, -0.370034, 0.370034, 1.329588, 824.157277, 480.232916)" fill="none" stroke-linejoin="miter" d="M -0.00270285 0.999245 L 69.273548 1.00056 " stroke="#000000" stroke-width="2" stroke-opacity="1" stroke-miterlimit="4"/><path stroke-linecap="butt" transform="matrix(0, 1.380121, -1.380121, 0, 719.579442, 324.101694)" fill="none" stroke-linejoin="miter" d="M -0.0000953503 1.000074 L 95.524833 1.000074 " stroke="#000000" stroke-width="2" stroke-opacity="1" stroke-miterlimit="4"/><path stroke-linecap="butt" transform="matrix(1.343937, -0.313951, 0.313951, 1.343937, 824.213461, 454.585053)" fill="none" stroke-linejoin="miter" d="M -0.00291917 0.999837 L 68.533811 1.00099 " stroke="#000000" stroke-width="2" stroke-opacity="1" stroke-miterlimit="4"/><path stroke-linecap="butt" transform="matrix(0, 1.380121, -1.380121, 0, 918.007688, 324.105707)" fill="none" stroke-linejoin="miter" d="M -0.00300292 0.99903 L 18.589686 0.99903 " stroke="#000000" stroke-width="2" stroke-opacity="1" stroke-miterlimit="4"/><path stroke-linecap="butt" transform="matrix(1.335143, -0.349463, 0.349463, 1.335143, 824.178013, 372.5279)" fill="none" stroke-linejoin="miter" d="M -0.00287434 0.999426 L 68.984912 1.001829 " stroke="#000000" stroke-width="2" stroke-opacity="1" stroke-miterlimit="4"/><path stroke-linecap="butt" transform="matrix(0, 1.380121, -1.380121, 0, 918.011144, 381.391143)" fill="none" stroke-linejoin="miter" d="M -0.00320585 0.998704 L 16.463877 0.998704 " stroke="#000000" stroke-width="2" stroke-opacity="1" stroke-miterlimit="4"/><path stroke-linecap="butt" transform="matrix(1.328452, 0.374098, -0.374098, 1.328452, 739.657529, 348.427913)" fill="none" stroke-linejoin="miter" d="M 0.00148788 1.000671 L 64.446672 0.998132 " stroke="#000000" stroke-width="2" stroke-opacity="1" stroke-miterlimit="4"/><path stroke-linecap="butt" transform="matrix(0.00000000240877, 1.380121, -1.380121, 0.00000000240877, 740.655617, 349.76303)" fill="none" stroke-linejoin="miter" d="M -0.000950392 0.998661 L 23.717535 0.998661 " stroke="#000000" stroke-width="2" stroke-opacity="1" stroke-miterlimit="4"/><path stroke-linecap="butt" transform="matrix(0.00000000240877, 1.380121, -1.380121, 0.00000000240877, 918.013376, 432.852526)" fill="none" stroke-linejoin="miter" d="M -0.000698291 1.000321 L 16.721117 1.000321 " stroke="#000000" stroke-width="2" stroke-opacity="1" stroke-miterlimit="4"/><path stroke-linecap="butt" transform="matrix(1.338493, 0.336406, -0.336406, 1.338493, 739.619969, 433.075702)" fill="none" stroke-linejoin="miter" d="M 0.00109615 0.999626 L 63.963255 0.998415 " stroke="#000000" stroke-width="2" stroke-opacity="1" stroke-miterlimit="4"/><path stroke-linecap="butt" transform="matrix(0.00000000240877, -1.380121, 1.380121, 0.00000000240877, 737.902481, 434.411542)" fill="none" stroke-linejoin="miter" d="M -0.00182618 1.001851 L 20.781568 1.001851 " stroke="#000000" stroke-width="2" stroke-opacity="1" stroke-miterlimit="4"/><path stroke-linecap="butt" transform="matrix(1.342008, -0.322095, 0.322095, 1.342008, 824.205253, 424.867583)" fill="none" stroke-linejoin="miter" d="M -0.00298247 1.000288 L 68.632213 1.001448 " stroke="#000000" stroke-width="2" stroke-opacity="1" stroke-miterlimit="4"/><path stroke-linecap="butt" transform="matrix(1.338113, 0.337916, -0.337916, 1.338113, 739.621433, 381.148155)" fill="none" stroke-linejoin="miter" d="M 0.00150871 1.001123 L 63.981595 0.999098 " stroke="#000000" stroke-width="2" stroke-opacity="1" stroke-miterlimit="4"/><path stroke-linecap="butt" transform="matrix(1.342244, 0.321111, -0.321111, 1.342244, 739.604801, 404.387904)" fill="none" stroke-linejoin="miter" d="M 0.00108752 0.999979 L 63.784585 0.99914 " stroke="#000000" stroke-width="2" stroke-opacity="1" stroke-miterlimit="4"/></svg>